MonaSans-CondensedExtraLight.ufo
<glyph name="exclam" format="2">
  <advance width="165"/>
  <unicode hex="0021"/>
  <outline>
    <contour>
      <point x="72" y="146" type="line"/>
      <point x="94" y="146" type="line"/>
      <point x="99" y="523" type="line"/>
      <point x="99" y="729" type="line"/>
      <point x="67" y="729" type="line"/>
      <point x="67" y="523" type="line"/>
    </contour>
    <contour>
      <point x="83" y="-6" type="curve" smooth="yes"/>
      <point x="97" y="-6"/>
      <point x="108" y="4"/>
      <point x="108" y="18" type="curve" smooth="yes"/>
      <point x="108" y="32"/>
      <point x="97" y="42"/>
      <point x="83" y="42" type="curve" smooth="yes"/>
      <point x="69" y="42"/>
      <point x="58" y="32"/>
      <point x="58" y="18" type="curve" smooth="yes"/>
      <point x="58" y="4"/>
      <point x="69" y="-6"/>
    </contour>
  </outline>
</glyph>
<glyph name="numbersign" format="2">
  <advance width="419"/>
  <unicode hex="0023"/>
  <outline>
    <contour>
      <point x="124" y="0" type="line"/>
      <point x="152" y="0" type="line"/>
      <point x="152" y="265" type="line"/>
      <point x="273" y="265" type="line"/>
      <point x="273" y="0" type="line"/>
      <point x="301" y="0" type="line"/>
      <point x="301" y="265" type="line"/>
      <point x="413" y="265" type="line"/>
      <point x="413" y="291" type="line"/>
      <point x="301" y="291" type="line"/>
      <point x="301" y="462" type="line"/>
      <point x="413" y="462" type="line"/>
      <point x="413" y="488" type="line"/>
      <point x="301" y="488" type="line"/>
      <point x="301" y="729" type="line"/>
      <point x="273" y="729" type="line"/>
      <point x="273" y="488" type="line"/>
      <point x="152" y="488" type="line"/>
      <point x="152" y="729" type="line"/>
      <point x="124" y="729" type="line"/>
      <point x="124" y="488" type="line"/>
      <point x="6" y="488" type="line"/>
      <point x="6" y="462" type="line"/>
      <point x="124" y="462" type="line"/>
      <point x="124" y="291" type="line"/>
      <point x="6" y="291" type="line"/>
      <point x="6" y="265" type="line"/>
      <point x="124" y="265" type="line"/>
    </contour>
    <contour>
      <point x="152" y="291" type="line"/>
      <point x="152" y="462" type="line"/>
      <point x="273" y="462" type="line"/>
      <point x="273" y="291" type="line"/>
    </contour>
  </outline>
</glyph>
<glyph name="dollar" format="2">
  <advance width="397"/>
  <unicode hex="0024"/>
  <outline>
    <contour>
      <point x="206" y="10" type="curve" smooth="yes"/>
      <point x="295" y="10"/>
      <point x="355" y="66"/>
      <point x="355" y="180" type="curve" smooth="yes"/>
      <point x="355" y="305"/>
      <point x="290" y="342"/>
      <point x="218" y="379" type="curve" smooth="yes"/>
      <point x="149" y="414"/>
      <point x="88" y="450"/>
      <point x="88" y="556" type="curve" smooth="yes"/>
      <point x="88" y="635"/>
      <point x="117" y="688"/>
      <point x="193" y="688" type="curve" smooth="yes"/>
      <point x="262" y="688"/>
      <point x="312" y="656"/>
      <point x="313" y="522" type="curve"/>
      <point x="346" y="522" type="line"/>
      <point x="345" y="639"/>
      <point x="310" y="719"/>
      <point x="196" y="719" type="curve" smooth="yes"/>
      <point x="112" y="719"/>
      <point x="56" y="666"/>
      <point x="56" y="557" type="curve" smooth="yes"/>
      <point x="56" y="425"/>
      <point x="127" y="388"/>
      <point x="195" y="354" type="curve" smooth="yes"/>
      <point x="266" y="318"/>
      <point x="322" y="283"/>
      <point x="322" y="182" type="curve" smooth="yes"/>
      <point x="322" y="98"/>
      <point x="289" y="40"/>
      <point x="204" y="40" type="curve" smooth="yes"/>
      <point x="126" y="40"/>
      <point x="74" y="88"/>
      <point x="74" y="232" type="curve"/>
      <point x="40" y="232" type="line"/>
      <point x="43" y="99"/>
      <point x="84" y="10"/>
    </contour>
    <contour>
      <point x="184" y="-85" type="line"/>
      <point x="212" y="-85" type="line"/>
      <point x="212" y="20" type="line"/>
      <point x="184" y="20" type="line"/>
    </contour>
    <contour>
      <point x="184" y="706" type="line"/>
      <point x="212" y="706" type="line"/>
      <point x="212" y="814" type="line"/>
      <point x="184" y="814" type="line"/>
    </contour>
  </outline>
</glyph>
<glyph name="percent" format="2">
  <advance width="603"/>
  <unicode hex="0025"/>
  <outline>
    <contour>
      <point x="144" y="0" type="line"/>
      <point x="177" y="0" type="line"/>
      <point x="459" y="729" type="line"/>
      <point x="425" y="729" type="line"/>
    </contour>
    <contour>
      <point x="155" y="324" type="curve" smooth="yes"/>
      <point x="222" y="324"/>
      <point x="249" y="399"/>
      <point x="249" y="527" type="curve" smooth="yes"/>
      <point x="249" y="655"/>
      <point x="222" y="729"/>
      <point x="155" y="729" type="curve" smooth="yes"/>
      <point x="87" y="729"/>
      <point x="60" y="655"/>
      <point x="60" y="527" type="curve" smooth="yes"/>
      <point x="60" y="399"/>
      <point x="87" y="324"/>
    </contour>
    <contour>
      <point x="155" y="353" type="curve" smooth="yes"/>
      <point x="116" y="353"/>
      <point x="93" y="390"/>
      <point x="93" y="527" type="curve" smooth="yes"/>
      <point x="93" y="663"/>
      <point x="116" y="701"/>
      <point x="155" y="701" type="curve" smooth="yes"/>
      <point x="193" y="701"/>
      <point x="216" y="663"/>
      <point x="216" y="527" type="curve" smooth="yes"/>
      <point x="216" y="390"/>
      <point x="193" y="353"/>
    </contour>
    <contour>
      <point x="449" y="-6" type="curve" smooth="yes"/>
      <point x="516" y="-6"/>
      <point x="543" y="70"/>
      <point x="543" y="197" type="curve" smooth="yes"/>
      <point x="543" y="324"/>
      <point x="516" y="399"/>
      <point x="449" y="399" type="curve" smooth="yes"/>
      <point x="380" y="399"/>
      <point x="354" y="324"/>
      <point x="354" y="197" type="curve" smooth="yes"/>
      <point x="354" y="71"/>
      <point x="380" y="-6"/>
    </contour>
    <contour>
      <point x="449" y="23" type="curve" smooth="yes"/>
      <point x="410" y="23"/>
      <point x="386" y="59"/>
      <point x="386" y="197" type="curve" smooth="yes"/>
      <point x="386" y="335"/>
      <point x="410" y="372"/>
      <point x="449" y="372" type="curve" smooth="yes"/>
      <point x="486" y="372"/>
      <point x="510" y="335"/>
      <point x="510" y="197" type="curve" smooth="yes"/>
      <point x="510" y="59"/>
      <point x="486" y="23"/>
    </contour>
  </outline>
</glyph>
<glyph name="ampersand" format="2">
  <advance width="478"/>
  <unicode hex="0026"/>
  <outline>
    <contour>
      <point x="440" y="-7" type="curve" smooth="yes"/>
      <point x="448" y="-7"/>
      <point x="456" y="-6"/>
      <point x="461" y="-4" type="curve"/>
      <point x="461" y="25" type="line"/>
      <point x="458" y="24"/>
      <point x="451" y="23"/>
      <point x="446" y="23" type="curve" smooth="yes"/>
      <point x="406" y="23"/>
      <point x="381" y="49"/>
      <point x="327" y="147" type="curve" smooth="yes"/>
      <point x="184" y="405" type="line" smooth="yes"/>
      <point x="134" y="496"/>
      <point x="121" y="530"/>
      <point x="121" y="599" type="curve" smooth="yes"/>
      <point x="121" y="666"/>
      <point x="145" y="711"/>
      <point x="197" y="711" type="curve" smooth="yes"/>
      <point x="240" y="711"/>
      <point x="268" y="679"/>
      <point x="268" y="613" type="curve" smooth="yes"/>
      <point x="268" y="538"/>
      <point x="223" y="461"/>
      <point x="168" y="418" type="curve"/>
      <point x="182" y="395" type="line"/>
      <point x="250" y="445"/>
      <point x="300" y="533"/>
      <point x="300" y="615" type="curve" smooth="yes"/>
      <point x="300" y="690"/>
      <point x="262" y="739"/>
      <point x="197" y="739" type="curve" smooth="yes"/>
      <point x="135" y="739"/>
      <point x="89" y="689"/>
      <point x="89" y="599" type="curve" smooth="yes"/>
      <point x="89" y="526"/>
      <point x="111" y="473"/>
      <point x="153" y="398" type="curve" smooth="yes"/>
      <point x="309" y="119" type="line" smooth="yes"/>
      <point x="359" y="30"/>
      <point x="390" y="-7"/>
    </contour>
    <contour>
      <point x="177" y="-10" type="curve" smooth="yes"/>
      <point x="235" y="-10"/>
      <point x="296" y="26"/>
      <point x="324" y="106" type="curve"/>
      <point x="309" y="135" type="line"/>
      <point x="288" y="64"/>
      <point x="244" y="19"/>
      <point x="178" y="19" type="curve" smooth="yes"/>
      <point x="111" y="19"/>
      <point x="65" y="65"/>
      <point x="65" y="163" type="curve" smooth="yes"/>
      <point x="65" y="261"/>
      <point x="110" y="343"/>
      <point x="167" y="386" type="curve"/>
      <point x="154" y="408" type="line"/>
      <point x="91" y="359"/>
      <point x="32" y="272"/>
      <point x="32" y="161" type="curve" smooth="yes"/>
      <point x="32" y="58"/>
      <point x="86" y="-10"/>
    </contour>
    <contour>
      <point x="333" y="124" type="line"/>
      <point x="351" y="186"/>
      <point x="365" y="276"/>
      <point x="368" y="353" type="curve"/>
      <point x="439" y="350" type="line"/>
      <point x="444" y="376" type="line"/>
      <point x="339" y="376" type="line"/>
      <point x="340" y="358" type="line"/>
      <point x="339" y="297"/>
      <point x="329" y="221"/>
      <point x="315" y="156" type="curve"/>
    </contour>
  </outline>
</glyph>
<glyph name="quotesingle" format="2">
  <advance width="122"/>
  <unicode hex="0027"/>
  <anchor x="-26" y="0" name="#entry"/>
  <anchor x="105" y="0" name="#exit"/>
  <outline>
    <contour>
      <point x="51" y="493" type="line"/>
      <point x="71" y="493" type="line"/>
      <point x="75" y="624" type="line"/>
      <point x="75" y="729" type="line"/>
      <point x="47" y="729" type="line"/>
      <point x="47" y="624" type="line"/>
    </contour>
  </outline>
</glyph>
<glyph name="parenleft" format="2">
  <advance width="205"/>
  <unicode hex="0028"/>
  <outline>
    <contour>
      <point x="167" y="-167" type="curve"/>
      <point x="200" y="-167" type="line"/>
      <point x="120" y="-67"/>
      <point x="65" y="112"/>
      <point x="65" y="313" type="curve" smooth="yes"/>
      <point x="65" y="501"/>
      <point x="115" y="686"/>
      <point x="200" y="793" type="curve"/>
      <point x="167" y="793" type="line"/>
      <point x="82" y="685"/>
      <point x="33" y="498"/>
      <point x="33" y="313" type="curve" smooth="yes"/>
      <point x="33" y="128"/>
      <point x="82" y="-59"/>
    </contour>
  </outline>
</glyph>
<glyph name="asterisk" format="2">
  <advance width="258"/>
  <unicode hex="002A"/>
  <outline>
    <contour>
      <point x="116" y="482" type="line"/>
      <point x="142" y="482" type="line"/>
      <point x="142" y="535" type="line"/>
      <point x="134" y="596" type="line"/>
      <point x="184" y="560" type="line"/>
      <point x="230" y="533" type="line"/>
      <point x="243" y="556" type="line"/>
      <point x="197" y="582" type="line"/>
      <point x="144" y="606" type="line"/>
      <point x="197" y="631" type="line"/>
      <point x="242" y="656" type="line"/>
      <point x="230" y="678" type="line"/>
      <point x="184" y="653" type="line"/>
      <point x="134" y="618" type="line"/>
      <point x="142" y="678" type="line"/>
      <point x="142" y="729" type="line"/>
      <point x="116" y="729" type="line"/>
      <point x="116" y="678" type="line"/>
      <point x="124" y="618" type="line"/>
      <point x="74" y="653" type="line"/>
      <point x="29" y="678" type="line"/>
      <point x="16" y="656" type="line"/>
      <point x="61" y="631" type="line"/>
      <point x="115" y="606" type="line"/>
      <point x="61" y="582" type="line"/>
      <point x="15" y="556" type="line"/>
      <point x="29" y="533" type="line"/>
      <point x="74" y="560" type="line"/>
      <point x="124" y="596" type="line"/>
      <point x="116" y="535" type="line"/>
    </contour>
  </outline>
</glyph>
<glyph name="comma" format="2">
  <advance width="130"/>
  <unicode hex="002C"/>
  <anchor x="-22" y="0" name="#entry"/>
  <anchor x="141" y="0" name="#exit"/>
  <anchor x="61" y="522" name="top"/>
  <outline>
    <contour>
      <point x="12" y="-125" type="curve"/>
      <point x="35" y="-125" type="line"/>
      <point x="59" y="-102"/>
      <point x="91" y="-37"/>
      <point x="91" y="8" type="curve" smooth="yes"/>
      <point x="91" y="31"/>
      <point x="80" y="42"/>
      <point x="63" y="42" type="curve" smooth="yes"/>
      <point x="48" y="42"/>
      <point x="37" y="32"/>
      <point x="37" y="17" type="curve" smooth="yes"/>
      <point x="37" y="2"/>
      <point x="47" y="-7"/>
      <point x="62" y="-7" type="curve" smooth="yes"/>
      <point x="69" y="-7"/>
      <point x="73" y="-6"/>
      <point x="78" y="-2" type="curve"/>
      <point x="71" y="0" type="line"/>
      <point x="69" y="-37"/>
      <point x="45" y="-87"/>
    </contour>
  </outline>
</glyph>
<glyph name="hyphen" format="2">
  <advance width="264"/>
  <unicode hex="002D"/>
  <outline>
    <contour>
      <point x="42" y="246" type="line"/>
      <point x="222" y="246" type="line"/>
      <point x="222" y="271" type="line"/>
      <point x="42" y="271" type="line"/>
    </contour>
  </outline>
</glyph>
<glyph name="period" format="2">
  <advance width="124"/>
  <unicode hex="002E"/>
  <anchor x="-13" y="0" name="#entry"/>
  <anchor x="137" y="0" name="#exit"/>
  <anchor x="62" y="42" name="_top"/>
  <anchor x="62" y="522" name="top"/>
  <outline>
    <contour>
      <point x="62" y="-6" type="curve" smooth="yes"/>
      <point x="76" y="-6"/>
      <point x="87" y="4"/>
      <point x="87" y="18" type="curve" smooth="yes"/>
      <point x="87" y="32"/>
      <point x="76" y="42"/>
      <point x="62" y="42" type="curve" smooth="yes"/>
      <point x="48" y="42"/>
      <point x="37" y="32"/>
      <point x="37" y="18" type="curve" smooth="yes"/>
      <point x="37" y="4"/>
      <point x="48" y="-6"/>
    </contour>
  </outline>
</glyph>
<glyph name="slash" format="2">
  <advance width="190"/>
  <unicode hex="002F"/>
  <outline>
    <contour>
      <point x="-32" y="-82" type="line"/>
      <point x="-3" y="-82" type="line"/>
      <point x="202" y="729" type="line"/>
      <point x="173" y="729" type="line"/>
    </contour>
  </outline>
</glyph>
<glyph name="zero" format="2">
  <advance width="406"/>
  <unicode hex="0030"/>
  <outline>
    <contour>
      <point x="203" y="-10" type="curve" smooth="yes"/>
      <point x="323" y="-10"/>
      <point x="362" y="137"/>
      <point x="362" y="360" type="curve" smooth="yes"/>
      <point x="362" y="583"/>
      <point x="323" y="730"/>
      <point x="203" y="730" type="curve" smooth="yes"/>
      <point x="83" y="730"/>
      <point x="44" y="583"/>
      <point x="44" y="360" type="curve" smooth="yes"/>
      <point x="44" y="137"/>
      <point x="83" y="-10"/>
    </contour>
    <contour>
      <point x="203" y="19" type="curve" smooth="yes"/>
      <point x="127" y="19"/>
      <point x="76" y="87"/>
      <point x="76" y="360" type="curve" smooth="yes"/>
      <point x="76" y="633"/>
      <point x="127" y="701"/>
      <point x="203" y="701" type="curve" smooth="yes"/>
      <point x="280" y="701"/>
      <point x="330" y="631"/>
      <point x="330" y="360" type="curve" smooth="yes"/>
      <point x="330" y="89"/>
      <point x="280" y="19"/>
    </contour>
  </outline>
</glyph>
<glyph name="one" format="2">
  <advance width="192"/>
  <unicode hex="0031"/>
  <outline>
    <contour>
      <point x="95" y="0" type="line"/>
      <point x="126" y="0" type="line"/>
      <point x="126" y="721" type="line"/>
      <point x="97" y="721" type="line"/>
      <point x="95" y="665"/>
      <point x="76" y="627"/>
      <point x="21" y="627" type="curve" smooth="yes"/>
      <point x="3" y="627" type="line"/>
      <point x="3" y="597" type="line"/>
      <point x="95" y="597" type="line"/>
    </contour>
  </outline>
</glyph>
<glyph name="two" format="2">
  <advance width="336"/>
  <unicode hex="0032"/>
  <outline>
    <contour>
      <point x="33" y="0" type="line"/>
      <point x="318" y="0" type="line"/>
      <point x="318" y="29" type="line"/>
      <point x="67" y="29" type="line"/>
      <point x="67" y="181"/>
      <point x="303" y="347"/>
      <point x="303" y="561" type="curve" smooth="yes"/>
      <point x="303" y="654"/>
      <point x="260" y="730"/>
      <point x="169" y="730" type="curve" smooth="yes"/>
      <point x="78" y="730"/>
      <point x="27" y="654"/>
      <point x="31" y="514" type="curve"/>
      <point x="63" y="514" type="line"/>
      <point x="60" y="629"/>
      <point x="90" y="701"/>
      <point x="169" y="701" type="curve" smooth="yes"/>
      <point x="230" y="701"/>
      <point x="271" y="656"/>
      <point x="271" y="558" type="curve" smooth="yes"/>
      <point x="271" y="349"/>
      <point x="33" y="206"/>
      <point x="33" y="14" type="curve" smooth="yes"/>
    </contour>
  </outline>
</glyph>
<glyph name="three" format="2">
  <advance width="362"/>
  <unicode hex="0033"/>
  <outline>
    <contour>
      <point x="179" y="-8" type="curve" smooth="yes"/>
      <point x="271" y="-8"/>
      <point x="323" y="65"/>
      <point x="323" y="195" type="curve" smooth="yes"/>
      <point x="323" y="287"/>
      <point x="292" y="353"/>
      <point x="228" y="373" type="curve"/>
      <point x="228" y="377" type="line"/>
      <point x="283" y="399"/>
      <point x="314" y="467"/>
      <point x="314" y="547" type="curve" smooth="yes"/>
      <point x="314" y="660"/>
      <point x="256" y="729"/>
      <point x="169" y="729" type="curve" smooth="yes"/>
      <point x="84" y="729"/>
      <point x="28" y="661"/>
      <point x="32" y="515" type="curve"/>
      <point x="63" y="515" type="line"/>
      <point x="60" y="627"/>
      <point x="90" y="701"/>
      <point x="169" y="701" type="curve" smooth="yes"/>
      <point x="238" y="701"/>
      <point x="282" y="643"/>
      <point x="282" y="545" type="curve" smooth="yes"/>
      <point x="282" y="460"/>
      <point x="249" y="390"/>
      <point x="177" y="390" type="curve" smooth="yes"/>
      <point x="142" y="390" type="line"/>
      <point x="142" y="359" type="line"/>
      <point x="177" y="359" type="line" smooth="yes"/>
      <point x="250" y="359"/>
      <point x="291" y="296"/>
      <point x="291" y="196" type="curve" smooth="yes"/>
      <point x="291" y="82"/>
      <point x="255" y="19"/>
      <point x="179" y="19" type="curve" smooth="yes"/>
      <point x="108" y="19"/>
      <point x="60" y="75"/>
      <point x="62" y="220" type="curve"/>
      <point x="30" y="220" type="line"/>
      <point x="29" y="83"/>
      <point x="71" y="-8"/>
    </contour>
  </outline>
</glyph>
<glyph name="four" format="2">
  <advance width="365"/>
  <unicode hex="0034"/>
  <outline>
    <contour>
      <point x="257" y="0" type="line"/>
      <point x="289" y="0" type="line"/>
      <point x="289" y="721" type="line"/>
      <point x="243" y="721" type="line"/>
      <point x="7" y="221" type="line"/>
      <point x="7" y="195" type="line"/>
      <point x="361" y="195" type="line"/>
      <point x="361" y="224" type="line"/>
      <point x="40" y="224" type="line"/>
      <point x="258" y="688" type="line"/>
      <point x="257" y="688" type="line"/>
    </contour>
  </outline>
</glyph>
<glyph name="five" format="2">
  <advance width="370"/>
  <unicode hex="0035"/>
  <outline>
    <contour>
      <point x="193" y="-8" type="curve" smooth="yes"/>
      <point x="286" y="-8"/>
      <point x="337" y="66"/>
      <point x="337" y="235" type="curve" smooth="yes"/>
      <point x="337" y="384"/>
      <point x="298" y="468"/>
      <point x="196" y="468" type="curve" smooth="yes"/>
      <point x="147" y="468"/>
      <point x="108" y="441"/>
      <point x="88" y="396" type="curve"/>
      <point x="85" y="396" type="line"/>
      <point x="95" y="692" type="line"/>
      <point x="336" y="692" type="line"/>
      <point x="336" y="721" type="line"/>
      <point x="66" y="721" type="line"/>
      <point x="54" y="317" type="line"/>
      <point x="86" y="317" type="line"/>
      <point x="97" y="396"/>
      <point x="131" y="440"/>
      <point x="195" y="440" type="curve" smooth="yes"/>
      <point x="262" y="440"/>
      <point x="305" y="391"/>
      <point x="305" y="235" type="curve" smooth="yes"/>
      <point x="305" y="82"/>
      <point x="269" y="19"/>
      <point x="193" y="19" type="curve" smooth="yes"/>
      <point x="122" y="19"/>
      <point x="74" y="75"/>
      <point x="76" y="220" type="curve"/>
      <point x="45" y="220" type="line"/>
      <point x="44" y="83"/>
      <point x="86" y="-8"/>
    </contour>
  </outline>
</glyph>
<glyph name="six" format="2">
  <advance width="390"/>
  <unicode hex="0036"/>
  <outline>
    <contour>
      <point x="204" y="-10" type="curve" smooth="yes"/>
      <point x="290" y="-10"/>
      <point x="347" y="49"/>
      <point x="347" y="231" type="curve" smooth="yes"/>
      <point x="347" y="370"/>
      <point x="312" y="463"/>
      <point x="205" y="463" type="curve" smooth="yes"/>
      <point x="143" y="463"/>
      <point x="95" y="421"/>
      <point x="78" y="326" type="curve"/>
      <point x="73" y="326" type="line"/>
      <point x="78" y="580"/>
      <point x="100" y="701"/>
      <point x="200" y="701" type="curve" smooth="yes"/>
      <point x="256" y="701"/>
      <point x="291" y="668"/>
      <point x="302" y="552" type="curve"/>
      <point x="332" y="552" type="line"/>
      <point x="321" y="670"/>
      <point x="283" y="730"/>
      <point x="199" y="730" type="curve" smooth="yes"/>
      <point x="107" y="730"/>
      <point x="46" y="654"/>
      <point x="46" y="355" type="curve" smooth="yes"/>
      <point x="46" y="145"/>
      <point x="68" y="-10"/>
    </contour>
    <contour>
      <point x="204" y="18" type="curve" smooth="yes"/>
      <point x="135" y="18"/>
      <point x="88" y="75"/>
      <point x="88" y="223" type="curve" smooth="yes"/>
      <point x="88" y="351"/>
      <point x="125" y="437"/>
      <point x="202" y="437" type="curve" smooth="yes"/>
      <point x="269" y="437"/>
      <point x="315" y="396"/>
      <point x="315" y="231" type="curve" smooth="yes"/>
      <point x="315" y="103"/>
      <point x="293" y="18"/>
    </contour>
  </outline>
</glyph>
<glyph name="seven" format="2">
  <advance width="334"/>
  <unicode hex="0037"/>
  <outline>
    <contour>
      <point x="125" y="0" type="curve"/>
      <point x="159" y="0" type="line"/>
      <point x="159" y="199"/>
      <point x="197" y="400"/>
      <point x="329" y="694" type="curve"/>
      <point x="329" y="721" type="line"/>
      <point x="17" y="721" type="line"/>
      <point x="17" y="523" type="line"/>
      <point x="46" y="523" type="line"/>
      <point x="46" y="691" type="line"/>
      <point x="292" y="691" type="line"/>
      <point x="194" y="462"/>
      <point x="125" y="250"/>
    </contour>
  </outline>
</glyph>
<glyph name="eight" format="2">
  <advance width="400"/>
  <unicode hex="0038"/>
  <outline>
    <contour>
      <point x="204" y="-8" type="curve" smooth="yes"/>
      <point x="299" y="-8"/>
      <point x="363" y="57"/>
      <point x="363" y="195" type="curve" smooth="yes"/>
      <point x="363" y="283"/>
      <point x="326" y="355"/>
      <point x="255" y="374" type="curve"/>
      <point x="255" y="378" type="line"/>
      <point x="321" y="399"/>
      <point x="353" y="468"/>
      <point x="353" y="547" type="curve" smooth="yes"/>
      <point x="353" y="656"/>
      <point x="299" y="729"/>
      <point x="204" y="729" type="curve" smooth="yes"/>
      <point x="115" y="729"/>
      <point x="54" y="663"/>
      <point x="54" y="547" type="curve" smooth="yes"/>
      <point x="54" y="467"/>
      <point x="86" y="399"/>
      <point x="152" y="378" type="curve"/>
      <point x="152" y="374" type="line"/>
      <point x="85" y="356"/>
      <point x="44" y="289"/>
      <point x="44" y="195" type="curve" smooth="yes"/>
      <point x="44" y="73"/>
      <point x="96" y="-8"/>
    </contour>
    <contour>
      <point x="204" y="19" type="curve" smooth="yes"/>
      <point x="128" y="19"/>
      <point x="76" y="68"/>
      <point x="76" y="196" type="curve" smooth="yes"/>
      <point x="76" y="296"/>
      <point x="117" y="361"/>
      <point x="204" y="361" type="curve" smooth="yes"/>
      <point x="280" y="361"/>
      <point x="331" y="308"/>
      <point x="331" y="196" type="curve" smooth="yes"/>
      <point x="331" y="91"/>
      <point x="295" y="19"/>
    </contour>
    <contour>
      <point x="204" y="389" type="curve" smooth="yes"/>
      <point x="133" y="389"/>
      <point x="85" y="445"/>
      <point x="85" y="546" type="curve" smooth="yes"/>
      <point x="85" y="639"/>
      <point x="123" y="701"/>
      <point x="204" y="701" type="curve" smooth="yes"/>
      <point x="274" y="701"/>
      <point x="322" y="652"/>
      <point x="322" y="546" type="curve" smooth="yes"/>
      <point x="322" y="451"/>
      <point x="279" y="389"/>
    </contour>
  </outline>
</glyph>
<glyph name="equal" format="2">
  <advance width="480"/>
  <unicode hex="003D"/>
  <anchor x="240" y="366" name="center"/>
  <outline>
    <contour>
      <point x="47" y="447" type="line"/>
      <point x="433" y="447" type="line"/>
      <point x="433" y="475" type="line"/>
      <point x="47" y="475" type="line"/>
    </contour>
    <contour>
      <point x="47" y="247" type="line"/>
      <point x="433" y="247" type="line"/>
      <point x="433" y="275" type="line"/>
      <point x="47" y="275" type="line"/>
    </contour>
  </outline>
</glyph>
<glyph name="greater" format="2">
  <advance width="480"/>
  <unicode hex="003E"/>
  <outline>
    <contour>
      <point x="27" y="145" type="line"/>
      <point x="458" y="339" type="line"/>
      <point x="458" y="383" type="line"/>
      <point x="27" y="577" type="line"/>
      <point x="27" y="545" type="line"/>
      <point x="427" y="363" type="line"/>
      <point x="427" y="359" type="line"/>
      <point x="27" y="177" type="line"/>
    </contour>
  </outline>
</glyph>
<glyph name="question" format="2">
  <advance width="324"/>
  <unicode hex="003F"/>
  <outline>
    <contour>
      <point x="162" y="160" type="line"/>
      <point x="193" y="160" type="line"/>
      <point x="193" y="189" type="line" smooth="yes"/>
      <point x="193" y="342"/>
      <point x="298" y="424"/>
      <point x="298" y="576" type="curve" smooth="yes"/>
      <point x="298" y="673"/>
      <point x="259" y="739"/>
      <point x="171" y="739" type="curve" smooth="yes"/>
      <point x="91" y="739"/>
      <point x="36" y="680"/>
      <point x="40" y="535" type="curve"/>
      <point x="70" y="535" type="line"/>
      <point x="68" y="642"/>
      <point x="94" y="711"/>
      <point x="171" y="711" type="curve" smooth="yes"/>
      <point x="228" y="711"/>
      <point x="266" y="673"/>
      <point x="266" y="574" type="curve" smooth="yes"/>
      <point x="266" y="426"/>
      <point x="162" y="349"/>
      <point x="162" y="188" type="curve" smooth="yes"/>
    </contour>
    <contour>
      <point x="177" y="-6" type="curve" smooth="yes"/>
      <point x="191" y="-6"/>
      <point x="202" y="4"/>
      <point x="202" y="18" type="curve" smooth="yes"/>
      <point x="202" y="32"/>
      <point x="191" y="42"/>
      <point x="177" y="42" type="curve" smooth="yes"/>
      <point x="163" y="42"/>
      <point x="152" y="32"/>
      <point x="152" y="18" type="curve" smooth="yes"/>
      <point x="152" y="4"/>
      <point x="163" y="-6"/>
    </contour>
  </outline>
</glyph>
<glyph name="at" format="2">
  <advance width="628"/>
  <unicode hex="0040"/>
  <outline>
    <contour>
      <point x="322" y="-101" type="curve" smooth="yes"/>
      <point x="378" y="-101"/>
      <point x="446" y="-80"/>
      <point x="488" y="-32" type="curve"/>
      <point x="477" y="-8" type="line"/>
      <point x="441" y="-51"/>
      <point x="385" y="-76"/>
      <point x="321" y="-76" type="curve" smooth="yes"/>
      <point x="160" y="-76"/>
      <point x="69" y="98"/>
      <point x="69" y="314" type="curve" smooth="yes"/>
      <point x="69" y="552"/>
      <point x="169" y="713"/>
      <point x="325" y="713" type="curve" smooth="yes"/>
      <point x="468" y="713"/>
      <point x="564" y="569"/>
      <point x="564" y="365" type="curve" smooth="yes"/>
      <point x="564" y="229"/>
      <point x="525" y="129"/>
      <point x="468" y="129" type="curve" smooth="yes"/>
      <point x="432" y="129"/>
      <point x="416" y="167"/>
      <point x="419" y="245" type="curve" smooth="yes"/>
      <point x="430" y="504" type="line"/>
      <point x="408" y="504" type="line"/>
      <point x="402" y="408" type="line"/>
      <point x="399" y="408" type="line"/>
      <point x="388" y="478"/>
      <point x="356" y="516"/>
      <point x="316" y="516" type="curve" smooth="yes"/>
      <point x="250" y="516"/>
      <point x="206" y="423"/>
      <point x="206" y="293" type="curve" smooth="yes"/>
      <point x="206" y="163"/>
      <point x="253" y="106"/>
      <point x="305" y="106" type="curve" smooth="yes"/>
      <point x="341" y="106"/>
      <point x="380" y="140"/>
      <point x="397" y="225" type="curve"/>
      <point x="399" y="225" type="line"/>
      <point x="399" y="150"/>
      <point x="423" y="105"/>
      <point x="469" y="105" type="curve" smooth="yes"/>
      <point x="543" y="105"/>
      <point x="591" y="217"/>
      <point x="591" y="367" type="curve" smooth="yes"/>
      <point x="591" y="589"/>
      <point x="481" y="738"/>
      <point x="326" y="738" type="curve" smooth="yes"/>
      <point x="155" y="738"/>
      <point x="41" y="566"/>
      <point x="41" y="312" type="curve" smooth="yes"/>
      <point x="41" y="64"/>
      <point x="155" y="-101"/>
    </contour>
    <contour>
      <point x="308" y="132" type="curve" smooth="yes"/>
      <point x="262" y="132"/>
      <point x="232" y="186"/>
      <point x="232" y="296" type="curve" smooth="yes"/>
      <point x="232" y="411"/>
      <point x="264" y="493"/>
      <point x="320" y="493" type="curve" smooth="yes"/>
      <point x="366" y="493"/>
      <point x="396" y="433"/>
      <point x="398" y="323" type="curve"/>
      <point x="395" y="211"/>
      <point x="361" y="132"/>
    </contour>
  </outline>
</glyph>
<glyph name="A" format="2">
  <advance width="386"/>
  <unicode hex="0041"/>
  <anchor x="193" y="0" name="bottom"/>
  <anchor x="376" y="0" name="ogonek"/>
  <anchor x="193" y="729" name="top"/>
  <outline>
    <contour>
      <point x="10" y="0" type="line"/>
      <point x="42" y="0" type="line"/>
      <point x="156" y="518" type="line"/>
      <point x="191" y="698" type="line"/>
      <point x="197" y="698" type="line"/>
      <point x="232" y="518" type="line"/>
      <point x="344" y="0" type="line"/>
      <point x="376" y="0" type="line"/>
      <point x="218" y="729" type="line"/>
      <point x="170" y="729" type="line"/>
    </contour>
    <contour>
      <point x="79" y="203" type="line"/>
      <point x="308" y="203" type="line"/>
      <point x="300" y="232" type="line"/>
      <point x="87" y="232" type="line"/>
    </contour>
  </outline>
</glyph>
<glyph name="B" format="2">
  <advance width="373"/>
  <unicode hex="0042"/>
  <anchor x="180" y="0" name="bottom"/>
  <anchor x="180" y="729" name="top"/>
  <outline>
    <contour>
      <point x="66" y="0" type="line"/>
      <point x="172" y="0" type="line" smooth="yes"/>
      <point x="291" y="0"/>
      <point x="336" y="81"/>
      <point x="336" y="200" type="curve" smooth="yes"/>
      <point x="336" y="279"/>
      <point x="303" y="355"/>
      <point x="232" y="373" type="curve"/>
      <point x="232" y="378" type="line"/>
      <point x="284" y="392"/>
      <point x="323" y="456"/>
      <point x="323" y="543" type="curve" smooth="yes"/>
      <point x="323" y="670"/>
      <point x="271" y="729"/>
      <point x="173" y="729" type="curve" smooth="yes"/>
      <point x="66" y="729" type="line"/>
    </contour>
    <contour>
      <point x="97" y="29" type="line"/>
      <point x="97" y="700" type="line"/>
      <point x="172" y="700" type="line" smooth="yes"/>
      <point x="260" y="700"/>
      <point x="292" y="635"/>
      <point x="292" y="539" type="curve" smooth="yes"/>
      <point x="292" y="449"/>
      <point x="252" y="389"/>
      <point x="182" y="389" type="curve" smooth="yes"/>
      <point x="90" y="389" type="line"/>
      <point x="90" y="359" type="line"/>
      <point x="183" y="359" type="line" smooth="yes"/>
      <point x="258" y="359"/>
      <point x="302" y="299"/>
      <point x="302" y="201" type="curve" smooth="yes"/>
      <point x="302" y="77"/>
      <point x="258" y="29"/>
      <point x="172" y="29" type="curve" smooth="yes"/>
    </contour>
  </outline>
</glyph>
<glyph name="C" format="2">
  <advance width="403"/>
  <unicode hex="0043"/>
  <anchor x="208" y="0" name="bottom"/>
  <anchor x="208" y="729" name="top"/>
  <outline>
    <contour>
      <point x="210" y="-10" type="curve" smooth="yes"/>
      <point x="299" y="-10"/>
      <point x="361" y="39"/>
      <point x="372" y="234" type="curve"/>
      <point x="340" y="234" type="line"/>
      <point x="330" y="88"/>
      <point x="297" y="19"/>
      <point x="209" y="19" type="curve" smooth="yes"/>
      <point x="105" y="19"/>
      <point x="78" y="159"/>
      <point x="78" y="364" type="curve" smooth="yes"/>
      <point x="78" y="570"/>
      <point x="105" y="709"/>
      <point x="210" y="709" type="curve" smooth="yes"/>
      <point x="293" y="709"/>
      <point x="329" y="650"/>
      <point x="340" y="495" type="curve"/>
      <point x="372" y="495" type="line"/>
      <point x="364" y="642"/>
      <point x="331" y="739"/>
      <point x="210" y="738" type="curve" smooth="yes"/>
      <point x="113" y="737"/>
      <point x="45" y="666"/>
      <point x="45" y="364" type="curve" smooth="yes"/>
      <point x="45" y="65"/>
      <point x="113" y="-10"/>
    </contour>
  </outline>
</glyph>
<glyph name="D" format="2">
  <advance width="418"/>
  <unicode hex="0044"/>
  <anchor x="210" y="0" name="bottom"/>
  <anchor x="82" y="365" name="center"/>
  <anchor x="210" y="729" name="top"/>
  <outline>
    <contour>
      <point x="66" y="0" type="line"/>
      <point x="173" y="0" type="line" smooth="yes"/>
      <point x="328" y="0"/>
      <point x="380" y="150"/>
      <point x="380" y="365" type="curve" smooth="yes"/>
      <point x="380" y="581"/>
      <point x="324" y="729"/>
      <point x="173" y="729" type="curve" smooth="yes"/>
      <point x="66" y="729" type="line"/>
    </contour>
    <contour>
      <point x="97" y="28" type="line"/>
      <point x="97" y="701" type="line"/>
      <point x="174" y="701" type="line" smooth="yes"/>
      <point x="277" y="701"/>
      <point x="347" y="620"/>
      <point x="347" y="365" type="curve" smooth="yes"/>
      <point x="347" y="109"/>
      <point x="277" y="28"/>
      <point x="174" y="28" type="curve" smooth="yes"/>
    </contour>
  </outline>
</glyph>
<glyph name="E" format="2">
  <advance width="312"/>
  <unicode hex="0045"/>
  <anchor x="184" y="0" name="bottom"/>
  <anchor x="302" y="0" name="ogonek"/>
  <anchor x="184" y="729" name="top"/>
  <anchor x="21" y="729" name="topleft"/>
  <outline>
    <contour>
      <point x="66" y="0" type="line"/>
      <point x="302" y="0" type="line"/>
      <point x="302" y="28" type="line"/>
      <point x="92" y="28" type="line"/>
      <point x="97" y="23" type="line"/>
      <point x="97" y="706" type="line"/>
      <point x="92" y="701" type="line"/>
      <point x="302" y="701" type="line"/>
      <point x="302" y="729" type="line"/>
      <point x="66" y="729" type="line"/>
    </contour>
    <contour>
      <point x="92" y="361" type="line"/>
      <point x="271" y="361" type="line"/>
      <point x="271" y="389" type="line"/>
      <point x="92" y="389" type="line"/>
    </contour>
  </outline>
</glyph>
<glyph name="F" format="2">
  <advance width="293"/>
  <unicode hex="0046"/>
  <anchor x="156" y="0" name="bottom"/>
  <anchor x="156" y="729" name="top"/>
  <outline>
    <contour>
      <point x="66" y="0" type="line"/>
      <point x="97" y="0" type="line"/>
      <point x="97" y="715" type="line"/>
      <point x="82" y="700" type="line"/>
      <point x="289" y="700" type="line"/>
      <point x="289" y="729" type="line"/>
      <point x="66" y="729" type="line"/>
    </contour>
    <contour>
      <point x="80" y="353" type="line"/>
      <point x="264" y="353" type="line"/>
      <point x="264" y="382" type="line"/>
      <point x="80" y="382" type="line"/>
    </contour>
  </outline>
</glyph>
<glyph name="G" format="2">
  <advance width="421"/>
  <unicode hex="0047"/>
  <anchor x="217" y="0" name="bottom"/>
  <anchor x="210" y="729" name="top"/>
  <outline>
    <contour>
      <point x="205" y="-10" type="curve" smooth="yes"/>
      <point x="267" y="-10"/>
      <point x="317" y="35"/>
      <point x="333" y="136" type="curve"/>
      <point x="337" y="136" type="line"/>
      <point x="340" y="0" type="line"/>
      <point x="366" y="0" type="line"/>
      <point x="366" y="374" type="line"/>
      <point x="192" y="374" type="line"/>
      <point x="192" y="344" type="line"/>
      <point x="353" y="344" type="line"/>
      <point x="333" y="364" type="line"/>
      <point x="333" y="299" type="line" smooth="yes"/>
      <point x="333" y="116"/>
      <point x="291" y="19"/>
      <point x="205" y="19" type="curve" smooth="yes"/>
      <point x="107" y="19"/>
      <point x="78" y="149"/>
      <point x="78" y="364" type="curve" smooth="yes"/>
      <point x="78" y="570"/>
      <point x="105" y="709"/>
      <point x="210" y="709" type="curve" smooth="yes"/>
      <point x="282" y="709"/>
      <point x="328" y="666"/>
      <point x="339" y="495" type="curve"/>
      <point x="372" y="495" type="line"/>
      <point x="364" y="630"/>
      <point x="334" y="739"/>
      <point x="212" y="739" type="curve" smooth="yes"/>
      <point x="114" y="739"/>
      <point x="45" y="666"/>
      <point x="45" y="364" type="curve" smooth="yes"/>
      <point x="45" y="64"/>
      <point x="112" y="-10"/>
    </contour>
  </outline>
</glyph>
<glyph name="H" format="2">
  <advance width="426"/>
  <unicode hex="0048"/>
  <anchor x="213" y="0" name="bottom"/>
  <anchor x="213" y="592" name="center"/>
  <anchor x="213" y="729" name="top"/>
  <anchor x="21" y="729" name="topleft"/>
  <outline>
    <contour>
      <point x="66" y="0" type="line"/>
      <point x="97" y="0" type="line"/>
      <point x="97" y="729" type="line"/>
      <point x="66" y="729" type="line"/>
    </contour>
    <contour>
      <point x="329" y="0" type="line"/>
      <point x="360" y="0" type="line"/>
      <point x="360" y="729" type="line"/>
      <point x="329" y="729" type="line"/>
    </contour>
    <contour>
      <point x="80" y="365" type="line"/>
      <point x="348" y="365" type="line"/>
      <point x="348" y="395" type="line"/>
      <point x="80" y="395" type="line"/>
    </contour>
  </outline>
</glyph>
<glyph name="J" format="2">
  <advance width="178"/>
  <unicode hex="004A"/>
  <anchor x="69" y="0" name="bottom"/>
  <anchor x="99" y="729" name="top"/>
  <outline>
    <contour>
      <point x="0" y="0" type="line"/>
      <point x="36" y="0" type="line" smooth="yes"/>
      <point x="82" y="0"/>
      <point x="114" y="23"/>
      <point x="114" y="94" type="curve" smooth="yes"/>
      <point x="114" y="729" type="line"/>
      <point x="83" y="729" type="line"/>
      <point x="83" y="103" type="line" smooth="yes"/>
      <point x="83" y="51"/>
      <point x="73" y="27"/>
      <point x="34" y="27" type="curve" smooth="yes"/>
      <point x="0" y="27" type="line"/>
    </contour>
  </outline>
</glyph>
<glyph name="K" format="2">
  <advance width="370"/>
  <unicode hex="004B"/>
  <anchor x="187" y="0" name="bottom"/>
  <anchor x="187" y="729" name="top"/>
  <outline>
    <contour>
      <point x="328" y="0" type="line"/>
      <point x="361" y="0" type="line"/>
      <point x="190" y="426" type="line"/>
      <point x="355" y="729" type="line"/>
      <point x="321" y="729" type="line"/>
      <point x="90" y="298" type="line"/>
      <point x="90" y="247" type="line"/>
      <point x="171" y="395" type="line"/>
    </contour>
    <contour>
      <point x="66" y="0" type="line"/>
      <point x="97" y="0" type="line"/>
      <point x="97" y="729" type="line"/>
      <point x="66" y="729" type="line"/>
    </contour>
  </outline>
</glyph>
<glyph name="L" format="2">
  <advance width="260"/>
  <unicode hex="004C"/>
  <anchor x="142" y="0" name="bottom"/>
  <anchor x="192" y="365" name="center"/>
  <anchor x="82" y="729" name="top"/>
  <anchor x="119" y="729" name="topright"/>
  <outline>
    <contour>
      <point x="66" y="0" type="line"/>
      <point x="260" y="0" type="line"/>
      <point x="260" y="29" type="line"/>
      <point x="83" y="29" type="line"/>
      <point x="97" y="17" type="line"/>
      <point x="97" y="729" type="line"/>
      <point x="66" y="729" type="line"/>
    </contour>
  </outline>
</glyph>
<glyph name="M" format="2">
  <advance width="515"/>
  <unicode hex="004D"/>
  <anchor x="258" y="0" name="bottom"/>
  <anchor x="258" y="729" name="top"/>
  <outline>
    <contour>
      <point x="66" y="0" type="line"/>
      <point x="97" y="0" type="line"/>
      <point x="97" y="407" type="line"/>
      <point x="95" y="698" type="line"/>
      <point x="101" y="698" type="line"/>
      <point x="156" y="415" type="line"/>
      <point x="236" y="0" type="line"/>
      <point x="280" y="0" type="line"/>
      <point x="359" y="417" type="line"/>
      <point x="413" y="699" type="line"/>
      <point x="419" y="699" type="line"/>
      <point x="418" y="407" type="line"/>
      <point x="418" y="0" type="line"/>
      <point x="449" y="0" type="line"/>
      <point x="449" y="729" type="line"/>
      <point x="390" y="729" type="line"/>
      <point x="302" y="279" type="line"/>
      <point x="261" y="44" type="line"/>
      <point x="255" y="44" type="line"/>
      <point x="213" y="279" type="line"/>
      <point x="124" y="729" type="line"/>
      <point x="66" y="729" type="line"/>
    </contour>
  </outline>
</glyph>
<glyph name="N" format="2">
  <advance width="446"/>
  <unicode hex="004E"/>
  <anchor x="223" y="0" name="bottom"/>
  <anchor x="223" y="729" name="top"/>
  <outline>
    <contour>
      <point x="66" y="0" type="line"/>
      <point x="97" y="0" type="line"/>
      <point x="97" y="410" type="line"/>
      <point x="94" y="685" type="line"/>
      <point x="100" y="685" type="line"/>
      <point x="330" y="0" type="line"/>
      <point x="380" y="0" type="line"/>
      <point x="380" y="729" type="line"/>
      <point x="349" y="729" type="line"/>
      <point x="349" y="328" type="line"/>
      <point x="352" y="39" type="line"/>
      <point x="347" y="39" type="line"/>
      <point x="116" y="729" type="line"/>
      <point x="66" y="729" type="line"/>
    </contour>
  </outline>
</glyph>
<glyph name="O" format="2">
  <advance width="421"/>
  <unicode hex="004F"/>
  <anchor x="211" y="0" name="bottom"/>
  <anchor x="211" y="365" name="center"/>
  <anchor x="373" y="10" name="ogonek"/>
  <anchor x="211" y="729" name="top"/>
  <anchor x="27" y="729" name="topleft"/>
  <anchor x="302" y="699" name="topright"/>
  <outline>
    <contour>
      <point x="210" y="-10" type="curve" smooth="yes"/>
      <point x="307" y="-10"/>
      <point x="376" y="61"/>
      <point x="376" y="364" type="curve" smooth="yes"/>
      <point x="376" y="666"/>
      <point x="307" y="738"/>
      <point x="210" y="738" type="curve" smooth="yes"/>
      <point x="114" y="738"/>
      <point x="45" y="667"/>
      <point x="45" y="364" type="curve" smooth="yes"/>
      <point x="45" y="61"/>
      <point x="114" y="-10"/>
    </contour>
    <contour>
      <point x="210" y="19" type="curve" smooth="yes"/>
      <point x="105" y="19"/>
      <point x="78" y="158"/>
      <point x="78" y="364" type="curve" smooth="yes"/>
      <point x="78" y="570"/>
      <point x="105" y="709"/>
      <point x="210" y="709" type="curve" smooth="yes"/>
      <point x="316" y="709"/>
      <point x="343" y="569"/>
      <point x="343" y="364" type="curve" smooth="yes"/>
      <point x="343" y="159"/>
      <point x="316" y="19"/>
    </contour>
  </outline>
</glyph>
<glyph name="P" format="2">
  <advance width="370"/>
  <unicode hex="0050"/>
  <anchor x="193" y="0" name="bottom"/>
  <anchor x="193" y="729" name="top"/>
  <outline>
    <contour>
      <point x="66" y="0" type="line"/>
      <point x="97" y="0" type="line"/>
      <point x="97" y="711" type="line"/>
      <point x="84" y="701" type="line"/>
      <point x="181" y="701" type="line" smooth="yes"/>
      <point x="264" y="701"/>
      <point x="317" y="651"/>
      <point x="317" y="522" type="curve" smooth="yes"/>
      <point x="317" y="391"/>
      <point x="263" y="343"/>
      <point x="181" y="343" type="curve" smooth="yes"/>
      <point x="90" y="343" type="line"/>
      <point x="90" y="315" type="line"/>
      <point x="183" y="315" type="line" smooth="yes"/>
      <point x="301" y="315"/>
      <point x="350" y="398"/>
      <point x="350" y="522" type="curve" smooth="yes"/>
      <point x="350" y="646"/>
      <point x="300" y="729"/>
      <point x="183" y="729" type="curve" smooth="yes"/>
      <point x="66" y="729" type="line"/>
    </contour>
  </outline>
</glyph>
<glyph name="R" format="2">
  <advance width="406"/>
  <unicode hex="0052"/>
  <anchor x="195" y="0" name="bottom"/>
  <anchor x="195" y="729" name="top"/>
  <outline>
    <contour>
      <point x="66" y="0" type="line"/>
      <point x="97" y="0" type="line"/>
      <point x="97" y="701" type="line"/>
      <point x="196" y="701" type="line" smooth="yes"/>
      <point x="299" y="701"/>
      <point x="328" y="634"/>
      <point x="328" y="537" type="curve" smooth="yes"/>
      <point x="328" y="441"/>
      <point x="292" y="370"/>
      <point x="203" y="370" type="curve" smooth="yes"/>
      <point x="90" y="370" type="line"/>
      <point x="90" y="341" type="line"/>
      <point x="233" y="341" type="line" smooth="yes"/>
      <point x="283" y="341"/>
      <point x="318" y="316"/>
      <point x="318" y="212" type="curve" smooth="yes"/>
      <point x="318" y="78" type="line" smooth="yes"/>
      <point x="318" y="48"/>
      <point x="318" y="24"/>
      <point x="326" y="0" type="curve"/>
      <point x="356" y="0" type="line"/>
      <point x="349" y="26"/>
      <point x="349" y="50"/>
      <point x="349" y="73" type="curve" smooth="yes"/>
      <point x="349" y="208" type="line" smooth="yes"/>
      <point x="349" y="307"/>
      <point x="321" y="346"/>
      <point x="270" y="358" type="curve"/>
      <point x="270" y="362" type="line"/>
      <point x="332" y="386"/>
      <point x="361" y="452"/>
      <point x="361" y="535" type="curve" smooth="yes"/>
      <point x="361" y="668"/>
      <point x="306" y="729"/>
      <point x="199" y="729" type="curve" smooth="yes"/>
      <point x="66" y="729" type="line"/>
    </contour>
  </outline>
</glyph>
<glyph name="S" format="2">
  <advance width="376"/>
  <unicode hex="0053"/>
  <anchor x="195" y="0" name="bottom"/>
  <anchor x="184" y="729" name="top"/>
  <outline>
    <contour>
      <point x="195" y="-8" type="curve" smooth="yes"/>
      <point x="284" y="-8"/>
      <point x="344" y="50"/>
      <point x="344" y="170" type="curve" smooth="yes"/>
      <point x="344" y="301"/>
      <point x="279" y="340"/>
      <point x="207" y="379" type="curve" smooth="yes"/>
      <point x="142" y="414"/>
      <point x="77" y="450"/>
      <point x="77" y="566" type="curve" smooth="yes"/>
      <point x="77" y="650"/>
      <point x="106" y="706"/>
      <point x="182" y="706" type="curve" smooth="yes"/>
      <point x="252" y="706"/>
      <point x="301" y="672"/>
      <point x="302" y="530" type="curve"/>
      <point x="335" y="530" type="line"/>
      <point x="334" y="653"/>
      <point x="299" y="737"/>
      <point x="185" y="737" type="curve" smooth="yes"/>
      <point x="101" y="737"/>
      <point x="45" y="682"/>
      <point x="45" y="567" type="curve" smooth="yes"/>
      <point x="45" y="428"/>
      <point x="116" y="390"/>
      <point x="184" y="354" type="curve" smooth="yes"/>
      <point x="255" y="316"/>
      <point x="311" y="280"/>
      <point x="311" y="172" type="curve" smooth="yes"/>
      <point x="311" y="83"/>
      <point x="278" y="22"/>
      <point x="193" y="22" type="curve" smooth="yes"/>
      <point x="115" y="22"/>
      <point x="63" y="72"/>
      <point x="63" y="225" type="curve"/>
      <point x="29" y="225" type="line"/>
      <point x="32" y="85"/>
      <point x="73" y="-8"/>
    </contour>
  </outline>
</glyph>
<glyph name="T" format="2">
  <advance width="315"/>
  <unicode hex="0054"/>
  <anchor x="158" y="0" name="bottom"/>
  <anchor x="158" y="365" name="center"/>
  <anchor x="158" y="729" name="top"/>
  <outline>
    <contour>
      <point x="142" y="0" type="line"/>
      <point x="173" y="0" type="line"/>
      <point x="173" y="708" type="line"/>
      <point x="142" y="708" type="line"/>
    </contour>
    <contour>
      <point x="0" y="700" type="line"/>
      <point x="315" y="700" type="line"/>
      <point x="315" y="729" type="line"/>
      <point x="0" y="729" type="line"/>
    </contour>
  </outline>
</glyph>
<glyph name="U" format="2">
  <advance width="449"/>
  <unicode hex="0055"/>
  <anchor x="225" y="0" name="bottom"/>
  <anchor x="277" y="0" name="ogonek"/>
  <anchor x="225" y="729" name="top"/>
  <anchor x="376" y="729" name="topright"/>
  <outline>
    <contour>
      <point x="225" y="-10" type="curve" smooth="yes"/>
      <point x="337" y="-10"/>
      <point x="391" y="80"/>
      <point x="391" y="238" type="curve" smooth="yes"/>
      <point x="391" y="729" type="line"/>
      <point x="360" y="729" type="line"/>
      <point x="360" y="241" type="line" smooth="yes"/>
      <point x="360" y="75"/>
      <point x="306" y="20"/>
      <point x="224" y="20" type="curve" smooth="yes"/>
      <point x="144" y="20"/>
      <point x="89" y="75"/>
      <point x="89" y="241" type="curve" smooth="yes"/>
      <point x="89" y="729" type="line"/>
      <point x="58" y="729" type="line"/>
      <point x="58" y="238" type="line" smooth="yes"/>
      <point x="58" y="81"/>
      <point x="111" y="-10"/>
    </contour>
  </outline>
</glyph>
<glyph name="V" format="2">
  <advance width="394"/>
  <unicode hex="0056"/>
  <anchor x="198" y="0" name="bottom"/>
  <anchor x="198" y="729" name="top"/>
  <outline>
    <contour>
      <point x="172" y="0" type="line"/>
      <point x="220" y="0" type="line"/>
      <point x="384" y="729" type="line"/>
      <point x="351" y="729" type="line"/>
      <point x="230" y="189" type="line"/>
      <point x="199" y="30" type="line"/>
      <point x="193" y="30" type="line"/>
      <point x="162" y="191" type="line"/>
      <point x="43" y="729" type="line"/>
      <point x="10" y="729" type="line"/>
    </contour>
  </outline>
</glyph>
<glyph name="W" format="2">
  <advance width="594"/>
  <unicode hex="0057"/>
  <anchor x="297" y="0" name="bottom"/>
  <anchor x="297" y="729" name="top"/>
  <outline>
    <contour>
      <point x="133" y="0" type="line"/>
      <point x="181" y="0" type="line"/>
      <point x="269" y="511" type="line"/>
      <point x="294" y="691" type="line"/>
      <point x="300" y="691" type="line"/>
      <point x="325" y="511" type="line"/>
      <point x="413" y="0" type="line"/>
      <point x="462" y="0" type="line"/>
      <point x="578" y="729" type="line"/>
      <point x="546" y="729" type="line"/>
      <point x="464" y="211" type="line"/>
      <point x="441" y="33" type="line"/>
      <point x="435" y="33" type="line"/>
      <point x="410" y="211" type="line"/>
      <point x="321" y="729" type="line"/>
      <point x="273" y="729" type="line"/>
      <point x="184" y="211" type="line"/>
      <point x="159" y="33" type="line"/>
      <point x="154" y="33" type="line"/>
      <point x="131" y="211" type="line"/>
      <point x="48" y="729" type="line"/>
      <point x="16" y="729" type="line"/>
    </contour>
  </outline>
</glyph>
<glyph name="X" format="2">
  <advance width="383"/>
  <unicode hex="0058"/>
  <anchor x="192" y="0" name="bottom"/>
  <anchor x="192" y="729" name="top"/>
  <outline>
    <contour>
      <point x="8" y="0" type="line"/>
      <point x="44" y="0" type="line"/>
      <point x="137" y="218" type="line"/>
      <point x="189" y="350" type="line"/>
      <point x="193" y="350" type="line"/>
      <point x="245" y="218" type="line"/>
      <point x="338" y="0" type="line"/>
      <point x="374" y="0" type="line"/>
      <point x="213" y="377" type="line"/>
      <point x="365" y="729" type="line"/>
      <point x="330" y="729" type="line"/>
      <point x="236" y="508" type="line"/>
      <point x="194" y="400" type="line"/>
      <point x="189" y="400" type="line"/>
      <point x="147" y="508" type="line"/>
      <point x="53" y="729" type="line"/>
      <point x="18" y="729" type="line"/>
      <point x="170" y="376" type="line"/>
    </contour>
  </outline>
</glyph>
<glyph name="Y" format="2">
  <advance width="359"/>
  <unicode hex="0059"/>
  <anchor x="180" y="0" name="bottom"/>
  <anchor x="180" y="729" name="top"/>
  <anchor x="11" y="729" name="topleft"/>
  <outline>
    <contour>
      <point x="164" y="0" type="line"/>
      <point x="195" y="0" type="line"/>
      <point x="195" y="302" type="line"/>
      <point x="356" y="729" type="line"/>
      <point x="323" y="729" type="line"/>
      <point x="200" y="395" type="line"/>
      <point x="183" y="337" type="line"/>
      <point x="177" y="337" type="line"/>
      <point x="160" y="395" type="line"/>
      <point x="37" y="729" type="line"/>
      <point x="3" y="729" type="line"/>
      <point x="164" y="302" type="line"/>
    </contour>
  </outline>
</glyph>
<glyph name="Z" format="2">
  <advance width="329"/>
  <unicode hex="005A"/>
  <anchor x="165" y="0" name="bottom"/>
  <anchor x="165" y="365" name="center"/>
  <anchor x="165" y="729" name="top"/>
  <outline>
    <contour>
      <point x="10" y="0" type="line"/>
      <point x="320" y="0" type="line"/>
      <point x="320" y="30" type="line"/>
      <point x="45" y="30" type="line"/>
      <point x="312" y="707" type="line"/>
      <point x="312" y="729" type="line"/>
      <point x="21" y="729" type="line"/>
      <point x="21" y="700" type="line"/>
      <point x="277" y="700" type="line"/>
      <point x="10" y="23" type="line"/>
    </contour>
  </outline>
</glyph>
<glyph name="bracketleft" format="2">
  <advance width="217"/>
  <unicode hex="005B"/>
  <outline>
    <contour>
      <point x="72" y="-167" type="line"/>
      <point x="209" y="-167" type="line"/>
      <point x="209" y="-140" type="line"/>
      <point x="102" y="-140" type="line"/>
      <point x="102" y="766" type="line"/>
      <point x="209" y="766" type="line"/>
      <point x="209" y="793" type="line"/>
      <point x="72" y="793" type="line"/>
    </contour>
  </outline>
</glyph>
<glyph name="backslash" format="2">
  <advance width="200"/>
  <unicode hex="005C"/>
  <outline>
    <contour>
      <point x="188" y="-82" type="line"/>
      <point x="217" y="-82" type="line"/>
      <point x="12" y="729" type="line"/>
      <point x="-17" y="729" type="line"/>
    </contour>
  </outline>
</glyph>
<glyph name="asciicircum" format="2">
  <advance width="480"/>
  <unicode hex="005E"/>
  <outline>
    <contour>
      <point x="102" y="475" type="line"/>
      <point x="135" y="475" type="line"/>
      <point x="240" y="695" type="line"/>
      <point x="345" y="475" type="line"/>
      <point x="378" y="475" type="line"/>
      <point x="254" y="729" type="line"/>
      <point x="226" y="729" type="line"/>
    </contour>
  </outline>
</glyph>
<glyph name="underscore" format="2">
  <advance width="334"/>
  <unicode hex="005F"/>
  <outline>
    <contour>
      <point x="42" y="-25" type="line"/>
      <point x="292" y="-25" type="line"/>
      <point x="292" y="0" type="line"/>
      <point x="42" y="0" type="line"/>
    </contour>
  </outline>
</glyph>
<glyph name="a" format="2">
  <advance width="344"/>
  <unicode hex="0061"/>
  <anchor x="176" y="0" name="bottom"/>
  <anchor x="284" y="0" name="ogonek"/>
  <anchor x="176" y="516" name="top"/>
  <outline>
    <contour>
      <point x="159" y="-10" type="curve" smooth="yes"/>
      <point x="211" y="-10"/>
      <point x="237" y="25"/>
      <point x="253" y="77" type="curve"/>
      <point x="255" y="77" type="line"/>
      <point x="255" y="0" type="line"/>
      <point x="284" y="0" type="line"/>
      <point x="284" y="516" type="line"/>
      <point x="256" y="516" type="line"/>
      <point x="255" y="439" type="line"/>
      <point x="253" y="439" type="line"/>
      <point x="237" y="491"/>
      <point x="211" y="526"/>
      <point x="159" y="526" type="curve" smooth="yes"/>
      <point x="90" y="526"/>
      <point x="45" y="461"/>
      <point x="45" y="257" type="curve" smooth="yes"/>
      <point x="45" y="50"/>
      <point x="92" y="-10"/>
    </contour>
    <contour>
      <point x="167" y="16" type="curve" smooth="yes"/>
      <point x="93" y="16"/>
      <point x="75" y="104"/>
      <point x="75" y="257" type="curve" smooth="yes"/>
      <point x="75" y="415"/>
      <point x="94" y="500"/>
      <point x="167" y="500" type="curve" smooth="yes"/>
      <point x="220" y="500"/>
      <point x="255" y="436"/>
      <point x="255" y="309" type="curve" smooth="yes"/>
      <point x="255" y="206" type="line" smooth="yes"/>
      <point x="255" y="77"/>
      <point x="219" y="16"/>
    </contour>
  </outline>
</glyph>
<glyph name="b" format="2">
  <advance width="344"/>
  <unicode hex="0062"/>
  <anchor x="169" y="0" name="bottom"/>
  <anchor x="169" y="729" name="top"/>
  <outline>
    <contour>
      <point x="185" y="-10" type="curve" smooth="yes"/>
      <point x="253" y="-10"/>
      <point x="299" y="53"/>
      <point x="299" y="258" type="curve" smooth="yes"/>
      <point x="299" y="466"/>
      <point x="252" y="526"/>
      <point x="185" y="526" type="curve" smooth="yes"/>
      <point x="133" y="526"/>
      <point x="107" y="491"/>
      <point x="91" y="439" type="curve"/>
      <point x="89" y="439" type="line"/>
      <point x="89" y="729" type="line"/>
      <point x="60" y="729" type="line"/>
      <point x="60" y="0" type="line"/>
      <point x="88" y="0" type="line"/>
      <point x="89" y="77" type="line"/>
      <point x="91" y="77" type="line"/>
      <point x="108" y="19"/>
      <point x="138" y="-10"/>
    </contour>
    <contour>
      <point x="177" y="16" type="curve" smooth="yes"/>
      <point x="124" y="16"/>
      <point x="89" y="79"/>
      <point x="89" y="206" type="curve" smooth="yes"/>
      <point x="89" y="309" type="line" smooth="yes"/>
      <point x="89" y="439"/>
      <point x="125" y="500"/>
      <point x="177" y="500" type="curve" smooth="yes"/>
      <point x="250" y="500"/>
      <point x="269" y="414"/>
      <point x="269" y="258" type="curve" smooth="yes"/>
      <point x="269" y="101"/>
      <point x="250" y="16"/>
    </contour>
  </outline>
</glyph>
<glyph name="c" format="2">
  <advance width="313"/>
  <unicode hex="0063"/>
  <anchor x="168" y="0" name="bottom"/>
  <anchor x="159" y="516" name="top"/>
  <outline>
    <contour>
      <point x="168" y="-10" type="curve" smooth="yes"/>
      <point x="231" y="-10"/>
      <point x="275" y="31"/>
      <point x="283" y="157" type="curve"/>
      <point x="253" y="157" type="line"/>
      <point x="244" y="56"/>
      <point x="220" y="17"/>
      <point x="168" y="17" type="curve" smooth="yes"/>
      <point x="112" y="17"/>
      <point x="73" y="65"/>
      <point x="73" y="258" type="curve" smooth="yes"/>
      <point x="73" y="451"/>
      <point x="112" y="499"/>
      <point x="168" y="499" type="curve" smooth="yes"/>
      <point x="225" y="499"/>
      <point x="245" y="448"/>
      <point x="253" y="358" type="curve"/>
      <point x="283" y="358" type="line"/>
      <point x="275" y="486"/>
      <point x="229" y="526"/>
      <point x="168" y="526" type="curve" smooth="yes"/>
      <point x="67" y="526"/>
      <point x="44" y="416"/>
      <point x="44" y="258" type="curve" smooth="yes"/>
      <point x="44" y="99"/>
      <point x="67" y="-10"/>
    </contour>
  </outline>
</glyph>
<glyph name="d" format="2">
  <advance width="344"/>
  <unicode hex="0064"/>
  <anchor x="176" y="0" name="bottom"/>
  <anchor x="250" y="631" name="center"/>
  <anchor x="176" y="729" name="top"/>
  <anchor x="284" y="729" name="topright"/>
  <outline>
    <contour>
      <point x="159" y="-10" type="curve" smooth="yes"/>
      <point x="210" y="-10"/>
      <point x="237" y="24"/>
      <point x="253" y="77" type="curve"/>
      <point x="255" y="77" type="line"/>
      <point x="256" y="0" type="line"/>
      <point x="284" y="0" type="line"/>
      <point x="284" y="729" type="line"/>
      <point x="255" y="729" type="line"/>
      <point x="255" y="439" type="line"/>
      <point x="253" y="439" type="line"/>
      <point x="237" y="491"/>
      <point x="211" y="526"/>
      <point x="159" y="526" type="curve" smooth="yes"/>
      <point x="92" y="526"/>
      <point x="45" y="465"/>
      <point x="45" y="257" type="curve" smooth="yes"/>
      <point x="45" y="53"/>
      <point x="90" y="-10"/>
    </contour>
    <contour>
      <point x="167" y="16" type="curve" smooth="yes"/>
      <point x="94" y="16"/>
      <point x="75" y="101"/>
      <point x="75" y="257" type="curve" smooth="yes"/>
      <point x="75" y="412"/>
      <point x="93" y="500"/>
      <point x="167" y="500" type="curve" smooth="yes"/>
      <point x="219" y="500"/>
      <point x="255" y="439"/>
      <point x="255" y="309" type="curve" smooth="yes"/>
      <point x="255" y="206" type="line" smooth="yes"/>
      <point x="255" y="79"/>
      <point x="220" y="16"/>
    </contour>
  </outline>
</glyph>
<glyph name="e" format="2">
  <advance width="324"/>
  <unicode hex="0065"/>
  <anchor x="168" y="0" name="bottom"/>
  <anchor x="220" y="0" name="ogonek"/>
  <anchor x="165" y="516" name="top"/>
  <outline>
    <contour>
      <point x="168" y="-10" type="curve" smooth="yes"/>
      <point x="229" y="-10"/>
      <point x="275" y="27"/>
      <point x="285" y="148" type="curve"/>
      <point x="255" y="148" type="line"/>
      <point x="247" y="70"/>
      <point x="229" y="18"/>
      <point x="168" y="18" type="curve" smooth="yes"/>
      <point x="111" y="18"/>
      <point x="73" y="67"/>
      <point x="73" y="260" type="curve"/>
      <point x="283" y="260" type="line"/>
      <point x="282" y="419"/>
      <point x="259" y="526"/>
      <point x="168" y="526" type="curve" smooth="yes"/>
      <point x="67" y="526"/>
      <point x="44" y="416"/>
      <point x="44" y="258" type="curve" smooth="yes"/>
      <point x="44" y="99"/>
      <point x="67" y="-10"/>
    </contour>
    <contour>
      <point x="72" y="281" type="line"/>
      <point x="76" y="454"/>
      <point x="114" y="498"/>
      <point x="168" y="498" type="curve" smooth="yes"/>
      <point x="213" y="498"/>
      <point x="250" y="462"/>
      <point x="253" y="281" type="curve"/>
      <point x="262" y="289" type="line"/>
      <point x="64" y="289" type="line"/>
    </contour>
  </outline>
</glyph>
<glyph name="f" format="2">
  <advance width="157"/>
  <unicode hex="0066"/>
  <anchor x="91" y="0" name="bottom"/>
  <anchor x="91" y="729" name="top"/>
  <outline>
    <contour>
      <point x="63" y="0" type="line"/>
      <point x="92" y="0" type="line"/>
      <point x="92" y="489" type="line"/>
      <point x="144" y="489" type="line"/>
      <point x="144" y="516" type="line"/>
      <point x="92" y="516" type="line"/>
      <point x="92" y="648" type="line" smooth="yes"/>
      <point x="92" y="684"/>
      <point x="100" y="700"/>
      <point x="132" y="700" type="curve" smooth="yes"/>
      <point x="149" y="700" type="line"/>
      <point x="149" y="729" type="line"/>
      <point x="132" y="729" type="line" smooth="yes"/>
      <point x="91" y="729"/>
      <point x="63" y="712"/>
      <point x="63" y="654" type="curve" smooth="yes"/>
      <point x="63" y="516" type="line"/>
      <point x="23" y="516" type="line"/>
      <point x="23" y="489" type="line"/>
      <point x="63" y="489" type="line"/>
    </contour>
  </outline>
</glyph>
<glyph name="g" format="2">
  <advance width="341"/>
  <unicode hex="0067"/>
  <anchor x="173" y="-167" name="bottom"/>
  <anchor x="173" y="516" name="top"/>
  <outline>
    <contour>
      <point x="168" y="-177" type="curve" smooth="yes"/>
      <point x="233" y="-177"/>
      <point x="281" y="-137"/>
      <point x="281" y="10" type="curve" smooth="yes"/>
      <point x="281" y="516" type="line"/>
      <point x="253" y="516" type="line"/>
      <point x="252" y="439" type="line"/>
      <point x="250" y="439" type="line"/>
      <point x="234" y="491"/>
      <point x="208" y="526"/>
      <point x="156" y="526" type="curve" smooth="yes"/>
      <point x="87" y="526"/>
      <point x="42" y="461"/>
      <point x="42" y="267" type="curve" smooth="yes"/>
      <point x="42" y="69"/>
      <point x="89" y="9"/>
      <point x="156" y="9" type="curve" smooth="yes"/>
      <point x="210" y="9"/>
      <point x="235" y="46"/>
      <point x="250" y="96" type="curve"/>
      <point x="252" y="96" type="line"/>
      <point x="252" y="15" type="line" smooth="yes"/>
      <point x="252" y="-80"/>
      <point x="234" y="-150"/>
      <point x="167" y="-150" type="curve" smooth="yes"/>
      <point x="128" y="-150"/>
      <point x="94" y="-135"/>
      <point x="87" y="-52" type="curve"/>
      <point x="59" y="-52" type="line"/>
      <point x="66" y="-127"/>
      <point x="94" y="-177"/>
    </contour>
    <contour>
      <point x="164" y="35" type="curve" smooth="yes"/>
      <point x="90" y="35"/>
      <point x="72" y="123"/>
      <point x="72" y="267" type="curve" smooth="yes"/>
      <point x="72" y="414"/>
      <point x="91" y="499"/>
      <point x="164" y="499" type="curve" smooth="yes"/>
      <point x="217" y="499"/>
      <point x="252" y="436"/>
      <point x="252" y="319" type="curve" smooth="yes"/>
      <point x="252" y="216" type="line" smooth="yes"/>
      <point x="252" y="96"/>
      <point x="216" y="35"/>
    </contour>
  </outline>
</glyph>
<glyph name="h" format="2">
  <advance width="354"/>
  <unicode hex="0068"/>
  <anchor x="179" y="0" name="bottom"/>
  <anchor x="95" y="631" name="center"/>
  <anchor x="75" y="729" name="top"/>
  <outline>
    <contour>
      <point x="60" y="0" type="line"/>
      <point x="89" y="0" type="line"/>
      <point x="89" y="307" type="line" smooth="yes"/>
      <point x="89" y="421"/>
      <point x="116" y="500"/>
      <point x="189" y="500" type="curve" smooth="yes"/>
      <point x="240" y="500"/>
      <point x="268" y="474"/>
      <point x="268" y="371" type="curve" smooth="yes"/>
      <point x="268" y="0" type="line"/>
      <point x="297" y="0" type="line"/>
      <point x="297" y="378" type="line" smooth="yes"/>
      <point x="297" y="478"/>
      <point x="265" y="526"/>
      <point x="198" y="526" type="curve" smooth="yes"/>
      <point x="147" y="526"/>
      <point x="107" y="497"/>
      <point x="91" y="439" type="curve"/>
      <point x="89" y="439" type="line"/>
      <point x="89" y="729" type="line"/>
      <point x="60" y="729" type="line"/>
    </contour>
  </outline>
</glyph>
<glyph name="k" format="2">
  <advance width="280"/>
  <unicode hex="006B"/>
  <anchor x="141" y="0" name="bottom"/>
  <anchor x="141" y="729" name="top"/>
  <outline>
    <contour>
      <point x="60" y="0" type="line"/>
      <point x="89" y="0" type="line"/>
      <point x="89" y="170" type="line"/>
      <point x="147" y="286" type="line"/>
      <point x="163" y="231" type="line"/>
      <point x="237" y="0" type="line"/>
      <point x="268" y="0" type="line"/>
      <point x="161" y="315" type="line"/>
      <point x="264" y="516" type="line"/>
      <point x="232" y="516" type="line"/>
      <point x="127" y="303" type="line"/>
      <point x="89" y="223" type="line"/>
      <point x="89" y="729" type="line"/>
      <point x="60" y="729" type="line"/>
    </contour>
  </outline>
</glyph>
<glyph name="l" format="2">
  <advance width="149"/>
  <unicode hex="006C"/>
  <anchor x="75" y="0" name="bottom"/>
  <anchor x="75" y="365" name="center"/>
  <anchor x="75" y="729" name="top"/>
  <anchor x="89" y="729" name="topright"/>
  <outline>
    <contour>
      <point x="60" y="0" type="line"/>
      <point x="89" y="0" type="line"/>
      <point x="89" y="729" type="line"/>
      <point x="60" y="729" type="line"/>
    </contour>
  </outline>
</glyph>
<glyph name="m" format="2">
  <advance width="560"/>
  <unicode hex="006D"/>
  <anchor x="282" y="0" name="bottom"/>
  <anchor x="282" y="516" name="top"/>
  <outline>
    <contour>
      <point x="60" y="0" type="line"/>
      <point x="89" y="0" type="line"/>
      <point x="89" y="307" type="line" smooth="yes"/>
      <point x="89" y="421"/>
      <point x="116" y="500"/>
      <point x="189" y="500" type="curve" smooth="yes"/>
      <point x="240" y="500"/>
      <point x="267" y="474"/>
      <point x="267" y="371" type="curve" smooth="yes"/>
      <point x="267" y="0" type="line"/>
      <point x="296" y="0" type="line"/>
      <point x="296" y="307" type="line" smooth="yes"/>
      <point x="296" y="420"/>
      <point x="323" y="500"/>
      <point x="397" y="500" type="curve" smooth="yes"/>
      <point x="447" y="500"/>
      <point x="475" y="474"/>
      <point x="475" y="371" type="curve" smooth="yes"/>
      <point x="475" y="0" type="line"/>
      <point x="504" y="0" type="line"/>
      <point x="504" y="378" type="line" smooth="yes"/>
      <point x="504" y="477"/>
      <point x="471" y="526"/>
      <point x="402" y="526" type="curve" smooth="yes"/>
      <point x="350" y="526"/>
      <point x="309" y="487"/>
      <point x="295" y="432" type="curve"/>
      <point x="292" y="432" type="line"/>
      <point x="281" y="494"/>
      <point x="252" y="526"/>
      <point x="197" y="526" type="curve" smooth="yes"/>
      <point x="146" y="526"/>
      <point x="107" y="496"/>
      <point x="91" y="439" type="curve"/>
      <point x="89" y="439" type="line"/>
      <point x="88" y="516" type="line"/>
      <point x="60" y="516" type="line"/>
    </contour>
  </outline>
</glyph>
<glyph name="n" format="2">
  <advance width="354"/>
  <unicode hex="006E"/>
  <anchor x="179" y="0" name="bottom"/>
  <anchor x="179" y="516" name="top"/>
  <outline>
    <contour>
      <point x="60" y="0" type="line"/>
      <point x="89" y="0" type="line"/>
      <point x="89" y="307" type="line" smooth="yes"/>
      <point x="89" y="421"/>
      <point x="116" y="500"/>
      <point x="189" y="500" type="curve" smooth="yes"/>
      <point x="240" y="500"/>
      <point x="268" y="474"/>
      <point x="268" y="371" type="curve" smooth="yes"/>
      <point x="268" y="0" type="line"/>
      <point x="297" y="0" type="line"/>
      <point x="297" y="378" type="line" smooth="yes"/>
      <point x="297" y="478"/>
      <point x="265" y="526"/>
      <point x="198" y="526" type="curve" smooth="yes"/>
      <point x="146" y="526"/>
      <point x="107" y="496"/>
      <point x="91" y="439" type="curve"/>
      <point x="89" y="439" type="line"/>
      <point x="88" y="516" type="line"/>
      <point x="60" y="516" type="line"/>
    </contour>
  </outline>
</glyph>
<glyph name="o" format="2">
  <advance width="337"/>
  <unicode hex="006F"/>
  <anchor x="168" y="0" name="bottom"/>
  <anchor x="168" y="258" name="center"/>
  <anchor x="298" y="10" name="ogonek"/>
  <anchor x="168" y="516" name="top"/>
  <anchor x="221" y="507" name="topright"/>
  <outline>
    <contour>
      <point x="168" y="-10" type="curve" smooth="yes"/>
      <point x="270" y="-10"/>
      <point x="292" y="100"/>
      <point x="292" y="258" type="curve" smooth="yes"/>
      <point x="292" y="418"/>
      <point x="269" y="526"/>
      <point x="168" y="526" type="curve" smooth="yes"/>
      <point x="67" y="526"/>
      <point x="44" y="416"/>
      <point x="44" y="258" type="curve" smooth="yes"/>
      <point x="44" y="99"/>
      <point x="67" y="-10"/>
    </contour>
    <contour>
      <point x="168" y="17" type="curve" smooth="yes"/>
      <point x="112" y="17"/>
      <point x="73" y="64"/>
      <point x="73" y="258" type="curve" smooth="yes"/>
      <point x="73" y="451"/>
      <point x="112" y="499"/>
      <point x="168" y="499" type="curve" smooth="yes"/>
      <point x="225" y="499"/>
      <point x="263" y="450"/>
      <point x="263" y="258" type="curve" smooth="yes"/>
      <point x="263" y="66"/>
      <point x="225" y="17"/>
    </contour>
  </outline>
</glyph>
<glyph name="r" format="2">
  <advance width="208"/>
  <unicode hex="0072"/>
  <anchor x="75" y="0" name="bottom"/>
  <anchor x="118" y="516" name="top"/>
  <outline>
    <contour>
      <point x="60" y="0" type="line"/>
      <point x="89" y="0" type="line"/>
      <point x="89" y="320" type="line" smooth="yes"/>
      <point x="89" y="422"/>
      <point x="118" y="491"/>
      <point x="192" y="491" type="curve" smooth="yes"/>
      <point x="200" y="491"/>
      <point x="207" y="490"/>
      <point x="212" y="489" type="curve"/>
      <point x="212" y="523" type="line"/>
      <point x="206" y="525"/>
      <point x="199" y="526"/>
      <point x="192" y="526" type="curve" smooth="yes"/>
      <point x="148" y="526"/>
      <point x="110" y="500"/>
      <point x="91" y="430" type="curve"/>
      <point x="90" y="430" type="line"/>
      <point x="88" y="516" type="line"/>
      <point x="60" y="516" type="line"/>
    </contour>
  </outline>
</glyph>
<glyph name="s" format="2">
  <advance width="288"/>
  <unicode hex="0073"/>
  <anchor x="145" y="0" name="bottom"/>
  <anchor x="139" y="516" name="top"/>
  <outline>
    <contour>
      <point x="145" y="-10" type="curve" smooth="yes"/>
      <point x="209" y="-10"/>
      <point x="253" y="35"/>
      <point x="253" y="117" type="curve" smooth="yes"/>
      <point x="253" y="207"/>
      <point x="210" y="242"/>
      <point x="156" y="279" type="curve" smooth="yes"/>
      <point x="110" y="310"/>
      <point x="70" y="340"/>
      <point x="70" y="409" type="curve" smooth="yes"/>
      <point x="70" y="461"/>
      <point x="87" y="496"/>
      <point x="139" y="496" type="curve" smooth="yes"/>
      <point x="198" y="496"/>
      <point x="217" y="449"/>
      <point x="219" y="366" type="curve"/>
      <point x="247" y="366" type="line"/>
      <point x="248" y="488"/>
      <point x="203" y="525"/>
      <point x="140" y="525" type="curve" smooth="yes"/>
      <point x="83" y="525"/>
      <point x="41" y="493"/>
      <point x="41" y="410" type="curve" smooth="yes"/>
      <point x="41" y="329"/>
      <point x="80" y="293"/>
      <point x="132" y="257" type="curve" smooth="yes"/>
      <point x="181" y="223"/>
      <point x="224" y="192"/>
      <point x="224" y="118" type="curve" smooth="yes"/>
      <point x="224" y="59"/>
      <point x="199" y="19"/>
      <point x="145" y="19" type="curve" smooth="yes"/>
      <point x="77" y="19"/>
      <point x="55" y="77"/>
      <point x="55" y="160" type="curve"/>
      <point x="27" y="160" type="line"/>
      <point x="27" y="38"/>
      <point x="76" y="-10"/>
    </contour>
  </outline>
</glyph>
<glyph name="t" format="2">
  <advance width="163"/>
  <unicode hex="0074"/>
  <anchor x="106" y="0" name="bottom"/>
  <anchor x="83" y="258" name="center"/>
  <anchor x="77" y="516" name="top"/>
  <anchor x="91" y="785" name="topright"/>
  <outline>
    <contour>
      <point x="115" y="0" type="curve" smooth="yes"/>
      <point x="146" y="0" type="line"/>
      <point x="146" y="29" type="line"/>
      <point x="119" y="29" type="line" smooth="yes"/>
      <point x="96" y="29"/>
      <point x="92" y="41"/>
      <point x="92" y="64" type="curve" smooth="yes"/>
      <point x="92" y="492" type="line"/>
      <point x="147" y="492" type="line"/>
      <point x="147" y="516" type="line"/>
      <point x="92" y="516" type="line"/>
      <point x="92" y="700" type="line"/>
      <point x="63" y="697" type="line"/>
      <point x="63" y="516" type="line"/>
      <point x="18" y="516" type="line"/>
      <point x="18" y="492" type="line"/>
      <point x="63" y="492" type="line"/>
      <point x="63" y="56" type="line" smooth="yes"/>
      <point x="63" y="14"/>
      <point x="82" y="0"/>
    </contour>
  </outline>
</glyph>
<glyph name="u" format="2">
  <advance width="354"/>
  <unicode hex="0075"/>
  <anchor x="176" y="0" name="bottom"/>
  <anchor x="294" y="0" name="ogonek"/>
  <anchor x="176" y="516" name="top"/>
  <anchor x="280" y="516" name="topright"/>
  <outline>
    <contour>
      <point x="156" y="-10" type="curve" smooth="yes"/>
      <point x="209" y="-10"/>
      <point x="247" y="21"/>
      <point x="263" y="77" type="curve"/>
      <point x="265" y="77" type="line"/>
      <point x="266" y="0" type="line"/>
      <point x="294" y="0" type="line"/>
      <point x="294" y="516" type="line"/>
      <point x="265" y="516" type="line"/>
      <point x="265" y="209" type="line" smooth="yes"/>
      <point x="265" y="95"/>
      <point x="238" y="16"/>
      <point x="164" y="16" type="curve" smooth="yes"/>
      <point x="114" y="16"/>
      <point x="86" y="41"/>
      <point x="86" y="145" type="curve" smooth="yes"/>
      <point x="86" y="516" type="line"/>
      <point x="57" y="516" type="line"/>
      <point x="57" y="138" type="line" smooth="yes"/>
      <point x="57" y="39"/>
      <point x="88" y="-10"/>
    </contour>
  </outline>
</glyph>
<glyph name="v" format="2">
  <advance width="266"/>
  <unicode hex="0076"/>
  <anchor x="131" y="0" name="bottom"/>
  <anchor x="131" y="516" name="top"/>
  <outline>
    <contour>
      <point x="116" y="0" type="line"/>
      <point x="150" y="0" type="line"/>
      <point x="253" y="516" type="line"/>
      <point x="223" y="516" type="line"/>
      <point x="159" y="178" type="line"/>
      <point x="135" y="32" type="line"/>
      <point x="131" y="32" type="line"/>
      <point x="107" y="178" type="line"/>
      <point x="43" y="516" type="line"/>
      <point x="13" y="516" type="line"/>
    </contour>
  </outline>
</glyph>
<glyph name="w" format="2">
  <advance width="472"/>
  <unicode hex="0077"/>
  <anchor x="236" y="0" name="bottom"/>
  <anchor x="236" y="516" name="top"/>
  <outline>
    <contour>
      <point x="108" y="0" type="line"/>
      <point x="149" y="0" type="line"/>
      <point x="212" y="346" type="line"/>
      <point x="233" y="478" type="line"/>
      <point x="237" y="478" type="line"/>
      <point x="259" y="346" type="line"/>
      <point x="326" y="0" type="line"/>
      <point x="367" y="0" type="line"/>
      <point x="454" y="516" type="line"/>
      <point x="424" y="516" type="line"/>
      <point x="364" y="149" type="line"/>
      <point x="348" y="29" type="line"/>
      <point x="344" y="29" type="line"/>
      <point x="325" y="149" type="line"/>
      <point x="254" y="516" type="line"/>
      <point x="216" y="516" type="line"/>
      <point x="148" y="149" type="line"/>
      <point x="130" y="29" type="line"/>
      <point x="126" y="29" type="line"/>
      <point x="109" y="149" type="line"/>
      <point x="47" y="516" type="line"/>
      <point x="17" y="516" type="line"/>
    </contour>
  </outline>
</glyph>
<glyph name="x" format="2">
  <advance width="255"/>
  <unicode hex="0078"/>
  <anchor x="126" y="0" name="bottom"/>
  <anchor x="126" y="516" name="top"/>
  <outline>
    <contour>
      <point x="13" y="0" type="line"/>
      <point x="45" y="0" type="line"/>
      <point x="116" y="214" type="line"/>
      <point x="126" y="244" type="line"/>
      <point x="130" y="244" type="line"/>
      <point x="139" y="214" type="line"/>
      <point x="208" y="0" type="line"/>
      <point x="238" y="0" type="line"/>
      <point x="146" y="264" type="line"/>
      <point x="236" y="516" type="line"/>
      <point x="205" y="516" type="line"/>
      <point x="140" y="316" type="line"/>
      <point x="130" y="286" type="line"/>
      <point x="127" y="286" type="line"/>
      <point x="117" y="316" type="line"/>
      <point x="52" y="516" type="line"/>
      <point x="20" y="516" type="line"/>
      <point x="110" y="264" type="line"/>
    </contour>
  </outline>
</glyph>
<glyph name="y" format="2">
  <advance width="254"/>
  <unicode hex="0079"/>
  <anchor x="202" y="0" name="bottom"/>
  <anchor x="127" y="516" name="top"/>
  <outline>
    <contour>
      <point x="28" y="-167" type="line"/>
      <point x="53" y="-167" type="line" smooth="yes"/>
      <point x="93" y="-167"/>
      <point x="111" y="-145"/>
      <point x="120" y="-100" type="curve" smooth="yes"/>
      <point x="240" y="516" type="line"/>
      <point x="209" y="516" type="line"/>
      <point x="146" y="175" type="line"/>
      <point x="128" y="58" type="line"/>
      <point x="124" y="58" type="line"/>
      <point x="106" y="175" type="line"/>
      <point x="45" y="516" type="line"/>
      <point x="15" y="516" type="line"/>
      <point x="113" y="-14" type="line"/>
      <point x="113" y="10" type="line"/>
      <point x="98" y="-77" type="line" smooth="yes"/>
      <point x="91" y="-115"/>
      <point x="82" y="-141"/>
      <point x="53" y="-141" type="curve" smooth="yes"/>
      <point x="28" y="-141" type="line"/>
    </contour>
  </outline>
</glyph>
<glyph name="z" format="2">
  <advance width="217"/>
  <unicode hex="007A"/>
  <anchor x="110" y="0" name="bottom"/>
  <anchor x="110" y="258" name="center"/>
  <anchor x="110" y="516" name="top"/>
  <outline>
    <contour>
      <point x="13" y="0" type="line"/>
      <point x="205" y="0" type="line"/>
      <point x="205" y="24" type="line"/>
      <point x="41" y="24" type="line"/>
      <point x="201" y="495" type="line"/>
      <point x="201" y="516" type="line"/>
      <point x="17" y="516" type="line"/>
      <point x="17" y="492" type="line"/>
      <point x="172" y="492" type="line"/>
      <point x="13" y="20" type="line"/>
    </contour>
  </outline>
</glyph>
<glyph name="braceleft" format="2">
  <advance width="236"/>
  <unicode hex="007B"/>
  <outline>
    <contour>
      <point x="128" y="-167" type="curve" smooth="yes"/>
      <point x="228" y="-167" type="line"/>
      <point x="228" y="-140" type="line"/>
      <point x="121" y="-140" type="line"/>
      <point x="121" y="210" type="line" smooth="yes"/>
      <point x="121" y="269"/>
      <point x="87" y="310"/>
      <point x="52" y="311" type="curve"/>
      <point x="52" y="315" type="line"/>
      <point x="87" y="316"/>
      <point x="121" y="357"/>
      <point x="121" y="416" type="curve" smooth="yes"/>
      <point x="121" y="766" type="line"/>
      <point x="228" y="766" type="line"/>
      <point x="228" y="793" type="line"/>
      <point x="128" y="793" type="line" smooth="yes"/>
      <point x="103" y="793"/>
      <point x="91" y="777"/>
      <point x="91" y="754" type="curve" smooth="yes"/>
      <point x="91" y="415" type="line" smooth="yes"/>
      <point x="91" y="359"/>
      <point x="59" y="329"/>
      <point x="28" y="329" type="curve" smooth="yes"/>
      <point x="7" y="329" type="line"/>
      <point x="7" y="297" type="line"/>
      <point x="28" y="297" type="line" smooth="yes"/>
      <point x="59" y="297"/>
      <point x="91" y="267"/>
      <point x="91" y="211" type="curve" smooth="yes"/>
      <point x="91" y="-128" type="line" smooth="yes"/>
      <point x="91" y="-151"/>
      <point x="103" y="-167"/>
    </contour>
  </outline>
</glyph>
<glyph name="bar" format="2">
  <advance width="186"/>
  <unicode hex="007C"/>
  <outline>
    <contour>
      <point x="78" y="-67" type="line"/>
      <point x="108" y="-67" type="line"/>
      <point x="108" y="729" type="line"/>
      <point x="78" y="729" type="line"/>
    </contour>
  </outline>
</glyph>
<glyph name="asciitilde" format="2">
  <advance width="480"/>
  <unicode hex="007E"/>
  <outline>
    <contour>
      <point x="58" y="305" type="curve"/>
      <point x="89" y="305" type="line"/>
      <point x="86" y="341"/>
      <point x="100" y="366"/>
      <point x="127" y="366" type="curve" smooth="yes"/>
      <point x="166" y="366"/>
      <point x="223" y="317"/>
      <point x="277" y="317" type="curve" smooth="yes"/>
      <point x="322" y="317"/>
      <point x="360" y="343"/>
      <point x="355" y="417" type="curve"/>
      <point x="325" y="417" type="line"/>
      <point x="326" y="374"/>
      <point x="308" y="353"/>
      <point x="277" y="353" type="curve" smooth="yes"/>
      <point x="229" y="353"/>
      <point x="178" y="401"/>
      <point x="129" y="401" type="curve" smooth="yes"/>
      <point x="97" y="401"/>
      <point x="52" y="384"/>
    </contour>
  </outline>
</glyph>
<glyph name="cent" format="2">
  <advance width="320"/>
  <unicode hex="00A2"/>
  <outline>
    <contour>
      <point x="169" y="96" type="curve" smooth="yes"/>
      <point x="232" y="96"/>
      <point x="276" y="138"/>
      <point x="284" y="264" type="curve"/>
      <point x="254" y="264" type="line"/>
      <point x="245" y="163"/>
      <point x="221" y="124"/>
      <point x="169" y="124" type="curve" smooth="yes"/>
      <point x="113" y="124"/>
      <point x="74" y="172"/>
      <point x="74" y="365" type="curve" smooth="yes"/>
      <point x="74" y="558"/>
      <point x="113" y="606"/>
      <point x="169" y="606" type="curve" smooth="yes"/>
      <point x="226" y="606"/>
      <point x="246" y="555"/>
      <point x="254" y="465" type="curve"/>
      <point x="284" y="465" type="line"/>
      <point x="276" y="593"/>
      <point x="230" y="633"/>
      <point x="169" y="633" type="curve" smooth="yes"/>
      <point x="68" y="633"/>
      <point x="45" y="523"/>
      <point x="45" y="365" type="curve" smooth="yes"/>
      <point x="45" y="206"/>
      <point x="68" y="96"/>
    </contour>
    <contour>
      <point x="151" y="0" type="line"/>
      <point x="179" y="0" type="line"/>
      <point x="179" y="114" type="line"/>
      <point x="151" y="114" type="line"/>
    </contour>
    <contour>
      <point x="151" y="621" type="line"/>
      <point x="179" y="621" type="line"/>
      <point x="179" y="729" type="line"/>
      <point x="151" y="729" type="line"/>
    </contour>
  </outline>
</glyph>
<glyph name="sterling" format="2">
  <advance width="443"/>
  <unicode hex="00A3"/>
  <outline>
    <contour>
      <point x="52" y="19" type="curve"/>
      <point x="81" y="19" type="line"/>
      <point x="134" y="82"/>
      <point x="149" y="138"/>
      <point x="149" y="226" type="curve" smooth="yes"/>
      <point x="149" y="354"/>
      <point x="108" y="439"/>
      <point x="108" y="543" type="curve" smooth="yes"/>
      <point x="108" y="650"/>
      <point x="159" y="709"/>
      <point x="248" y="709" type="curve" smooth="yes"/>
      <point x="335" y="709"/>
      <point x="375" y="642"/>
      <point x="373" y="524" type="curve"/>
      <point x="405" y="524" type="line"/>
      <point x="408" y="670"/>
      <point x="343" y="739"/>
      <point x="248" y="739" type="curve" smooth="yes"/>
      <point x="139" y="739"/>
      <point x="76" y="666"/>
      <point x="76" y="542" type="curve" smooth="yes"/>
      <point x="76" y="433"/>
      <point x="117" y="354"/>
      <point x="117" y="224" type="curve" smooth="yes"/>
      <point x="117" y="144"/>
      <point x="106" y="85"/>
    </contour>
    <contour>
      <point x="22" y="0" type="line"/>
      <point x="387" y="0" type="line"/>
      <point x="387" y="180" type="line"/>
      <point x="356" y="180" type="line"/>
      <point x="356" y="29" type="line"/>
      <point x="22" y="29" type="line"/>
    </contour>
    <contour>
      <point x="37" y="355" type="line"/>
      <point x="312" y="355" type="line"/>
      <point x="312" y="384" type="line"/>
      <point x="37" y="384" type="line"/>
    </contour>
  </outline>
</glyph>
<glyph name="currency" format="2">
  <advance width="443"/>
  <unicode hex="00A4"/>
  <outline>
    <contour>
      <point x="45" y="156" type="line"/>
      <point x="129" y="245" type="line"/>
      <point x="155" y="225"/>
      <point x="187" y="214"/>
      <point x="222" y="214" type="curve" smooth="yes"/>
      <point x="258" y="214"/>
      <point x="289" y="226"/>
      <point x="312" y="246" type="curve"/>
      <point x="399" y="156" type="line"/>
      <point x="420" y="176" type="line"/>
      <point x="334" y="266" type="line"/>
      <point x="352" y="286"/>
      <point x="367" y="319"/>
      <point x="367" y="360" type="curve" smooth="yes"/>
      <point x="367" y="397"/>
      <point x="356" y="429"/>
      <point x="335" y="457" type="curve"/>
      <point x="419" y="545" type="line"/>
      <point x="399" y="566" type="line"/>
      <point x="312" y="477" type="line"/>
      <point x="288" y="497"/>
      <point x="256" y="507"/>
      <point x="222" y="507" type="curve" smooth="yes"/>
      <point x="187" y="507"/>
      <point x="155" y="496"/>
      <point x="130" y="477" type="curve"/>
      <point x="45" y="566" type="line"/>
      <point x="23" y="545" type="line"/>
      <point x="108" y="457" type="line"/>
      <point x="87" y="431"/>
      <point x="75" y="396"/>
      <point x="75" y="360" type="curve" smooth="yes"/>
      <point x="75" y="328"/>
      <point x="85" y="292"/>
      <point x="107" y="266" type="curve"/>
      <point x="23" y="176" type="line"/>
    </contour>
    <contour>
      <point x="222" y="243" type="curve" smooth="yes"/>
      <point x="155" y="243"/>
      <point x="105" y="293"/>
      <point x="105" y="360" type="curve" smooth="yes"/>
      <point x="105" y="428"/>
      <point x="154" y="478"/>
      <point x="222" y="478" type="curve" smooth="yes"/>
      <point x="287" y="478"/>
      <point x="336" y="429"/>
      <point x="336" y="360" type="curve" smooth="yes"/>
      <point x="336" y="292"/>
      <point x="287" y="243"/>
    </contour>
  </outline>
</glyph>
<glyph name="yen" format="2">
  <advance width="400"/>
  <unicode hex="00A5"/>
  <outline>
    <contour>
      <point x="185" y="0" type="line"/>
      <point x="215" y="0" type="line"/>
      <point x="215" y="163" type="line"/>
      <point x="350" y="163" type="line"/>
      <point x="350" y="190" type="line"/>
      <point x="215" y="190" type="line"/>
      <point x="215" y="304" type="line"/>
      <point x="350" y="304" type="line"/>
      <point x="350" y="331" type="line"/>
      <point x="226" y="331" type="line"/>
      <point x="376" y="729" type="line"/>
      <point x="343" y="729" type="line"/>
      <point x="202" y="344" type="line"/>
      <point x="198" y="344" type="line"/>
      <point x="57" y="729" type="line"/>
      <point x="23" y="729" type="line"/>
      <point x="174" y="331" type="line"/>
      <point x="51" y="331" type="line"/>
      <point x="51" y="304" type="line"/>
      <point x="185" y="304" type="line"/>
      <point x="185" y="190" type="line"/>
      <point x="51" y="190" type="line"/>
      <point x="51" y="163" type="line"/>
      <point x="185" y="163" type="line"/>
    </contour>
  </outline>
</glyph>
<glyph name="brokenbar" format="2">
  <advance width="186"/>
  <unicode hex="00A6"/>
  <outline>
    <contour>
      <point x="78" y="419" type="line"/>
      <point x="108" y="419" type="line"/>
      <point x="108" y="729" type="line"/>
      <point x="78" y="729" type="line"/>
    </contour>
    <contour>
      <point x="78" y="-67" type="line"/>
      <point x="108" y="-67" type="line"/>
      <point x="108" y="243" type="line"/>
      <point x="78" y="243" type="line"/>
    </contour>
  </outline>
</glyph>
<glyph name="section" format="2">
  <advance width="324"/>
  <unicode hex="00A7"/>
  <outline>
    <contour>
      <point x="163" y="-10" type="curve" smooth="yes"/>
      <point x="227" y="-10"/>
      <point x="271" y="35"/>
      <point x="271" y="117" type="curve" smooth="yes"/>
      <point x="271" y="174"/>
      <point x="254" y="209"/>
      <point x="227" y="237" type="curve"/>
      <point x="249" y="263"/>
      <point x="261" y="298"/>
      <point x="261" y="331" type="curve" smooth="yes"/>
      <point x="261" y="421"/>
      <point x="224" y="459"/>
      <point x="174" y="493" type="curve" smooth="yes"/>
      <point x="128" y="524"/>
      <point x="88" y="554"/>
      <point x="88" y="623" type="curve" smooth="yes"/>
      <point x="88" y="675"/>
      <point x="105" y="710"/>
      <point x="157" y="710" type="curve" smooth="yes"/>
      <point x="216" y="710"/>
      <point x="235" y="663"/>
      <point x="237" y="580" type="curve"/>
      <point x="265" y="580" type="line"/>
      <point x="266" y="702"/>
      <point x="221" y="739"/>
      <point x="158" y="739" type="curve" smooth="yes"/>
      <point x="101" y="739"/>
      <point x="59" y="707"/>
      <point x="59" y="624" type="curve" smooth="yes"/>
      <point x="59" y="566"/>
      <point x="79" y="532"/>
      <point x="109" y="503" type="curve"/>
      <point x="84" y="479"/>
      <point x="69" y="444"/>
      <point x="69" y="410" type="curve" smooth="yes"/>
      <point x="69" y="329"/>
      <point x="102" y="290"/>
      <point x="150" y="257" type="curve" smooth="yes"/>
      <point x="199" y="223"/>
      <point x="242" y="192"/>
      <point x="242" y="118" type="curve" smooth="yes"/>
      <point x="242" y="59"/>
      <point x="217" y="19"/>
      <point x="163" y="19" type="curve" smooth="yes"/>
      <point x="95" y="19"/>
      <point x="73" y="77"/>
      <point x="73" y="160" type="curve"/>
      <point x="45" y="160" type="line"/>
      <point x="45" y="38"/>
      <point x="94" y="-10"/>
    </contour>
    <contour>
      <point x="206" y="255" type="curve"/>
      <point x="195" y="264"/>
      <point x="186" y="271"/>
      <point x="174" y="279" type="curve" smooth="yes"/>
      <point x="132" y="308"/>
      <point x="98" y="340"/>
      <point x="98" y="409" type="curve" smooth="yes"/>
      <point x="98" y="436"/>
      <point x="110" y="464"/>
      <point x="130" y="486" type="curve"/>
      <point x="137" y="481"/>
      <point x="143" y="476"/>
      <point x="150" y="471" type="curve" smooth="yes"/>
      <point x="195" y="439"/>
      <point x="232" y="406"/>
      <point x="232" y="332" type="curve" smooth="yes"/>
      <point x="232" y="303"/>
      <point x="222" y="276"/>
    </contour>
  </outline>
</glyph>
<glyph name="ordfeminine" format="2">
  <advance width="277"/>
  <unicode hex="00AA"/>
  <outline>
    <contour>
      <point x="124" y="385" type="curve" smooth="yes"/>
      <point x="157" y="385"/>
      <point x="175" y="407"/>
      <point x="186" y="441" type="curve"/>
      <point x="187" y="441" type="line"/>
      <point x="187" y="392" type="line"/>
      <point x="217" y="392" type="line"/>
      <point x="217" y="729" type="line"/>
      <point x="188" y="729" type="line"/>
      <point x="187" y="680" type="line"/>
      <point x="186" y="680" type="line"/>
      <point x="175" y="714"/>
      <point x="157" y="736"/>
      <point x="124" y="736" type="curve" smooth="yes"/>
      <point x="78" y="736"/>
      <point x="48" y="693"/>
      <point x="48" y="560" type="curve" smooth="yes"/>
      <point x="48" y="429"/>
      <point x="77" y="385"/>
    </contour>
    <contour>
      <point x="134" y="410" type="curve" smooth="yes"/>
      <point x="89" y="410"/>
      <point x="78" y="465"/>
      <point x="78" y="560" type="curve" smooth="yes"/>
      <point x="78" y="657"/>
      <point x="89" y="711"/>
      <point x="134" y="711" type="curve" smooth="yes"/>
      <point x="166" y="711"/>
      <point x="187" y="672"/>
      <point x="187" y="591" type="curve" smooth="yes"/>
      <point x="187" y="529" type="line" smooth="yes"/>
      <point x="187" y="449"/>
      <point x="166" y="410"/>
    </contour>
  </outline>
</glyph>
<glyph name="guillemetleft" format="2">
  <advance width="325"/>
  <unicode hex="00AB"/>
  <outline>
    <contour>
      <point x="134" y="100" type="line"/>
      <point x="162" y="100" type="line"/>
      <point x="58" y="308" type="line"/>
      <point x="162" y="516" type="line"/>
      <point x="134" y="516" type="line"/>
      <point x="24" y="308" type="line"/>
    </contour>
    <contour>
      <point x="274" y="100" type="line"/>
      <point x="302" y="100" type="line"/>
      <point x="198" y="308" type="line"/>
      <point x="302" y="516" type="line"/>
      <point x="274" y="516" type="line"/>
      <point x="164" y="308" type="line"/>
    </contour>
  </outline>
</glyph>
<glyph name="logicalnot" format="2">
  <advance width="480"/>
  <unicode hex="00AC"/>
  <outline>
    <contour>
      <point x="424" y="145" type="line"/>
      <point x="451" y="145" type="line"/>
      <point x="451" y="375" type="line"/>
      <point x="-24" y="375" type="line"/>
      <point x="-24" y="347" type="line"/>
      <point x="424" y="347" type="line"/>
    </contour>
  </outline>
</glyph>
<glyph name="registered" format="2">
  <advance width="475"/>
  <unicode hex="00AE"/>
  <outline>
    <contour>
      <point x="237" y="233" type="curve"/>
      <point x="351" y="233"/>
      <point x="427" y="325"/>
      <point x="427" y="485" type="curve" smooth="yes"/>
      <point x="427" y="636"/>
      <point x="357" y="737"/>
      <point x="237" y="737" type="curve" smooth="yes"/>
      <point x="124" y="737"/>
      <point x="49" y="645"/>
      <point x="49" y="485" type="curve" smooth="yes"/>
      <point x="49" y="334"/>
      <point x="118" y="233"/>
    </contour>
    <contour>
      <point x="238" y="259" type="curve" smooth="yes"/>
      <point x="141" y="259"/>
      <point x="76" y="334"/>
      <point x="76" y="484" type="curve" smooth="yes"/>
      <point x="76" y="620"/>
      <point x="130" y="711"/>
      <point x="238" y="711" type="curve" smooth="yes"/>
      <point x="335" y="711"/>
      <point x="400" y="636"/>
      <point x="400" y="484" type="curve" smooth="yes"/>
      <point x="400" y="349"/>
      <point x="346" y="259"/>
    </contour>
    <contour>
      <point x="175" y="343" type="line"/>
      <point x="198" y="343" type="line"/>
      <point x="198" y="608" type="line"/>
      <point x="237" y="608" type="line" smooth="yes"/>
      <point x="269" y="608"/>
      <point x="284" y="589"/>
      <point x="284" y="557" type="curve" smooth="yes"/>
      <point x="284" y="520"/>
      <point x="269" y="500"/>
      <point x="233" y="500" type="curve" smooth="yes"/>
      <point x="192" y="500" type="line"/>
      <point x="192" y="479" type="line"/>
      <point x="243" y="479" type="line" smooth="yes"/>
      <point x="274" y="479"/>
      <point x="279" y="464"/>
      <point x="279" y="441" type="curve" smooth="yes"/>
      <point x="279" y="373" type="line" smooth="yes"/>
      <point x="279" y="356"/>
      <point x="279" y="350"/>
      <point x="282" y="343" type="curve"/>
      <point x="305" y="343" type="line"/>
      <point x="303" y="352"/>
      <point x="303" y="365"/>
      <point x="303" y="370" type="curve" smooth="yes"/>
      <point x="303" y="442" type="line" smooth="yes"/>
      <point x="303" y="459"/>
      <point x="300" y="482"/>
      <point x="274" y="491" type="curve"/>
      <point x="274" y="492" type="line"/>
      <point x="295" y="501"/>
      <point x="309" y="520"/>
      <point x="309" y="557" type="curve" smooth="yes"/>
      <point x="309" y="602"/>
      <point x="286" y="631"/>
      <point x="239" y="631" type="curve" smooth="yes"/>
      <point x="175" y="631" type="line"/>
    </contour>
  </outline>
</glyph>
<glyph name="degree" format="2">
  <advance width="330"/>
  <unicode hex="00B0"/>
  <outline>
    <contour>
      <point x="165" y="453" type="curve" smooth="yes"/>
      <point x="234" y="453"/>
      <point x="271" y="511"/>
      <point x="271" y="593" type="curve" smooth="yes"/>
      <point x="271" y="677"/>
      <point x="233" y="734"/>
      <point x="165" y="734" type="curve" smooth="yes"/>
      <point x="97" y="734"/>
      <point x="59" y="677"/>
      <point x="59" y="593" type="curve" smooth="yes"/>
      <point x="59" y="509"/>
      <point x="97" y="453"/>
    </contour>
    <contour>
      <point x="165" y="479" type="curve" smooth="yes"/>
      <point x="119" y="479"/>
      <point x="89" y="516"/>
      <point x="89" y="593" type="curve" smooth="yes"/>
      <point x="89" y="670"/>
      <point x="119" y="707"/>
      <point x="165" y="707" type="curve" smooth="yes"/>
      <point x="211" y="707"/>
      <point x="241" y="670"/>
      <point x="241" y="593" type="curve" smooth="yes"/>
      <point x="241" y="516"/>
      <point x="211" y="479"/>
    </contour>
  </outline>
</glyph>
<glyph name="plusminus" format="2">
  <advance width="480"/>
  <unicode hex="00B1"/>
  <outline>
    <contour>
      <point x="225" y="168" type="line"/>
      <point x="255" y="168" type="line"/>
      <point x="255" y="347" type="line"/>
      <point x="433" y="347" type="line"/>
      <point x="433" y="375" type="line"/>
      <point x="255" y="375" type="line"/>
      <point x="255" y="554" type="line"/>
      <point x="225" y="554" type="line"/>
      <point x="225" y="375" type="line"/>
      <point x="47" y="375" type="line"/>
      <point x="47" y="347" type="line"/>
      <point x="225" y="347" type="line"/>
    </contour>
    <contour>
      <point x="47" y="0" type="line"/>
      <point x="433" y="0" type="line"/>
      <point x="433" y="28" type="line"/>
      <point x="47" y="28" type="line"/>
    </contour>
  </outline>
</glyph>
<glyph name="paragraph" format="2">
  <advance width="443"/>
  <unicode hex="00B6"/>
  <outline>
    <contour>
      <point x="192" y="0" type="line"/>
      <point x="223" y="0" type="line"/>
      <point x="223" y="702" type="line"/>
      <point x="319" y="702" type="line"/>
      <point x="319" y="0" type="line"/>
      <point x="349" y="0" type="line"/>
      <point x="349" y="702" type="line"/>
      <point x="432" y="702" type="line"/>
      <point x="432" y="729" type="line"/>
      <point x="193" y="729" type="line" smooth="yes"/>
      <point x="92" y="729"/>
      <point x="24" y="673"/>
      <point x="24" y="581" type="curve" smooth="yes"/>
      <point x="24" y="494"/>
      <point x="85" y="438"/>
      <point x="192" y="441" type="curve"/>
    </contour>
  </outline>
</glyph>
<glyph name="periodcentered" format="2">
  <advance width="145"/>
  <unicode hex="00B7"/>
  <outline>
    <contour>
      <point x="73" y="241" type="curve" smooth="yes"/>
      <point x="95" y="241"/>
      <point x="110" y="256"/>
      <point x="110" y="277" type="curve" smooth="yes"/>
      <point x="110" y="298"/>
      <point x="95" y="313"/>
      <point x="73" y="313" type="curve" smooth="yes"/>
      <point x="50" y="313"/>
      <point x="35" y="298"/>
      <point x="35" y="277" type="curve" smooth="yes"/>
      <point x="35" y="256"/>
      <point x="50" y="241"/>
    </contour>
  </outline>
</glyph>
<glyph name="ordmasculine" format="2">
  <advance width="268"/>
  <unicode hex="00BA"/>
  <anchor x="134" y="392" name="bottom"/>
  <anchor x="134" y="561" name="center"/>
  <anchor x="222" y="399" name="ogonek"/>
  <anchor x="134" y="729" name="top"/>
  <anchor x="231" y="729" name="topright"/>
  <outline>
    <contour>
      <point x="134" y="385" type="curve" smooth="yes"/>
      <point x="202" y="385"/>
      <point x="221" y="454"/>
      <point x="221" y="561" type="curve" smooth="yes"/>
      <point x="221" y="667"/>
      <point x="202" y="736"/>
      <point x="134" y="736" type="curve" smooth="yes"/>
      <point x="66" y="736"/>
      <point x="47" y="666"/>
      <point x="47" y="561" type="curve" smooth="yes"/>
      <point x="47" y="455"/>
      <point x="66" y="385"/>
    </contour>
    <contour>
      <point x="134" y="411" type="curve" smooth="yes"/>
      <point x="99" y="411"/>
      <point x="76" y="442"/>
      <point x="76" y="561" type="curve" smooth="yes"/>
      <point x="76" y="679"/>
      <point x="99" y="710"/>
      <point x="134" y="710" type="curve" smooth="yes"/>
      <point x="169" y="710"/>
      <point x="191" y="679"/>
      <point x="191" y="561" type="curve" smooth="yes"/>
      <point x="191" y="442"/>
      <point x="169" y="411"/>
    </contour>
  </outline>
</glyph>
<glyph name="AE" format="2">
  <advance width="476"/>
  <unicode hex="00C6"/>
  <anchor x="238" y="0" name="bottom"/>
  <anchor x="238" y="729" name="top"/>
  <outline>
    <contour>
      <point x="10" y="0" type="line"/>
      <point x="42" y="0" type="line"/>
      <point x="87" y="203" type="line"/>
      <point x="300" y="203" type="line"/>
      <point x="344" y="0" type="line"/>
      <point x="466" y="0" type="line"/>
      <point x="466" y="28" type="line"/>
      <point x="370" y="28" type="line"/>
      <point x="298" y="361" type="line"/>
      <point x="435" y="361" type="line"/>
      <point x="435" y="389" type="line"/>
      <point x="292" y="389" type="line"/>
      <point x="224" y="701" type="line"/>
      <point x="466" y="701" type="line"/>
      <point x="466" y="729" type="line"/>
      <point x="170" y="729" type="line"/>
    </contour>
    <contour>
      <point x="93" y="232" type="line"/>
      <point x="156" y="518" type="line"/>
      <point x="191" y="698" type="line"/>
      <point x="197" y="698" type="line"/>
      <point x="232" y="518" type="line"/>
      <point x="294" y="232" type="line"/>
    </contour>
  </outline>
</glyph>
<glyph name="multiply" format="2">
  <advance width="480"/>
  <unicode hex="00D7"/>
  <outline>
    <contour>
      <point x="115" y="214" type="line"/>
      <point x="241" y="340" type="line"/>
      <point x="367" y="214" type="line"/>
      <point x="388" y="235" type="line"/>
      <point x="262" y="361" type="line"/>
      <point x="388" y="487" type="line"/>
      <point x="367" y="508" type="line"/>
      <point x="241" y="382" type="line"/>
      <point x="115" y="508" type="line"/>
      <point x="94" y="487" type="line"/>
      <point x="220" y="361" type="line"/>
      <point x="94" y="235" type="line"/>
    </contour>
  </outline>
</glyph>
<glyph name="germandbls" format="2">
  <advance width="391"/>
  <unicode hex="00DF"/>
  <outline>
    <contour>
      <point x="79" y="0" type="line"/>
      <point x="108" y="0" type="line"/>
      <point x="108" y="572" type="line" smooth="yes"/>
      <point x="108" y="673"/>
      <point x="143" y="711"/>
      <point x="202" y="711" type="curve" smooth="yes"/>
      <point x="268" y="711"/>
      <point x="304" y="665"/>
      <point x="304" y="568" type="curve" smooth="yes"/>
      <point x="304" y="478"/>
      <point x="271" y="410"/>
      <point x="199" y="410" type="curve" smooth="yes"/>
      <point x="169" y="410" type="line"/>
      <point x="169" y="382" type="line"/>
      <point x="208" y="382" type="line" smooth="yes"/>
      <point x="283" y="382"/>
      <point x="333" y="333"/>
      <point x="333" y="211" type="curve" smooth="yes"/>
      <point x="333" y="101"/>
      <point x="287" y="26"/>
      <point x="176" y="26" type="curve" smooth="yes"/>
      <point x="159" y="26" type="line"/>
      <point x="159" y="0" type="line"/>
      <point x="178" y="0" type="line" smooth="yes"/>
      <point x="289" y="0"/>
      <point x="363" y="60"/>
      <point x="363" y="213" type="curve" smooth="yes"/>
      <point x="363" y="313"/>
      <point x="323" y="388"/>
      <point x="245" y="398" type="curve"/>
      <point x="245" y="401" type="line"/>
      <point x="297" y="416"/>
      <point x="333" y="471"/>
      <point x="333" y="572" type="curve" smooth="yes"/>
      <point x="333" y="678"/>
      <point x="283" y="739"/>
      <point x="202" y="739" type="curve" smooth="yes"/>
      <point x="132" y="739"/>
      <point x="79" y="691"/>
      <point x="79" y="580" type="curve" smooth="yes"/>
    </contour>
    <contour>
      <point x="-4" y="489" type="line"/>
      <point x="90" y="489" type="line"/>
      <point x="90" y="516" type="line"/>
      <point x="-4" y="516" type="line"/>
    </contour>
  </outline>
</glyph>
<glyph name="ae" format="2">
  <advance width="505"/>
  <unicode hex="00E6"/>
  <outline>
    <contour>
      <point x="134" y="-10" type="curve" smooth="yes"/>
      <point x="180" y="-10"/>
      <point x="220" y="17"/>
      <point x="241" y="82" type="curve"/>
      <point x="243" y="82" type="line"/>
      <point x="260" y="24"/>
      <point x="293" y="-10"/>
      <point x="349" y="-10" type="curve" smooth="yes"/>
      <point x="410" y="-10"/>
      <point x="456" y="27"/>
      <point x="466" y="148" type="curve"/>
      <point x="436" y="148" type="line"/>
      <point x="428" y="70"/>
      <point x="410" y="18"/>
      <point x="349" y="18" type="curve" smooth="yes"/>
      <point x="297" y="18"/>
      <point x="255" y="58"/>
      <point x="255" y="209" type="curve" smooth="yes"/>
      <point x="255" y="281" type="line" smooth="yes"/>
      <point x="255" y="453"/>
      <point x="294" y="498"/>
      <point x="349" y="498" type="curve" smooth="yes"/>
      <point x="393" y="498"/>
      <point x="430" y="463"/>
      <point x="434" y="279" type="curve"/>
      <point x="250" y="279" type="line"/>
      <point x="250" y="253" type="line"/>
      <point x="464" y="253" type="line"/>
      <point x="464" y="416"/>
      <point x="442" y="526"/>
      <point x="349" y="526" type="curve" smooth="yes"/>
      <point x="299" y="526"/>
      <point x="266" y="497"/>
      <point x="250" y="439" type="curve"/>
      <point x="248" y="439" type="line"/>
      <point x="235" y="501"/>
      <point x="195" y="526"/>
      <point x="152" y="526" type="curve" smooth="yes"/>
      <point x="70" y="526"/>
      <point x="45" y="465"/>
      <point x="42" y="375" type="curve"/>
      <point x="72" y="375" type="line"/>
      <point x="73" y="479"/>
      <point x="108" y="499"/>
      <point x="150" y="499" type="curve" smooth="yes"/>
      <point x="211" y="499"/>
      <point x="226" y="443"/>
      <point x="226" y="359" type="curve" smooth="yes"/>
      <point x="226" y="140" type="line" smooth="yes"/>
      <point x="226" y="59"/>
      <point x="190" y="15"/>
      <point x="136" y="15" type="curve" smooth="yes"/>
      <point x="92" y="15"/>
      <point x="63" y="46"/>
      <point x="63" y="126" type="curve" smooth="yes"/>
      <point x="63" y="198"/>
      <point x="95" y="253"/>
      <point x="181" y="253" type="curve" smooth="yes"/>
      <point x="233" y="253" type="line"/>
      <point x="233" y="279" type="line"/>
      <point x="184" y="279" type="line" smooth="yes"/>
      <point x="94" y="279"/>
      <point x="34" y="232"/>
      <point x="34" y="122" type="curve" smooth="yes"/>
      <point x="34" y="44"/>
      <point x="65" y="-10"/>
    </contour>
  </outline>
</glyph>
<glyph name="eth" format="2">
  <advance width="337"/>
  <unicode hex="00F0"/>
  <outline>
    <contour>
      <point x="167" y="-10" type="curve" smooth="yes"/>
      <point x="253" y="-10"/>
      <point x="292" y="75"/>
      <point x="292" y="262" type="curve" smooth="yes"/>
      <point x="292" y="415"/>
      <point x="241" y="581"/>
      <point x="134" y="729" type="curve"/>
      <point x="103" y="729" type="line"/>
      <point x="161" y="651"/>
      <point x="216" y="544"/>
      <point x="242" y="455" type="curve"/>
      <point x="240" y="454" type="line"/>
      <point x="223" y="489"/>
      <point x="195" y="509"/>
      <point x="165" y="509" type="curve" smooth="yes"/>
      <point x="84" y="509"/>
      <point x="44" y="424"/>
      <point x="44" y="251" type="curve" smooth="yes"/>
      <point x="44" y="76"/>
      <point x="84" y="-10"/>
    </contour>
    <contour>
      <point x="168" y="16" type="curve" smooth="yes"/>
      <point x="103" y="16"/>
      <point x="73" y="90"/>
      <point x="73" y="251" type="curve" smooth="yes"/>
      <point x="73" y="410"/>
      <point x="102" y="483"/>
      <point x="166" y="483" type="curve" smooth="yes"/>
      <point x="214" y="483"/>
      <point x="263" y="451"/>
      <point x="263" y="245" type="curve" smooth="yes"/>
      <point x="263" y="88"/>
      <point x="233" y="16"/>
    </contour>
    <contour>
      <point x="54" y="581" type="line"/>
      <point x="285" y="637" type="line"/>
      <point x="285" y="662" type="line"/>
      <point x="54" y="605" type="line"/>
    </contour>
  </outline>
</glyph>
<glyph name="divide" format="2">
  <advance width="480"/>
  <unicode hex="00F7"/>
  <outline>
    <contour>
      <point x="47" y="347" type="line"/>
      <point x="433" y="347" type="line"/>
      <point x="433" y="375" type="line"/>
      <point x="47" y="375" type="line"/>
    </contour>
    <contour>
      <point x="221" y="196" type="line"/>
      <point x="259" y="196" type="line"/>
      <point x="259" y="250" type="line"/>
      <point x="221" y="250" type="line"/>
    </contour>
    <contour>
      <point x="221" y="472" type="line"/>
      <point x="259" y="472" type="line"/>
      <point x="259" y="526" type="line"/>
      <point x="221" y="526" type="line"/>
    </contour>
  </outline>
</glyph>
<glyph name="thorn" format="2">
  <advance width="344"/>
  <unicode hex="00FE"/>
  <anchor x="169" y="0" name="bottom"/>
  <anchor x="169" y="729" name="top"/>
  <outline>
    <contour>
      <point x="60" y="-167" type="line"/>
      <point x="89" y="-167" type="line"/>
      <point x="89" y="77" type="line"/>
      <point x="91" y="77" type="line"/>
      <point x="107" y="26"/>
      <point x="133" y="-10"/>
      <point x="185" y="-10" type="curve" smooth="yes"/>
      <point x="252" y="-10"/>
      <point x="299" y="51"/>
      <point x="299" y="258" type="curve" smooth="yes"/>
      <point x="299" y="464"/>
      <point x="253" y="526"/>
      <point x="185" y="526" type="curve" smooth="yes"/>
      <point x="133" y="526"/>
      <point x="107" y="491"/>
      <point x="91" y="439" type="curve"/>
      <point x="89" y="439" type="line"/>
      <point x="89" y="729" type="line"/>
      <point x="60" y="729" type="line"/>
    </contour>
    <contour>
      <point x="177" y="16" type="curve" smooth="yes"/>
      <point x="125" y="16"/>
      <point x="89" y="76"/>
      <point x="89" y="206" type="curve" smooth="yes"/>
      <point x="89" y="309" type="line" smooth="yes"/>
      <point x="89" y="437"/>
      <point x="124" y="500"/>
      <point x="177" y="500" type="curve" smooth="yes"/>
      <point x="250" y="500"/>
      <point x="269" y="414"/>
      <point x="269" y="258" type="curve" smooth="yes"/>
      <point x="269" y="101"/>
      <point x="250" y="16"/>
    </contour>
  </outline>
</glyph>
<glyph name="idotless" format="2">
  <advance width="149"/>
  <unicode hex="0131"/>
  <anchor x="75" y="0" name="bottom"/>
  <anchor x="89" y="0" name="ogonek"/>
  <anchor x="75" y="516" name="top"/>
  <outline>
    <contour>
      <point x="60" y="0" type="line"/>
      <point x="89" y="0" type="line"/>
      <point x="89" y="516" type="line"/>
      <point x="60" y="516" type="line"/>
    </contour>
  </outline>
</glyph>
<glyph name="Eng" format="2">
  <advance width="446"/>
  <unicode hex="014A"/>
  <outline>
    <contour>
      <point x="66" y="0" type="line"/>
      <point x="97" y="0" type="line"/>
      <point x="97" y="410" type="line"/>
      <point x="94" y="685" type="line"/>
      <point x="100" y="685" type="line"/>
      <point x="330" y="0" type="line"/>
      <point x="380" y="0" type="line"/>
      <point x="380" y="729" type="line"/>
      <point x="349" y="729" type="line"/>
      <point x="349" y="328" type="line"/>
      <point x="352" y="39" type="line"/>
      <point x="347" y="39" type="line"/>
      <point x="116" y="729" type="line"/>
      <point x="66" y="729" type="line"/>
    </contour>
    <contour>
      <point x="294" y="-167" type="line"/>
      <point x="316" y="-167" type="line" smooth="yes"/>
      <point x="365" y="-167"/>
      <point x="380" y="-138"/>
      <point x="380" y="-94" type="curve" smooth="yes"/>
      <point x="380" y="0" type="line"/>
      <point x="351" y="0" type="line"/>
      <point x="351" y="-89" type="line" smooth="yes"/>
      <point x="351" y="-128"/>
      <point x="340" y="-140"/>
      <point x="311" y="-140" type="curve" smooth="yes"/>
      <point x="294" y="-140" type="line"/>
    </contour>
  </outline>
</glyph>
<glyph name="eng" format="2">
  <advance width="354"/>
  <unicode hex="014B"/>
  <outline>
    <contour>
      <point x="211" y="-167" type="line"/>
      <point x="233" y="-167" type="line" smooth="yes"/>
      <point x="282" y="-167"/>
      <point x="297" y="-138"/>
      <point x="297" y="-94" type="curve" smooth="yes"/>
      <point x="297" y="378" type="line" smooth="yes"/>
      <point x="297" y="478"/>
      <point x="265" y="526"/>
      <point x="198" y="526" type="curve" smooth="yes"/>
      <point x="146" y="526"/>
      <point x="107" y="496"/>
      <point x="91" y="439" type="curve"/>
      <point x="89" y="439" type="line"/>
      <point x="88" y="516" type="line"/>
      <point x="60" y="516" type="line"/>
      <point x="60" y="0" type="line"/>
      <point x="89" y="0" type="line"/>
      <point x="89" y="307" type="line" smooth="yes"/>
      <point x="89" y="421"/>
      <point x="116" y="500"/>
      <point x="189" y="500" type="curve" smooth="yes"/>
      <point x="240" y="500"/>
      <point x="268" y="474"/>
      <point x="268" y="371" type="curve" smooth="yes"/>
      <point x="268" y="-89" type="line" smooth="yes"/>
      <point x="268" y="-128"/>
      <point x="257" y="-140"/>
      <point x="228" y="-140" type="curve" smooth="yes"/>
      <point x="211" y="-140" type="line"/>
    </contour>
  </outline>
</glyph>
<glyph name="OE" format="2">
  <advance width="526"/>
  <unicode hex="0152"/>
  <anchor x="263" y="0" name="bottom"/>
  <anchor x="263" y="729" name="top"/>
  <outline>
    <contour>
      <point x="215" y="-10" type="curve" smooth="yes"/>
      <point x="236" y="-10"/>
      <point x="256" y="-7"/>
      <point x="274" y="0" type="curve"/>
      <point x="516" y="0" type="line"/>
      <point x="516" y="28" type="line"/>
      <point x="311" y="28" type="line"/>
      <point x="311" y="361" type="line"/>
      <point x="481" y="361" type="line"/>
      <point x="481" y="389" type="line"/>
      <point x="311" y="389" type="line"/>
      <point x="311" y="701" type="line"/>
      <point x="516" y="701" type="line"/>
      <point x="516" y="729" type="line"/>
      <point x="274" y="729" type="line"/>
      <point x="256" y="736"/>
      <point x="236" y="739"/>
      <point x="215" y="739" type="curve" smooth="yes"/>
      <point x="114" y="739"/>
      <point x="45" y="668"/>
      <point x="45" y="365" type="curve" smooth="yes"/>
      <point x="45" y="61"/>
      <point x="114" y="-10"/>
    </contour>
    <contour>
      <point x="215" y="19" type="curve" smooth="yes"/>
      <point x="105" y="19"/>
      <point x="78" y="158"/>
      <point x="78" y="365" type="curve" smooth="yes"/>
      <point x="78" y="571"/>
      <point x="105" y="710"/>
      <point x="215" y="710" type="curve" smooth="yes"/>
      <point x="241" y="710"/>
      <point x="263" y="705"/>
      <point x="280" y="695" type="curve"/>
      <point x="280" y="34" type="line"/>
      <point x="263" y="24"/>
      <point x="241" y="19"/>
    </contour>
  </outline>
</glyph>
<glyph name="oe" format="2">
  <advance width="544"/>
  <unicode hex="0153"/>
  <anchor x="275" y="0" name="bottom"/>
  <anchor x="275" y="516" name="top"/>
  <outline>
    <contour>
      <point x="168" y="-10" type="curve" smooth="yes"/>
      <point x="231" y="-10"/>
      <point x="263" y="31"/>
      <point x="279" y="103" type="curve"/>
      <point x="277" y="103" type="line"/>
      <point x="293" y="31"/>
      <point x="326" y="-10"/>
      <point x="388" y="-10" type="curve" smooth="yes"/>
      <point x="449" y="-10"/>
      <point x="495" y="27"/>
      <point x="505" y="148" type="curve"/>
      <point x="475" y="148" type="line"/>
      <point x="467" y="70"/>
      <point x="449" y="18"/>
      <point x="388" y="18" type="curve" smooth="yes"/>
      <point x="310" y="18"/>
      <point x="292" y="131"/>
      <point x="292" y="254" type="curve" smooth="yes"/>
      <point x="292" y="281" type="line"/>
      <point x="296" y="454"/>
      <point x="334" y="498"/>
      <point x="388" y="498" type="curve" smooth="yes"/>
      <point x="433" y="498"/>
      <point x="470" y="462"/>
      <point x="473" y="281" type="curve"/>
      <point x="482" y="289" type="line"/>
      <point x="285" y="289" type="line"/>
      <point x="286" y="260" type="line"/>
      <point x="503" y="260" type="line"/>
      <point x="502" y="419"/>
      <point x="479" y="526"/>
      <point x="388" y="526" type="curve" smooth="yes"/>
      <point x="326" y="526"/>
      <point x="293" y="485"/>
      <point x="277" y="413" type="curve"/>
      <point x="279" y="413" type="line"/>
      <point x="263" y="485"/>
      <point x="230" y="526"/>
      <point x="168" y="526" type="curve" smooth="yes"/>
      <point x="67" y="526"/>
      <point x="44" y="416"/>
      <point x="44" y="258" type="curve" smooth="yes"/>
      <point x="44" y="99"/>
      <point x="67" y="-10"/>
    </contour>
    <contour>
      <point x="168" y="17" type="curve" smooth="yes"/>
      <point x="112" y="17"/>
      <point x="73" y="64"/>
      <point x="73" y="258" type="curve" smooth="yes"/>
      <point x="73" y="451"/>
      <point x="112" y="499"/>
      <point x="168" y="499" type="curve" smooth="yes"/>
      <point x="225" y="499"/>
      <point x="263" y="450"/>
      <point x="263" y="258" type="curve" smooth="yes"/>
      <point x="263" y="66"/>
      <point x="225" y="17"/>
    </contour>
  </outline>
</glyph>
<glyph name="florin" format="2">
  <advance width="213"/>
  <unicode hex="0192"/>
  <outline>
    <contour>
      <point x="35" y="-167" type="line"/>
      <point x="52" y="-167" type="line" smooth="yes"/>
      <point x="93" y="-167"/>
      <point x="121" y="-150"/>
      <point x="121" y="-92" type="curve" smooth="yes"/>
      <point x="121" y="648" type="line" smooth="yes"/>
      <point x="121" y="684"/>
      <point x="129" y="700"/>
      <point x="161" y="700" type="curve" smooth="yes"/>
      <point x="178" y="700" type="line"/>
      <point x="178" y="729" type="line"/>
      <point x="161" y="729" type="line" smooth="yes"/>
      <point x="120" y="729"/>
      <point x="92" y="712"/>
      <point x="92" y="654" type="curve" smooth="yes"/>
      <point x="92" y="-86" type="line" smooth="yes"/>
      <point x="92" y="-122"/>
      <point x="84" y="-138"/>
      <point x="52" y="-138" type="curve" smooth="yes"/>
      <point x="35" y="-138" type="line"/>
    </contour>
    <contour>
      <point x="38" y="431" type="line"/>
      <point x="176" y="431" type="line"/>
      <point x="176" y="459" type="line"/>
      <point x="38" y="459" type="line"/>
    </contour>
  </outline>
</glyph>
<glyph name="jdotless" format="2">
  <advance width="149"/>
  <unicode hex="0237"/>
  <anchor x="75" y="-250" name="bottom"/>
  <anchor x="75" y="516" name="top"/>
  <outline>
    <contour>
      <point x="3" y="-167" type="line"/>
      <point x="25" y="-167" type="line" smooth="yes"/>
      <point x="74" y="-167"/>
      <point x="89" y="-138"/>
      <point x="89" y="-94" type="curve" smooth="yes"/>
      <point x="89" y="516" type="line"/>
      <point x="60" y="516" type="line"/>
      <point x="60" y="-89" type="line" smooth="yes"/>
      <point x="60" y="-128"/>
      <point x="49" y="-140"/>
      <point x="20" y="-140" type="curve" smooth="yes"/>
      <point x="3" y="-140" type="line"/>
    </contour>
  </outline>
</glyph>
<glyph name="circumflexcomb" format="2">
  <unicode hex="0302"/>
  <anchor x="129" y="672" name="_top"/>
  <outline>
    <contour>
      <point x="40" y="746" type="line"/>
      <point x="69" y="746" type="line"/>
      <point x="129" y="860" type="line"/>
      <point x="188" y="746" type="line"/>
      <point x="217" y="746" type="line"/>
      <point x="149" y="882" type="line"/>
      <point x="108" y="882" type="line"/>
    </contour>
  </outline>
</glyph>
<glyph name="tildecomb" format="2">
  <unicode hex="0303"/>
  <anchor x="140" y="672" name="_top"/>
  <outline>
    <contour>
      <point x="178" y="777" type="curve" smooth="yes"/>
      <point x="199" y="777"/>
      <point x="221" y="786"/>
      <point x="241" y="824" type="curve"/>
      <point x="223" y="837" type="line"/>
      <point x="213" y="818"/>
      <point x="200" y="807"/>
      <point x="181" y="807" type="curve" smooth="yes"/>
      <point x="153" y="807"/>
      <point x="130" y="835"/>
      <point x="100" y="835" type="curve" smooth="yes"/>
      <point x="78" y="835"/>
      <point x="60" y="821"/>
      <point x="40" y="786" type="curve"/>
      <point x="57" y="775" type="line"/>
      <point x="70" y="797"/>
      <point x="84" y="804"/>
      <point x="98" y="804" type="curve" smooth="yes"/>
      <point x="126" y="804"/>
      <point x="144" y="777"/>
    </contour>
  </outline>
</glyph>
<glyph name="macroncomb" format="2">
  <unicode hex="0304"/>
  <anchor x="137" y="671" name="_top"/>
  <outline>
    <contour>
      <point x="40" y="780" type="line"/>
      <point x="233" y="780" type="line"/>
      <point x="233" y="807" type="line"/>
      <point x="40" y="807" type="line"/>
    </contour>
  </outline>
</glyph>
<glyph name="brevecomb" format="2">
  <unicode hex="0306"/>
  <anchor x="124" y="672" name="_top"/>
  <outline>
    <contour>
      <point x="124" y="741" type="curve" smooth="yes"/>
      <point x="178" y="741"/>
      <point x="207" y="790"/>
      <point x="207" y="882" type="curve"/>
      <point x="180" y="882" type="line"/>
      <point x="181" y="808"/>
      <point x="160" y="769"/>
      <point x="124" y="769" type="curve" smooth="yes"/>
      <point x="87" y="769"/>
      <point x="68" y="807"/>
      <point x="68" y="882" type="curve"/>
      <point x="40" y="882" type="line"/>
      <point x="41" y="790"/>
      <point x="69" y="741"/>
    </contour>
  </outline>
</glyph>
<glyph name="dotaccentcomb" format="2">
  <unicode hex="0307"/>
  <anchor x="63" y="672" name="_top"/>
  <outline>
    <contour>
      <point x="63" y="772" type="curve" smooth="yes"/>
      <point x="76" y="772"/>
      <point x="86" y="781"/>
      <point x="86" y="795" type="curve" smooth="yes"/>
      <point x="86" y="809"/>
      <point x="76" y="818"/>
      <point x="63" y="818" type="curve" smooth="yes"/>
      <point x="50" y="818"/>
      <point x="40" y="809"/>
      <point x="40" y="795" type="curve" smooth="yes"/>
      <point x="40" y="781"/>
      <point x="50" y="772"/>
    </contour>
  </outline>
</glyph>
<glyph name="dieresiscomb" format="2">
  <unicode hex="0308"/>
  <anchor x="118" y="672" name="_top"/>
  <outline>
    <contour>
      <point x="173" y="772" type="curve" smooth="yes"/>
      <point x="186" y="772"/>
      <point x="196" y="781"/>
      <point x="196" y="795" type="curve" smooth="yes"/>
      <point x="196" y="809"/>
      <point x="186" y="818"/>
      <point x="173" y="818" type="curve" smooth="yes"/>
      <point x="160" y="818"/>
      <point x="150" y="809"/>
      <point x="150" y="795" type="curve" smooth="yes"/>
      <point x="150" y="781"/>
      <point x="160" y="772"/>
    </contour>
    <contour>
      <point x="63" y="772" type="curve" smooth="yes"/>
      <point x="76" y="772"/>
      <point x="86" y="781"/>
      <point x="86" y="795" type="curve" smooth="yes"/>
      <point x="86" y="809"/>
      <point x="76" y="818"/>
      <point x="63" y="818" type="curve" smooth="yes"/>
      <point x="50" y="818"/>
      <point x="40" y="809"/>
      <point x="40" y="795" type="curve" smooth="yes"/>
      <point x="40" y="781"/>
      <point x="50" y="772"/>
    </contour>
  </outline>
</glyph>
<glyph name="hookabovecomb" format="2">
  <unicode hex="0309"/>
  <anchor x="81" y="672" name="_top"/>
  <outline>
    <contour>
      <point x="70" y="735" type="line"/>
      <point x="118" y="772"/>
      <point x="141" y="808"/>
      <point x="141" y="847" type="curve" smooth="yes"/>
      <point x="141" y="885"/>
      <point x="115" y="910"/>
      <point x="75" y="910" type="curve" smooth="yes"/>
      <point x="64" y="910"/>
      <point x="50" y="908"/>
      <point x="40" y="904" type="curve"/>
      <point x="40" y="880" type="line"/>
      <point x="48" y="883"/>
      <point x="58" y="885"/>
      <point x="71" y="885" type="curve" smooth="yes"/>
      <point x="99" y="885"/>
      <point x="113" y="869"/>
      <point x="113" y="844" type="curve" smooth="yes"/>
      <point x="113" y="815"/>
      <point x="96" y="788"/>
      <point x="52" y="753" type="curve"/>
    </contour>
  </outline>
</glyph>
<glyph name="ringcomb" format="2">
  <unicode hex="030A"/>
  <anchor x="103" y="672" name="_top"/>
  <outline>
    <contour>
      <point x="103" y="721" type="curve" smooth="yes"/>
      <point x="141" y="721"/>
      <point x="166" y="753"/>
      <point x="166" y="810" type="curve" smooth="yes"/>
      <point x="166" y="863"/>
      <point x="143" y="899"/>
      <point x="103" y="899" type="curve" smooth="yes"/>
      <point x="65" y="899"/>
      <point x="40" y="867"/>
      <point x="40" y="810" type="curve" smooth="yes"/>
      <point x="40" y="757"/>
      <point x="63" y="721"/>
    </contour>
    <contour>
      <point x="103" y="746" type="curve" smooth="yes"/>
      <point x="81" y="746"/>
      <point x="67" y="766"/>
      <point x="67" y="810" type="curve" smooth="yes"/>
      <point x="67" y="848"/>
      <point x="79" y="874"/>
      <point x="103" y="874" type="curve" smooth="yes"/>
      <point x="125" y="874"/>
      <point x="139" y="854"/>
      <point x="139" y="810" type="curve" smooth="yes"/>
      <point x="139" y="772"/>
      <point x="127" y="746"/>
    </contour>
  </outline>
</glyph>
<glyph name="hungarumlautcomb" format="2">
  <unicode hex="030B"/>
  <anchor x="97" y="672" name="_top"/>
  <outline>
    <contour>
      <point x="40" y="746" type="line"/>
      <point x="68" y="746" type="line"/>
      <point x="137" y="882" type="line"/>
      <point x="104" y="882" type="line"/>
    </contour>
    <contour>
      <point x="125" y="746" type="line"/>
      <point x="154" y="746" type="line"/>
      <point x="234" y="882" type="line"/>
      <point x="198" y="882" type="line"/>
    </contour>
  </outline>
</glyph>
<glyph name="caroncomb" format="2">
  <unicode hex="030C"/>
  <anchor x="129" y="672" name="_top"/>
  <outline>
    <contour>
      <point x="108" y="746" type="line"/>
      <point x="149" y="746" type="line"/>
      <point x="217" y="882" type="line"/>
      <point x="188" y="882" type="line"/>
      <point x="129" y="768" type="line"/>
      <point x="69" y="882" type="line"/>
      <point x="40" y="882" type="line"/>
    </contour>
  </outline>
</glyph>
<glyph name="commaturnedabovecomb" format="2">
  <unicode hex="0312"/>
  <anchor x="56" y="672" name="_top"/>
  <outline>
    <contour>
      <point x="40" y="746" type="line"/>
      <point x="70" y="746" type="line"/>
      <point x="70" y="780" type="line" smooth="yes"/>
      <point x="70" y="825"/>
      <point x="93" y="857"/>
      <point x="126" y="882" type="curve"/>
      <point x="111" y="900" type="line"/>
      <point x="74" y="875"/>
      <point x="40" y="836"/>
      <point x="40" y="780" type="curve" smooth="yes"/>
    </contour>
  </outline>
</glyph>
<glyph name="horncomb" format="2">
  <unicode hex="031B"/>
  <anchor x="40" y="516" name="_topright"/>
  <outline>
    <contour>
      <point x="40" y="492" type="line"/>
      <point x="102" y="492"/>
      <point x="142" y="522"/>
      <point x="134" y="636" type="curve"/>
      <point x="108" y="636" type="line"/>
      <point x="116" y="538"/>
      <point x="90" y="516"/>
      <point x="40" y="516" type="curve"/>
    </contour>
  </outline>
</glyph>
<glyph name="dotbelowcomb" format="2">
  <unicode hex="0323"/>
  <anchor x="63" y="0" name="_bottom"/>
  <outline>
    <contour>
      <point x="63" y="-115" type="curve" smooth="yes"/>
      <point x="76" y="-115"/>
      <point x="86" y="-106"/>
      <point x="86" y="-92" type="curve" smooth="yes"/>
      <point x="86" y="-78"/>
      <point x="76" y="-69"/>
      <point x="63" y="-69" type="curve" smooth="yes"/>
      <point x="50" y="-69"/>
      <point x="40" y="-78"/>
      <point x="40" y="-92" type="curve" smooth="yes"/>
      <point x="40" y="-106"/>
      <point x="50" y="-115"/>
    </contour>
  </outline>
</glyph>
<glyph name="commaaccentcomb" format="2">
  <unicode hex="0326"/>
  <anchor x="97" y="0" name="_bottom"/>
  <outline>
    <contour>
      <point x="40" y="-195" type="line"/>
      <point x="66" y="-195" type="line"/>
      <point x="111" y="-59" type="line"/>
      <point x="82" y="-59" type="line"/>
    </contour>
  </outline>
</glyph>
<glyph name="cedillacomb" format="2">
  <unicode hex="0327"/>
  <anchor x="141" y="0" name="_bottom"/>
  <outline>
    <contour>
      <point x="127" y="-232" type="curve" smooth="yes"/>
      <point x="179" y="-233"/>
      <point x="214" y="-199"/>
      <point x="214" y="-149" type="curve" smooth="yes"/>
      <point x="214" y="-107"/>
      <point x="185" y="-72"/>
      <point x="133" y="-56" type="curve"/>
      <point x="157" y="5" type="line"/>
      <point x="129" y="5" type="line"/>
      <point x="100" y="-58" type="line"/>
      <point x="107" y="-77" type="line"/>
      <point x="153" y="-89"/>
      <point x="184" y="-111"/>
      <point x="184" y="-150" type="curve" smooth="yes"/>
      <point x="184" y="-182"/>
      <point x="164" y="-206"/>
      <point x="127" y="-206" type="curve" smooth="yes"/>
      <point x="97" y="-205"/>
      <point x="77" y="-189"/>
      <point x="69" y="-161" type="curve"/>
      <point x="40" y="-169" type="line"/>
      <point x="52" y="-208"/>
      <point x="84" y="-231"/>
    </contour>
  </outline>
</glyph>
<glyph name="ogonekcomb" format="2">
  <unicode hex="0328"/>
  <anchor x="135" y="0" name="_ogonek"/>
  <outline>
    <contour>
      <point x="107" y="-187" type="curve" smooth="yes"/>
      <point x="122" y="-187"/>
      <point x="137" y="-184"/>
      <point x="145" y="-180" type="curve"/>
      <point x="145" y="-156" type="line"/>
      <point x="135" y="-160"/>
      <point x="122" y="-162"/>
      <point x="111" y="-162" type="curve" smooth="yes"/>
      <point x="78" y="-162"/>
      <point x="67" y="-143"/>
      <point x="67" y="-119" type="curve" smooth="yes"/>
      <point x="67" y="-85"/>
      <point x="91" y="-42"/>
      <point x="135" y="0" type="curve"/>
      <point x="132" y="8" type="line"/>
      <point x="112" y="8" type="line"/>
      <point x="67" y="-35"/>
      <point x="40" y="-85"/>
      <point x="40" y="-122" type="curve" smooth="yes"/>
      <point x="40" y="-163"/>
      <point x="66" y="-187"/>
    </contour>
  </outline>
</glyph>
<glyph name="strokeshortcomb" format="2">
  <unicode hex="0335"/>
  <anchor x="134" y="306" name="_center"/>
  <outline>
    <contour>
      <point x="40" y="293" type="line"/>
      <point x="228" y="293" type="line"/>
      <point x="228" y="320" type="line"/>
      <point x="40" y="320" type="line"/>
    </contour>
  </outline>
</glyph>
<glyph name="strokelongcomb" format="2">
  <unicode hex="0336"/>
  <anchor x="249" y="369" name="_center"/>
  <outline>
    <contour>
      <point x="40" y="355" type="line"/>
      <point x="458" y="355" type="line"/>
      <point x="458" y="383" type="line"/>
      <point x="40" y="383" type="line"/>
    </contour>
  </outline>
</glyph>
<glyph name="slashshortcomb" format="2">
  <unicode hex="0337"/>
  <anchor x="102" y="354" name="_center"/>
  <outline>
    <contour>
      <point x="40" y="304" type="line"/>
      <point x="164" y="374" type="line"/>
      <point x="164" y="403" type="line"/>
      <point x="40" y="333" type="line"/>
    </contour>
  </outline>
</glyph>
<glyph name="slashlongcomb" format="2">
  <unicode hex="0338"/>
  <anchor x="175" y="258" name="_center"/>
  <outline>
    <contour>
      <point x="40" y="-60" type="line"/>
      <point x="69" y="-60" type="line"/>
      <point x="309" y="576" type="line"/>
      <point x="280" y="576" type="line"/>
    </contour>
  </outline>
</glyph>
<glyph name="mu" format="2">
  <advance width="357"/>
  <unicode hex="03BC"/>
  <outline>
    <contour>
      <point x="60" y="-132" type="line"/>
      <point x="89" y="-132" type="line"/>
      <point x="89" y="39" type="line"/>
      <point x="86" y="38" type="line"/>
      <point x="101" y="6"/>
      <point x="125" y="-10"/>
      <point x="159" y="-10" type="curve" smooth="yes"/>
      <point x="212" y="-10"/>
      <point x="250" y="21"/>
      <point x="266" y="77" type="curve"/>
      <point x="268" y="77" type="line"/>
      <point x="269" y="0" type="line"/>
      <point x="297" y="0" type="line"/>
      <point x="297" y="516" type="line"/>
      <point x="268" y="516" type="line"/>
      <point x="268" y="209" type="line" smooth="yes"/>
      <point x="268" y="95"/>
      <point x="241" y="16"/>
      <point x="167" y="16" type="curve" smooth="yes"/>
      <point x="117" y="16"/>
      <point x="89" y="41"/>
      <point x="89" y="145" type="curve" smooth="yes"/>
      <point x="89" y="516" type="line"/>
      <point x="60" y="516" type="line"/>
    </contour>
  </outline>
</glyph>
<glyph name="pi" format="2">
  <advance width="342"/>
  <unicode hex="03C0"/>
  <outline>
    <contour>
      <point x="291" y="-5" type="curve" smooth="yes"/>
      <point x="300" y="-5"/>
      <point x="315" y="-4"/>
      <point x="326" y="0" type="curve"/>
      <point x="326" y="29" type="line"/>
      <point x="316" y="25"/>
      <point x="306" y="24"/>
      <point x="295" y="24" type="curve" smooth="yes"/>
      <point x="277" y="24"/>
      <point x="270" y="31"/>
      <point x="270" y="61" type="curve" smooth="yes"/>
      <point x="270" y="489" type="line"/>
      <point x="326" y="489" type="line"/>
      <point x="326" y="516" type="line"/>
      <point x="0" y="516" type="line"/>
      <point x="0" y="489" type="line"/>
      <point x="68" y="489" type="line"/>
      <point x="68" y="0" type="line"/>
      <point x="98" y="0" type="line"/>
      <point x="98" y="489" type="line"/>
      <point x="240" y="489" type="line"/>
      <point x="240" y="52" type="line" smooth="yes"/>
      <point x="240" y="16"/>
      <point x="254" y="-5"/>
    </contour>
  </outline>
</glyph>
<glyph name="Germandbls" format="2">
  <advance width="413"/>
  <unicode hex="1E9E"/>
  <outline>
    <contour>
      <point x="66" y="0" type="line"/>
      <point x="97" y="0" type="line"/>
      <point x="97" y="701" type="line"/>
      <point x="327" y="701" type="line"/>
      <point x="191" y="426" type="line"/>
      <point x="191" y="400" type="line"/>
      <point x="209" y="400" type="line" smooth="yes"/>
      <point x="297" y="400"/>
      <point x="356" y="351"/>
      <point x="356" y="213" type="curve" smooth="yes"/>
      <point x="356" y="101"/>
      <point x="310" y="26"/>
      <point x="199" y="26" type="curve" smooth="yes"/>
      <point x="165" y="26" type="line"/>
      <point x="165" y="0" type="line"/>
      <point x="201" y="0" type="line" smooth="yes"/>
      <point x="313" y="0"/>
      <point x="388" y="60"/>
      <point x="388" y="213" type="curve" smooth="yes"/>
      <point x="388" y="357"/>
      <point x="324" y="425"/>
      <point x="211" y="425" type="curve" smooth="yes"/>
      <point x="203" y="425" type="line"/>
      <point x="225" y="411" type="line"/>
      <point x="225" y="429" type="line"/>
      <point x="358" y="697" type="line"/>
      <point x="358" y="729" type="line"/>
      <point x="66" y="729" type="line"/>
    </contour>
  </outline>
</glyph>
<glyph name="endash" format="2">
  <advance width="374"/>
  <unicode hex="2013"/>
  <outline>
    <contour>
      <point x="42" y="246" type="line"/>
      <point x="332" y="246" type="line"/>
      <point x="332" y="271" type="line"/>
      <point x="42" y="271" type="line"/>
    </contour>
  </outline>
</glyph>
<glyph name="emdash" format="2">
  <advance width="524"/>
  <unicode hex="2014"/>
  <outline>
    <contour>
      <point x="42" y="246" type="line"/>
      <point x="482" y="246" type="line"/>
      <point x="482" y="271" type="line"/>
      <point x="42" y="271" type="line"/>
    </contour>
  </outline>
</glyph>
<glyph name="bullet" format="2">
  <advance width="192"/>
  <unicode hex="2022"/>
  <outline>
    <contour>
      <point x="96" y="213" type="curve" smooth="yes"/>
      <point x="135" y="213"/>
      <point x="161" y="240"/>
      <point x="161" y="277" type="curve" smooth="yes"/>
      <point x="161" y="315"/>
      <point x="135" y="342"/>
      <point x="96" y="342" type="curve" smooth="yes"/>
      <point x="58" y="342"/>
      <point x="30" y="315"/>
      <point x="30" y="277" type="curve" smooth="yes"/>
      <point x="30" y="240"/>
      <point x="58" y="213"/>
    </contour>
  </outline>
</glyph>
<glyph name="perthousand" format="2">
  <advance width="843"/>
  <unicode hex="2030"/>
  <outline>
    <contour>
      <point x="144" y="0" type="line"/>
      <point x="177" y="0" type="line"/>
      <point x="459" y="729" type="line"/>
      <point x="425" y="729" type="line"/>
    </contour>
    <contour>
      <point x="155" y="324" type="curve" smooth="yes"/>
      <point x="222" y="324"/>
      <point x="249" y="399"/>
      <point x="249" y="527" type="curve" smooth="yes"/>
      <point x="249" y="655"/>
      <point x="222" y="729"/>
      <point x="155" y="729" type="curve" smooth="yes"/>
      <point x="87" y="729"/>
      <point x="60" y="655"/>
      <point x="60" y="527" type="curve" smooth="yes"/>
      <point x="60" y="399"/>
      <point x="87" y="324"/>
    </contour>
    <contour>
      <point x="155" y="353" type="curve" smooth="yes"/>
      <point x="116" y="353"/>
      <point x="93" y="390"/>
      <point x="93" y="527" type="curve" smooth="yes"/>
      <point x="93" y="663"/>
      <point x="116" y="701"/>
      <point x="155" y="701" type="curve" smooth="yes"/>
      <point x="193" y="701"/>
      <point x="216" y="663"/>
      <point x="216" y="527" type="curve" smooth="yes"/>
      <point x="216" y="390"/>
      <point x="193" y="353"/>
    </contour>
    <contour>
      <point x="449" y="-6" type="curve" smooth="yes"/>
      <point x="516" y="-6"/>
      <point x="543" y="70"/>
      <point x="543" y="197" type="curve" smooth="yes"/>
      <point x="543" y="324"/>
      <point x="516" y="399"/>
      <point x="449" y="399" type="curve" smooth="yes"/>
      <point x="380" y="399"/>
      <point x="354" y="324"/>
      <point x="354" y="197" type="curve" smooth="yes"/>
      <point x="354" y="71"/>
      <point x="380" y="-6"/>
    </contour>
    <contour>
      <point x="449" y="23" type="curve" smooth="yes"/>
      <point x="410" y="23"/>
      <point x="386" y="59"/>
      <point x="386" y="197" type="curve" smooth="yes"/>
      <point x="386" y="335"/>
      <point x="410" y="372"/>
      <point x="449" y="372" type="curve" smooth="yes"/>
      <point x="486" y="372"/>
      <point x="510" y="335"/>
      <point x="510" y="197" type="curve" smooth="yes"/>
      <point x="510" y="59"/>
      <point x="486" y="23"/>
    </contour>
    <contour>
      <point x="689" y="-6" type="curve" smooth="yes"/>
      <point x="756" y="-6"/>
      <point x="783" y="70"/>
      <point x="783" y="197" type="curve" smooth="yes"/>
      <point x="783" y="324"/>
      <point x="756" y="399"/>
      <point x="689" y="399" type="curve" smooth="yes"/>
      <point x="620" y="399"/>
      <point x="594" y="324"/>
      <point x="594" y="197" type="curve" smooth="yes"/>
      <point x="594" y="71"/>
      <point x="620" y="-6"/>
    </contour>
    <contour>
      <point x="689" y="23" type="curve" smooth="yes"/>
      <point x="650" y="23"/>
      <point x="626" y="59"/>
      <point x="626" y="197" type="curve" smooth="yes"/>
      <point x="626" y="335"/>
      <point x="650" y="372"/>
      <point x="689" y="372" type="curve" smooth="yes"/>
      <point x="726" y="372"/>
      <point x="750" y="335"/>
      <point x="750" y="197" type="curve" smooth="yes"/>
      <point x="750" y="59"/>
      <point x="726" y="23"/>
    </contour>
  </outline>
</glyph>
<glyph name="guilsinglleft" format="2">
  <advance width="185"/>
  <unicode hex="2039"/>
  <outline>
    <contour>
      <point x="134" y="100" type="line"/>
      <point x="162" y="100" type="line"/>
      <point x="58" y="308" type="line"/>
      <point x="162" y="516" type="line"/>
      <point x="134" y="516" type="line"/>
      <point x="24" y="308" type="line"/>
    </contour>
  </outline>
</glyph>
<glyph name="fraction" format="2">
  <advance width="56"/>
  <unicode hex="2044"/>
  <outline>
    <contour>
      <point x="-164" y="0" type="line"/>
      <point x="-135" y="0" type="line"/>
      <point x="220" y="721" type="line"/>
      <point x="191" y="721" type="line"/>
    </contour>
  </outline>
</glyph>
<glyph name="zeroinferior" format="2">
  <advance width="293"/>
  <unicode hex="2080"/>
  <anchor x="147" y="177" name="_center"/>
  <outline>
    <contour>
      <point x="146" y="-46" type="curve" smooth="yes"/>
      <point x="220" y="-46"/>
      <point x="247" y="39"/>
      <point x="247" y="176" type="curve" smooth="yes"/>
      <point x="247" y="313"/>
      <point x="220" y="398"/>
      <point x="146" y="398" type="curve" smooth="yes"/>
      <point x="73" y="398"/>
      <point x="46" y="313"/>
      <point x="46" y="176" type="curve" smooth="yes"/>
      <point x="46" y="39"/>
      <point x="73" y="-46"/>
    </contour>
    <contour>
      <point x="146" y="-20" type="curve" smooth="yes"/>
      <point x="103" y="-20"/>
      <point x="76" y="21"/>
      <point x="76" y="176" type="curve" smooth="yes"/>
      <point x="76" y="331"/>
      <point x="103" y="372"/>
      <point x="146" y="372" type="curve" smooth="yes"/>
      <point x="190" y="372"/>
      <point x="217" y="331"/>
      <point x="217" y="176" type="curve" smooth="yes"/>
      <point x="217" y="21"/>
      <point x="190" y="-20"/>
    </contour>
  </outline>
</glyph>
<glyph name="oneinferior" format="2">
  <advance width="161"/>
  <unicode hex="2081"/>
  <anchor x="67" y="177" name="_center"/>
  <outline>
    <contour>
      <point x="71" y="-40" type="line"/>
      <point x="101" y="-40" type="line"/>
      <point x="101" y="393" type="line"/>
      <point x="73" y="393" type="line"/>
      <point x="72" y="357"/>
      <point x="58" y="334"/>
      <point x="25" y="334" type="curve" smooth="yes"/>
      <point x="13" y="334" type="line"/>
      <point x="13" y="307" type="line"/>
      <point x="71" y="307" type="line"/>
    </contour>
  </outline>
</glyph>
<glyph name="twoinferior" format="2">
  <advance width="236"/>
  <unicode hex="2082"/>
  <anchor x="120" y="177" name="_center"/>
  <outline>
    <contour>
      <point x="31" y="-40" type="line"/>
      <point x="211" y="-40" type="line"/>
      <point x="211" y="-14" type="line"/>
      <point x="65" y="-14" type="line"/>
      <point x="65" y="70"/>
      <point x="203" y="169"/>
      <point x="203" y="294" type="curve" smooth="yes"/>
      <point x="203" y="354"/>
      <point x="174" y="398"/>
      <point x="117" y="398" type="curve" smooth="yes"/>
      <point x="62" y="398"/>
      <point x="26" y="355"/>
      <point x="29" y="266" type="curve"/>
      <point x="58" y="266" type="line"/>
      <point x="57" y="330"/>
      <point x="72" y="372"/>
      <point x="117" y="372" type="curve" smooth="yes"/>
      <point x="151" y="372"/>
      <point x="174" y="347"/>
      <point x="174" y="292" type="curve" smooth="yes"/>
      <point x="174" y="172"/>
      <point x="31" y="85"/>
      <point x="31" y="-29" type="curve" smooth="yes"/>
    </contour>
  </outline>
</glyph>
<glyph name="threeinferior" format="2">
  <advance width="265"/>
  <unicode hex="2083"/>
  <anchor x="127" y="177" name="_center"/>
  <outline>
    <contour>
      <point x="128" y="-45" type="curve" smooth="yes"/>
      <point x="187" y="-45"/>
      <point x="221" y="0"/>
      <point x="221" y="78" type="curve" smooth="yes"/>
      <point x="221" y="133"/>
      <point x="202" y="172"/>
      <point x="163" y="184" type="curve"/>
      <point x="163" y="186" type="line"/>
      <point x="197" y="199"/>
      <point x="215" y="241"/>
      <point x="215" y="287" type="curve" smooth="yes"/>
      <point x="215" y="355"/>
      <point x="179" y="397"/>
      <point x="124" y="397" type="curve" smooth="yes"/>
      <point x="70" y="397"/>
      <point x="33" y="356"/>
      <point x="35" y="268" type="curve"/>
      <point x="65" y="268" type="line"/>
      <point x="63" y="331"/>
      <point x="80" y="372"/>
      <point x="123" y="372" type="curve" smooth="yes"/>
      <point x="162" y="372"/>
      <point x="186" y="339"/>
      <point x="186" y="284" type="curve" smooth="yes"/>
      <point x="186" y="237"/>
      <point x="167" y="197"/>
      <point x="126" y="197" type="curve" smooth="yes"/>
      <point x="104" y="197" type="line"/>
      <point x="104" y="171" type="line"/>
      <point x="126" y="171" type="line" smooth="yes"/>
      <point x="168" y="171"/>
      <point x="191" y="135"/>
      <point x="191" y="79" type="curve" smooth="yes"/>
      <point x="191" y="15"/>
      <point x="171" y="-20"/>
      <point x="128" y="-20" type="curve" smooth="yes"/>
      <point x="89" y="-20"/>
      <point x="63" y="11"/>
      <point x="64" y="92" type="curve"/>
      <point x="34" y="92" type="line"/>
      <point x="33" y="10"/>
      <point x="60" y="-45"/>
    </contour>
  </outline>
</glyph>
<glyph name="fourinferior" format="2">
  <advance width="255"/>
  <unicode hex="2084"/>
  <anchor x="121" y="177" name="_center"/>
  <outline>
    <contour>
      <point x="160" y="-40" type="line"/>
      <point x="189" y="-40" type="line"/>
      <point x="189" y="393" type="line"/>
      <point x="150" y="393" type="line"/>
      <point x="10" y="98" type="line"/>
      <point x="10" y="74" type="line"/>
      <point x="232" y="74" type="line"/>
      <point x="232" y="100" type="line"/>
      <point x="39" y="100" type="line"/>
      <point x="161" y="360" type="line"/>
      <point x="160" y="360" type="line"/>
    </contour>
  </outline>
</glyph>
<glyph name="fiveinferior" format="2">
  <advance width="271"/>
  <unicode hex="2085"/>
  <anchor x="142" y="177" name="_center"/>
  <outline>
    <contour>
      <point x="143" y="-45" type="curve" smooth="yes"/>
      <point x="202" y="-45"/>
      <point x="235" y="1"/>
      <point x="235" y="102" type="curve" smooth="yes"/>
      <point x="235" y="191"/>
      <point x="210" y="242"/>
      <point x="148" y="242" type="curve" smooth="yes"/>
      <point x="119" y="242"/>
      <point x="97" y="227"/>
      <point x="85" y="202" type="curve"/>
      <point x="83" y="202" type="line"/>
      <point x="89" y="366" type="line"/>
      <point x="232" y="366" type="line"/>
      <point x="232" y="393" type="line"/>
      <point x="62" y="393" type="line"/>
      <point x="54" y="147" type="line"/>
      <point x="84" y="147" type="line"/>
      <point x="90" y="195"/>
      <point x="111" y="217"/>
      <point x="144" y="217" type="curve" smooth="yes"/>
      <point x="182" y="217"/>
      <point x="205" y="188"/>
      <point x="205" y="101" type="curve" smooth="yes"/>
      <point x="205" y="17"/>
      <point x="186" y="-20"/>
      <point x="143" y="-20" type="curve" smooth="yes"/>
      <point x="106" y="-20"/>
      <point x="77" y="8"/>
      <point x="78" y="92" type="curve"/>
      <point x="49" y="92" type="line"/>
      <point x="49" y="10"/>
      <point x="76" y="-45"/>
    </contour>
  </outline>
</glyph>
<glyph name="sixinferior" format="2">
  <advance width="281"/>
  <unicode hex="2086"/>
  <anchor x="143" y="177" name="_center"/>
  <outline>
    <contour>
      <point x="147" y="-46" type="curve" smooth="yes"/>
      <point x="203" y="-46"/>
      <point x="239" y="-9"/>
      <point x="239" y="99" type="curve" smooth="yes"/>
      <point x="239" y="184"/>
      <point x="217" y="239"/>
      <point x="152" y="239" type="curve" smooth="yes"/>
      <point x="119" y="239"/>
      <point x="88" y="218"/>
      <point x="78" y="163" type="curve"/>
      <point x="75" y="163" type="line"/>
      <point x="77" y="304"/>
      <point x="89" y="372"/>
      <point x="145" y="372" type="curve" smooth="yes"/>
      <point x="177" y="372"/>
      <point x="196" y="353"/>
      <point x="202" y="289" type="curve"/>
      <point x="230" y="289" type="line"/>
      <point x="224" y="361"/>
      <point x="198" y="398"/>
      <point x="145" y="398" type="curve" smooth="yes"/>
      <point x="82" y="398"/>
      <point x="44" y="345"/>
      <point x="47" y="150" type="curve" smooth="yes"/>
      <point x="49" y="26"/>
      <point x="70" y="-46"/>
    </contour>
    <contour>
      <point x="147" y="-20" type="curve" smooth="yes"/>
      <point x="109" y="-20"/>
      <point x="83" y="12"/>
      <point x="83" y="95" type="curve" smooth="yes"/>
      <point x="83" y="166"/>
      <point x="103" y="215"/>
      <point x="147" y="215" type="curve" smooth="yes"/>
      <point x="184" y="215"/>
      <point x="209" y="192"/>
      <point x="209" y="99" type="curve" smooth="yes"/>
      <point x="209" y="28"/>
      <point x="197" y="-20"/>
    </contour>
  </outline>
</glyph>
<glyph name="seveninferior" format="2">
  <advance width="219"/>
  <unicode hex="2087"/>
  <anchor x="114" y="177" name="_center"/>
  <outline>
    <contour>
      <point x="82" y="-40" type="curve"/>
      <point x="113" y="-40" type="line"/>
      <point x="113" y="85"/>
      <point x="136" y="198"/>
      <point x="212" y="368" type="curve"/>
      <point x="212" y="393" type="line"/>
      <point x="15" y="393" type="line"/>
      <point x="15" y="268" type="line"/>
      <point x="41" y="268" type="line"/>
      <point x="41" y="365" type="line"/>
      <point x="180" y="365" type="line"/>
      <point x="115" y="217"/>
      <point x="82" y="98"/>
    </contour>
  </outline>
</glyph>
<glyph name="eightinferior" format="2">
  <advance width="285"/>
  <unicode hex="2088"/>
  <anchor x="142" y="177" name="_center"/>
  <outline>
    <contour>
      <point x="142" y="-45" type="curve" smooth="yes"/>
      <point x="202" y="-45"/>
      <point x="242" y="-5"/>
      <point x="242" y="77" type="curve" smooth="yes"/>
      <point x="242" y="130"/>
      <point x="219" y="172"/>
      <point x="177" y="183" type="curve"/>
      <point x="177" y="186" type="line"/>
      <point x="217" y="199"/>
      <point x="236" y="241"/>
      <point x="236" y="287" type="curve" smooth="yes"/>
      <point x="236" y="353"/>
      <point x="202" y="397"/>
      <point x="142" y="397" type="curve" smooth="yes"/>
      <point x="86" y="397"/>
      <point x="48" y="357"/>
      <point x="48" y="287" type="curve" smooth="yes"/>
      <point x="48" y="241"/>
      <point x="67" y="199"/>
      <point x="107" y="186" type="curve"/>
      <point x="107" y="183" type="line"/>
      <point x="68" y="173"/>
      <point x="42" y="134"/>
      <point x="42" y="77" type="curve" smooth="yes"/>
      <point x="42" y="4"/>
      <point x="75" y="-45"/>
    </contour>
    <contour>
      <point x="142" y="-20" type="curve" smooth="yes"/>
      <point x="101" y="-20"/>
      <point x="72" y="7"/>
      <point x="72" y="79" type="curve" smooth="yes"/>
      <point x="72" y="135"/>
      <point x="94" y="172"/>
      <point x="142" y="172" type="curve" smooth="yes"/>
      <point x="185" y="172"/>
      <point x="212" y="141"/>
      <point x="212" y="79" type="curve" smooth="yes"/>
      <point x="212" y="20"/>
      <point x="192" y="-20"/>
    </contour>
    <contour>
      <point x="142" y="197" type="curve" smooth="yes"/>
      <point x="103" y="197"/>
      <point x="77" y="228"/>
      <point x="77" y="285" type="curve" smooth="yes"/>
      <point x="77" y="336"/>
      <point x="97" y="372"/>
      <point x="142" y="372" type="curve" smooth="yes"/>
      <point x="181" y="372"/>
      <point x="207" y="344"/>
      <point x="207" y="285" type="curve" smooth="yes"/>
      <point x="207" y="230"/>
      <point x="183" y="197"/>
    </contour>
  </outline>
</glyph>
<glyph name="peseta" format="2">
  <advance width="855"/>
  <unicode hex="20A7"/>
  <outline>
    <contour>
      <point x="78" y="0" type="line"/>
      <point x="109" y="0" type="line"/>
      <point x="109" y="711" type="line"/>
      <point x="96" y="701" type="line"/>
      <point x="173" y="701" type="line" smooth="yes"/>
      <point x="256" y="701"/>
      <point x="309" y="651"/>
      <point x="309" y="522" type="curve" smooth="yes"/>
      <point x="309" y="391"/>
      <point x="255" y="343"/>
      <point x="173" y="343" type="curve" smooth="yes"/>
      <point x="102" y="343" type="line"/>
      <point x="102" y="315" type="line"/>
      <point x="175" y="315" type="line" smooth="yes"/>
      <point x="293" y="315"/>
      <point x="342" y="398"/>
      <point x="342" y="522" type="curve" smooth="yes"/>
      <point x="342" y="646"/>
      <point x="292" y="729"/>
      <point x="175" y="729" type="curve" smooth="yes"/>
      <point x="78" y="729" type="line"/>
    </contour>
    <contour>
      <point x="504" y="0" type="curve" smooth="yes"/>
      <point x="538" y="0" type="line"/>
      <point x="538" y="29" type="line"/>
      <point x="509" y="29" type="line" smooth="yes"/>
      <point x="490" y="29"/>
      <point x="482" y="38"/>
      <point x="482" y="54" type="curve" smooth="yes"/>
      <point x="482" y="492" type="line"/>
      <point x="538" y="492" type="line"/>
      <point x="538" y="516" type="line"/>
      <point x="482" y="516" type="line"/>
      <point x="482" y="700" type="line"/>
      <point x="454" y="697" type="line"/>
      <point x="454" y="516" type="line"/>
      <point x="409" y="516" type="line"/>
      <point x="409" y="492" type="line"/>
      <point x="454" y="492" type="line"/>
      <point x="454" y="48" type="line" smooth="yes"/>
      <point x="454" y="10"/>
      <point x="477" y="0"/>
    </contour>
    <contour>
      <point x="708" y="-10" type="curve" smooth="yes"/>
      <point x="772" y="-10"/>
      <point x="816" y="35"/>
      <point x="816" y="117" type="curve" smooth="yes"/>
      <point x="816" y="207"/>
      <point x="773" y="242"/>
      <point x="719" y="279" type="curve" smooth="yes"/>
      <point x="673" y="310"/>
      <point x="633" y="340"/>
      <point x="633" y="409" type="curve" smooth="yes"/>
      <point x="633" y="461"/>
      <point x="650" y="496"/>
      <point x="702" y="496" type="curve" smooth="yes"/>
      <point x="761" y="496"/>
      <point x="780" y="449"/>
      <point x="782" y="366" type="curve"/>
      <point x="810" y="366" type="line"/>
      <point x="811" y="488"/>
      <point x="766" y="525"/>
      <point x="703" y="525" type="curve" smooth="yes"/>
      <point x="646" y="525"/>
      <point x="604" y="493"/>
      <point x="604" y="410" type="curve" smooth="yes"/>
      <point x="604" y="329"/>
      <point x="643" y="293"/>
      <point x="695" y="257" type="curve" smooth="yes"/>
      <point x="744" y="223"/>
      <point x="787" y="192"/>
      <point x="787" y="118" type="curve" smooth="yes"/>
      <point x="787" y="59"/>
      <point x="762" y="19"/>
      <point x="708" y="19" type="curve" smooth="yes"/>
      <point x="640" y="19"/>
      <point x="618" y="77"/>
      <point x="618" y="160" type="curve"/>
      <point x="590" y="160" type="line"/>
      <point x="590" y="38"/>
      <point x="639" y="-10"/>
    </contour>
  </outline>
</glyph>
<glyph name="won" format="2">
  <advance width="607"/>
  <unicode hex="20A9"/>
  <outline>
    <contour>
      <point x="153" y="0" type="line"/>
      <point x="204" y="0" type="line"/>
      <point x="259" y="367" type="line"/>
      <point x="300" y="691" type="line"/>
      <point x="306" y="691" type="line"/>
      <point x="348" y="364" type="line"/>
      <point x="402" y="0" type="line"/>
      <point x="454" y="0" type="line"/>
      <point x="557" y="729" type="line"/>
      <point x="524" y="729" type="line"/>
      <point x="471" y="361" type="line"/>
      <point x="432" y="33" type="line"/>
      <point x="427" y="33" type="line"/>
      <point x="384" y="363" type="line"/>
      <point x="329" y="729" type="line"/>
      <point x="277" y="729" type="line"/>
      <point x="222" y="363" type="line"/>
      <point x="180" y="33" type="line"/>
      <point x="175" y="33" type="line"/>
      <point x="135" y="364" type="line"/>
      <point x="83" y="729" type="line"/>
      <point x="49" y="729" type="line"/>
    </contour>
    <contour>
      <point x="26" y="350" type="line"/>
      <point x="581" y="350" type="line"/>
      <point x="581" y="379" type="line"/>
      <point x="26" y="379" type="line"/>
    </contour>
  </outline>
</glyph>
<glyph name="sheqel" format="2">
  <advance width="595"/>
  <unicode hex="20AA"/>
  <outline>
    <contour>
      <point x="214" y="0" type="line"/>
      <point x="458" y="0" type="line" smooth="yes"/>
      <point x="499" y="0"/>
      <point x="518" y="17"/>
      <point x="518" y="61" type="curve" smooth="yes"/>
      <point x="518" y="729" type="line"/>
      <point x="486" y="729" type="line"/>
      <point x="486" y="30" type="line"/>
      <point x="246" y="30" type="line"/>
      <point x="246" y="571" type="line"/>
      <point x="214" y="571" type="line"/>
    </contour>
    <contour>
      <point x="78" y="0" type="line"/>
      <point x="110" y="0" type="line"/>
      <point x="110" y="699" type="line"/>
      <point x="350" y="699" type="line"/>
      <point x="350" y="158" type="line"/>
      <point x="382" y="158" type="line"/>
      <point x="382" y="668" type="line" smooth="yes"/>
      <point x="382" y="712"/>
      <point x="363" y="729"/>
      <point x="322" y="729" type="curve" smooth="yes"/>
      <point x="78" y="729" type="line"/>
    </contour>
  </outline>
</glyph>
<glyph name="euro" format="2">
  <advance width="447"/>
  <unicode hex="20AC"/>
  <outline>
    <contour>
      <point x="242" y="-10" type="curve" smooth="yes"/>
      <point x="331" y="-10"/>
      <point x="393" y="39"/>
      <point x="404" y="234" type="curve"/>
      <point x="372" y="234" type="line"/>
      <point x="362" y="88"/>
      <point x="329" y="19"/>
      <point x="241" y="19" type="curve" smooth="yes"/>
      <point x="137" y="19"/>
      <point x="110" y="159"/>
      <point x="110" y="364" type="curve" smooth="yes"/>
      <point x="110" y="570"/>
      <point x="137" y="709"/>
      <point x="242" y="709" type="curve" smooth="yes"/>
      <point x="325" y="709"/>
      <point x="361" y="650"/>
      <point x="372" y="495" type="curve"/>
      <point x="404" y="495" type="line"/>
      <point x="396" y="641"/>
      <point x="363" y="738"/>
      <point x="244" y="738" type="curve" smooth="yes"/>
      <point x="146" y="738"/>
      <point x="77" y="668"/>
      <point x="77" y="364" type="curve" smooth="yes"/>
      <point x="77" y="65"/>
      <point x="145" y="-10"/>
    </contour>
    <contour>
      <point x="26" y="280" type="line"/>
      <point x="242" y="280" type="line"/>
      <point x="246" y="309" type="line"/>
      <point x="26" y="309" type="line"/>
    </contour>
    <contour>
      <point x="26" y="420" type="line"/>
      <point x="263" y="420" type="line"/>
      <point x="267" y="448" type="line"/>
      <point x="26" y="448" type="line"/>
    </contour>
  </outline>
</glyph>
<glyph name="tenge" format="2">
  <advance width="356"/>
  <unicode hex="20B8"/>
  <outline>
    <contour>
      <point x="163" y="578" type="line"/>
      <point x="163" y="0" type="line"/>
      <point x="194" y="0" type="line"/>
      <point x="194" y="578" type="line"/>
    </contour>
    <contour>
      <point x="336" y="570" type="line"/>
      <point x="336" y="599" type="line"/>
      <point x="21" y="599" type="line"/>
      <point x="21" y="570" type="line"/>
    </contour>
    <contour>
      <point x="336" y="700" type="line"/>
      <point x="336" y="729" type="line"/>
      <point x="21" y="729" type="line"/>
      <point x="21" y="700" type="line"/>
    </contour>
  </outline>
</glyph>
<glyph name="rupeeIndian" format="2">
  <advance width="409"/>
  <unicode hex="20B9"/>
  <outline>
    <contour>
      <point x="276" y="0" type="line"/>
      <point x="308" y="0" type="line"/>
      <point x="277" y="212" type="line" smooth="yes"/>
      <point x="267" y="277"/>
      <point x="237" y="324"/>
      <point x="187" y="338" type="curve"/>
      <point x="187" y="344" type="line"/>
      <point x="265" y="365"/>
      <point x="313" y="432"/>
      <point x="317" y="513" type="curve"/>
      <point x="388" y="513" type="line"/>
      <point x="388" y="539" type="line"/>
      <point x="317" y="539" type="line"/>
      <point x="315" y="614"/>
      <point x="277" y="676"/>
      <point x="227" y="699" type="curve"/>
      <point x="227" y="701" type="line"/>
      <point x="388" y="701" type="line"/>
      <point x="388" y="729" type="line"/>
      <point x="30" y="729" type="line"/>
      <point x="30" y="701" type="line"/>
      <point x="127" y="701" type="line" smooth="yes"/>
      <point x="210" y="701"/>
      <point x="283" y="653"/>
      <point x="284" y="539" type="curve"/>
      <point x="30" y="539" type="line"/>
      <point x="30" y="513" type="line"/>
      <point x="284" y="513" type="line"/>
      <point x="279" y="416"/>
      <point x="215" y="354"/>
      <point x="108" y="354" type="curve" smooth="yes"/>
      <point x="30" y="354" type="line"/>
      <point x="30" y="327" type="line"/>
      <point x="117" y="327" type="line" smooth="yes"/>
      <point x="184" y="327"/>
      <point x="235" y="294"/>
      <point x="247" y="208" type="curve" smooth="yes"/>
    </contour>
  </outline>
</glyph>
<glyph name="liraTurkish" format="2">
  <advance width="432"/>
  <unicode hex="20BA"/>
  <outline>
    <contour>
      <point x="129" y="0" type="line"/>
      <point x="154" y="0" type="line" smooth="yes"/>
      <point x="312" y="0"/>
      <point x="409" y="126"/>
      <point x="406" y="316" type="curve"/>
      <point x="374" y="316" type="line"/>
      <point x="375" y="147"/>
      <point x="298" y="32"/>
      <point x="161" y="29" type="curve"/>
      <point x="161" y="729" type="line"/>
      <point x="129" y="729" type="line"/>
    </contour>
    <contour>
      <point x="26" y="288" type="line"/>
      <point x="317" y="403" type="line"/>
      <point x="317" y="436" type="line"/>
      <point x="26" y="320" type="line"/>
    </contour>
    <contour>
      <point x="26" y="446" type="line"/>
      <point x="317" y="562" type="line"/>
      <point x="317" y="594" type="line"/>
      <point x="26" y="477" type="line"/>
    </contour>
  </outline>
</glyph>
<glyph name="literSign" format="2">
  <advance width="364"/>
  <unicode hex="2113"/>
  <outline>
    <contour>
      <point x="201" y="-9" type="curve" smooth="yes"/>
      <point x="259" y="-9"/>
      <point x="303" y="35"/>
      <point x="329" y="117" type="curve"/>
      <point x="299" y="125" type="line"/>
      <point x="277" y="57"/>
      <point x="244" y="23"/>
      <point x="201" y="23" type="curve" smooth="yes"/>
      <point x="139" y="23"/>
      <point x="104" y="145"/>
      <point x="104" y="389" type="curve" smooth="yes"/>
      <point x="104" y="583"/>
      <point x="144" y="706"/>
      <point x="203" y="706" type="curve" smooth="yes"/>
      <point x="248" y="706"/>
      <point x="273" y="650"/>
      <point x="273" y="537" type="curve" smooth="yes"/>
      <point x="273" y="320"/>
      <point x="180" y="168"/>
      <point x="26" y="136" type="curve"/>
      <point x="26" y="104" type="line"/>
      <point x="198" y="136"/>
      <point x="303" y="301"/>
      <point x="303" y="537" type="curve" smooth="yes"/>
      <point x="303" y="668"/>
      <point x="269" y="738"/>
      <point x="203" y="738" type="curve" smooth="yes"/>
      <point x="121" y="738"/>
      <point x="74" y="605"/>
      <point x="74" y="389" type="curve" smooth="yes"/>
      <point x="74" y="123"/>
      <point x="114" y="-9"/>
    </contour>
  </outline>
</glyph>
<glyph name="numero" format="2">
  <advance width="687"/>
  <unicode hex="2116"/>
  <outline>
    <contour>
      <point x="78" y="0" type="line"/>
      <point x="109" y="0" type="line"/>
      <point x="109" y="410" type="line"/>
      <point x="106" y="685" type="line"/>
      <point x="112" y="685" type="line"/>
      <point x="342" y="0" type="line"/>
      <point x="392" y="0" type="line"/>
      <point x="392" y="729" type="line"/>
      <point x="361" y="729" type="line"/>
      <point x="361" y="328" type="line"/>
      <point x="364" y="39" type="line"/>
      <point x="359" y="39" type="line"/>
      <point x="128" y="729" type="line"/>
      <point x="78" y="729" type="line"/>
    </contour>
    <contour>
      <point x="471" y="243" type="line"/>
      <point x="627" y="243" type="line"/>
      <point x="627" y="273" type="line"/>
      <point x="471" y="273" type="line"/>
    </contour>
    <contour>
      <point x="549" y="324" type="curve" smooth="yes"/>
      <point x="616" y="324"/>
      <point x="643" y="399"/>
      <point x="643" y="527" type="curve" smooth="yes"/>
      <point x="643" y="655"/>
      <point x="616" y="729"/>
      <point x="549" y="729" type="curve" smooth="yes"/>
      <point x="481" y="729"/>
      <point x="454" y="655"/>
      <point x="454" y="527" type="curve" smooth="yes"/>
      <point x="454" y="399"/>
      <point x="481" y="324"/>
    </contour>
    <contour>
      <point x="549" y="353" type="curve" smooth="yes"/>
      <point x="510" y="353"/>
      <point x="487" y="390"/>
      <point x="487" y="527" type="curve" smooth="yes"/>
      <point x="487" y="663"/>
      <point x="510" y="701"/>
      <point x="549" y="701" type="curve" smooth="yes"/>
      <point x="587" y="701"/>
      <point x="610" y="663"/>
      <point x="610" y="527" type="curve" smooth="yes"/>
      <point x="610" y="390"/>
      <point x="587" y="353"/>
    </contour>
  </outline>
</glyph>
<glyph name="trademark" format="2">
  <advance width="588"/>
  <unicode hex="2122"/>
  <outline>
    <contour>
      <point x="277" y="419" type="line"/>
      <point x="303" y="419" type="line"/>
      <point x="303" y="573" type="line"/>
      <point x="302" y="693" type="line"/>
      <point x="304" y="693" type="line"/>
      <point x="376" y="419" type="line"/>
      <point x="409" y="419" type="line"/>
      <point x="482" y="693" type="line"/>
      <point x="484" y="693" type="line"/>
      <point x="482" y="573" type="line"/>
      <point x="482" y="419" type="line"/>
      <point x="510" y="419" type="line"/>
      <point x="510" y="729" type="line"/>
      <point x="465" y="729" type="line"/>
      <point x="393" y="453" type="line"/>
      <point x="391" y="453" type="line"/>
      <point x="320" y="729" type="line"/>
      <point x="277" y="729" type="line"/>
    </contour>
    <contour>
      <point x="103" y="419" type="line"/>
      <point x="130" y="419" type="line"/>
      <point x="130" y="704" type="line"/>
      <point x="219" y="704" type="line"/>
      <point x="219" y="729" type="line"/>
      <point x="19" y="729" type="line"/>
      <point x="19" y="704" type="line"/>
      <point x="103" y="704" type="line"/>
    </contour>
  </outline>
</glyph>
<glyph name="leftArrow" format="2">
  <advance width="669"/>
  <unicode hex="2190"/>
  <outline>
    <contour>
      <point x="599" y="380" type="line"/>
      <point x="109" y="380" type="line"/>
      <point x="221" y="533" type="line"/>
      <point x="184" y="533" type="line"/>
      <point x="60" y="365" type="line"/>
      <point x="184" y="197" type="line"/>
      <point x="221" y="197" type="line"/>
      <point x="109" y="350" type="line"/>
      <point x="599" y="350" type="line"/>
    </contour>
  </outline>
</glyph>
<glyph name="upArrow" format="2">
  <advance width="476"/>
  <unicode hex="2191"/>
  <outline>
    <contour>
      <point x="223" y="95" type="line"/>
      <point x="253" y="95" type="line"/>
      <point x="253" y="585" type="line"/>
      <point x="406" y="473" type="line"/>
      <point x="406" y="510" type="line"/>
      <point x="238" y="634" type="line"/>
      <point x="70" y="510" type="line"/>
      <point x="70" y="473" type="line"/>
      <point x="223" y="585" type="line"/>
    </contour>
  </outline>
</glyph>
<glyph name="rightArrow" format="2">
  <advance width="669"/>
  <unicode hex="2192"/>
  <outline>
    <contour>
      <point x="70" y="380" type="line"/>
      <point x="70" y="350" type="line"/>
      <point x="560" y="350" type="line"/>
      <point x="448" y="197" type="line"/>
      <point x="485" y="197" type="line"/>
      <point x="609" y="365" type="line"/>
      <point x="485" y="533" type="line"/>
      <point x="448" y="533" type="line"/>
      <point x="560" y="380" type="line"/>
    </contour>
  </outline>
</glyph>
<glyph name="downArrow" format="2">
  <advance width="476"/>
  <unicode hex="2193"/>
  <outline>
    <contour>
      <point x="223" y="634" type="line"/>
      <point x="223" y="144" type="line"/>
      <point x="70" y="256" type="line"/>
      <point x="70" y="219" type="line"/>
      <point x="238" y="95" type="line"/>
      <point x="406" y="219" type="line"/>
      <point x="406" y="256" type="line"/>
      <point x="253" y="144" type="line"/>
      <point x="253" y="634" type="line"/>
    </contour>
  </outline>
</glyph>
<glyph name="leftRightArrow" format="2">
  <advance width="749"/>
  <unicode hex="2194"/>
  <outline>
    <contour>
      <point x="184" y="197" type="line"/>
      <point x="221" y="197" type="line"/>
      <point x="109" y="350" type="line"/>
      <point x="640" y="350" type="line"/>
      <point x="528" y="197" type="line"/>
      <point x="565" y="197" type="line"/>
      <point x="689" y="365" type="line"/>
      <point x="565" y="533" type="line"/>
      <point x="528" y="533" type="line"/>
      <point x="640" y="380" type="line"/>
      <point x="109" y="380" type="line"/>
      <point x="221" y="533" type="line"/>
      <point x="184" y="533" type="line"/>
      <point x="60" y="365" type="line"/>
    </contour>
  </outline>
</glyph>
<glyph name="emptyset" format="2">
  <advance width="755"/>
  <unicode hex="2205"/>
  <outline>
    <contour>
      <point x="378" y="0" type="curve" smooth="yes"/>
      <point x="574" y="0"/>
      <point x="737" y="151"/>
      <point x="737" y="366" type="curve" smooth="yes"/>
      <point x="737" y="578"/>
      <point x="574" y="729"/>
      <point x="378" y="729" type="curve" smooth="yes"/>
      <point x="180" y="729"/>
      <point x="18" y="578"/>
      <point x="18" y="366" type="curve" smooth="yes"/>
      <point x="18" y="151"/>
      <point x="180" y="0"/>
    </contour>
    <contour>
      <point x="378" y="28" type="curve" smooth="yes"/>
      <point x="264" y="28"/>
      <point x="162" y="87"/>
      <point x="103" y="181" type="curve"/>
      <point x="667" y="524" type="line"/>
      <point x="691" y="478"/>
      <point x="704" y="424"/>
      <point x="704" y="366" type="curve" smooth="yes"/>
      <point x="704" y="171"/>
      <point x="554" y="28"/>
    </contour>
    <contour>
      <point x="88" y="207" type="line"/>
      <point x="64" y="254"/>
      <point x="51" y="308"/>
      <point x="51" y="366" type="curve" smooth="yes"/>
      <point x="51" y="560"/>
      <point x="201" y="701"/>
      <point x="378" y="701" type="curve" smooth="yes"/>
      <point x="491" y="701"/>
      <point x="593" y="643"/>
      <point x="651" y="551" type="curve"/>
    </contour>
  </outline>
</glyph>
<glyph name="product" format="2">
  <advance width="414"/>
  <unicode hex="220F"/>
  <outline>
    <contour>
      <point x="60" y="-151" type="line"/>
      <point x="91" y="-151" type="line"/>
      <point x="91" y="699" type="line"/>
      <point x="324" y="699" type="line"/>
      <point x="324" y="-151" type="line"/>
      <point x="354" y="-151" type="line"/>
      <point x="354" y="729" type="line"/>
      <point x="60" y="729" type="line"/>
    </contour>
  </outline>
</glyph>
<glyph name="summation" format="2">
  <advance width="321"/>
  <unicode hex="2211"/>
  <outline>
    <contour>
      <point x="7" y="-151" type="line"/>
      <point x="323" y="-151" type="line"/>
      <point x="323" y="-122" type="line"/>
      <point x="154" y="-122" type="line"/>
      <point x="39" y="-122" type="line"/>
      <point x="39" y="-119" type="line"/>
      <point x="223" y="289" type="line"/>
      <point x="39" y="697" type="line"/>
      <point x="39" y="700" type="line"/>
      <point x="154" y="700" type="line"/>
      <point x="323" y="700" type="line"/>
      <point x="323" y="729" type="line"/>
      <point x="7" y="729" type="line"/>
      <point x="7" y="694" type="line"/>
      <point x="186" y="291" type="line"/>
      <point x="186" y="288" type="line"/>
      <point x="7" y="-116" type="line"/>
    </contour>
  </outline>
</glyph>
<glyph name="minus" format="2">
  <advance width="480"/>
  <unicode hex="2212"/>
  <outline>
    <contour>
      <point x="47" y="347" type="line"/>
      <point x="433" y="347" type="line"/>
      <point x="433" y="375" type="line"/>
      <point x="47" y="375" type="line"/>
    </contour>
  </outline>
</glyph>
<glyph name="radical" format="2">
  <advance width="406"/>
  <unicode hex="221A"/>
  <outline>
    <contour>
      <point x="167" y="-151" type="line"/>
      <point x="203" y="-151" type="line"/>
      <point x="406" y="729" type="line"/>
      <point x="376" y="729" type="line"/>
      <point x="185" y="-100" type="line"/>
      <point x="183" y="-100" type="line"/>
      <point x="77" y="369" type="line"/>
      <point x="-4" y="369" type="line"/>
      <point x="-4" y="335" type="line"/>
      <point x="53" y="335" type="line"/>
    </contour>
  </outline>
</glyph>
<glyph name="infinity" format="2">
  <advance width="795"/>
  <unicode hex="221E"/>
  <outline>
    <contour>
      <point x="198" y="189" type="curve" smooth="yes"/>
      <point x="293" y="189"/>
      <point x="350" y="262"/>
      <point x="399" y="342" type="curve"/>
      <point x="452" y="254"/>
      <point x="506" y="189"/>
      <point x="601" y="189" type="curve" smooth="yes"/>
      <point x="705" y="189"/>
      <point x="763" y="274"/>
      <point x="763" y="363" type="curve" smooth="yes"/>
      <point x="763" y="456"/>
      <point x="705" y="540"/>
      <point x="601" y="540" type="curve" smooth="yes"/>
      <point x="502" y="540"/>
      <point x="448" y="466"/>
      <point x="399" y="388" type="curve"/>
      <point x="350" y="466"/>
      <point x="295" y="540"/>
      <point x="197" y="540" type="curve" smooth="yes"/>
      <point x="94" y="540"/>
      <point x="32" y="458"/>
      <point x="32" y="363" type="curve" smooth="yes"/>
      <point x="32" y="266"/>
      <point x="93" y="189"/>
    </contour>
    <contour>
      <point x="197" y="218" type="curve" smooth="yes"/>
      <point x="116" y="218"/>
      <point x="60" y="275"/>
      <point x="60" y="364" type="curve" smooth="yes"/>
      <point x="60" y="450"/>
      <point x="115" y="512"/>
      <point x="196" y="512" type="curve" smooth="yes"/>
      <point x="271" y="512"/>
      <point x="316" y="462"/>
      <point x="381" y="365" type="curve"/>
      <point x="314" y="261"/>
      <point x="264" y="218"/>
    </contour>
    <contour>
      <point x="601" y="218" type="curve" smooth="yes"/>
      <point x="526" y="218"/>
      <point x="482" y="266"/>
      <point x="416" y="365" type="curve"/>
      <point x="481" y="463"/>
      <point x="527" y="512"/>
      <point x="601" y="512" type="curve" smooth="yes"/>
      <point x="682" y="512"/>
      <point x="737" y="448"/>
      <point x="737" y="364" type="curve" smooth="yes"/>
      <point x="737" y="282"/>
      <point x="682" y="218"/>
    </contour>
  </outline>
</glyph>
<glyph name="integral" format="2">
  <advance width="264"/>
  <unicode hex="222B"/>
  <outline>
    <contour>
      <point x="-7" y="-151" type="line"/>
      <point x="107" y="-151" type="line" smooth="yes"/>
      <point x="140" y="-151"/>
      <point x="148" y="-129"/>
      <point x="148" y="-106" type="curve" smooth="yes"/>
      <point x="148" y="699" type="line"/>
      <point x="271" y="699" type="line"/>
      <point x="271" y="729" type="line"/>
      <point x="155" y="729" type="line" smooth="yes"/>
      <point x="131" y="729"/>
      <point x="117" y="712"/>
      <point x="117" y="680" type="curve" smooth="yes"/>
      <point x="117" y="-122" type="line"/>
      <point x="-7" y="-122" type="line"/>
    </contour>
  </outline>
</glyph>
<glyph name="approxequal" format="2">
  <advance width="480"/>
  <unicode hex="2248"/>
  <outline>
    <contour>
      <point x="311" y="217" type="curve" smooth="yes"/>
      <point x="356" y="217"/>
      <point x="394" y="243"/>
      <point x="389" y="317" type="curve"/>
      <point x="359" y="317" type="line"/>
      <point x="360" y="274"/>
      <point x="342" y="253"/>
      <point x="311" y="253" type="curve" smooth="yes"/>
      <point x="263" y="253"/>
      <point x="212" y="301"/>
      <point x="163" y="301" type="curve" smooth="yes"/>
      <point x="131" y="301"/>
      <point x="86" y="284"/>
      <point x="92" y="205" type="curve"/>
      <point x="123" y="205" type="line"/>
      <point x="120" y="241"/>
      <point x="134" y="266"/>
      <point x="161" y="266" type="curve" smooth="yes"/>
      <point x="200" y="266"/>
      <point x="257" y="217"/>
    </contour>
    <contour>
      <point x="311" y="424" type="curve" smooth="yes"/>
      <point x="361" y="424"/>
      <point x="394" y="455"/>
      <point x="389" y="523" type="curve"/>
      <point x="359" y="523" type="line"/>
      <point x="360" y="481"/>
      <point x="342" y="460"/>
      <point x="311" y="460" type="curve" smooth="yes"/>
      <point x="263" y="460"/>
      <point x="212" y="508"/>
      <point x="163" y="508" type="curve" smooth="yes"/>
      <point x="131" y="508"/>
      <point x="86" y="490"/>
      <point x="92" y="411" type="curve"/>
      <point x="123" y="411" type="line"/>
      <point x="120" y="448"/>
      <point x="134" y="473"/>
      <point x="161" y="473" type="curve" smooth="yes"/>
      <point x="200" y="473"/>
      <point x="257" y="424"/>
    </contour>
  </outline>
</glyph>
<glyph name="notequal" format="2">
  <advance width="480"/>
  <unicode hex="2260"/>
  <outline>
    <contour>
      <point x="124" y="101" type="line"/>
      <point x="155" y="101" type="line"/>
      <point x="356" y="630" type="line"/>
      <point x="325" y="630" type="line"/>
    </contour>
    <contour>
      <point x="47" y="247" type="line"/>
      <point x="433" y="247" type="line"/>
      <point x="433" y="275" type="line"/>
      <point x="47" y="275" type="line"/>
    </contour>
    <contour>
      <point x="47" y="447" type="line"/>
      <point x="433" y="447" type="line"/>
      <point x="433" y="475" type="line"/>
      <point x="47" y="475" type="line"/>
    </contour>
  </outline>
</glyph>
<glyph name="lessequal" format="2">
  <advance width="480"/>
  <unicode hex="2264"/>
  <outline>
    <contour>
      <point x="452" y="145" type="line"/>
      <point x="452" y="177" type="line"/>
      <point x="52" y="359" type="line"/>
      <point x="52" y="363" type="line"/>
      <point x="452" y="545" type="line"/>
      <point x="452" y="577" type="line"/>
      <point x="21" y="383" type="line"/>
      <point x="21" y="339" type="line"/>
    </contour>
    <contour>
      <point x="21" y="0" type="line"/>
      <point x="452" y="0" type="line"/>
      <point x="452" y="28" type="line"/>
      <point x="21" y="28" type="line"/>
    </contour>
  </outline>
</glyph>
<glyph name="greaterequal" format="2">
  <advance width="480"/>
  <unicode hex="2265"/>
  <outline>
    <contour>
      <point x="28" y="145" type="line"/>
      <point x="459" y="339" type="line"/>
      <point x="459" y="383" type="line"/>
      <point x="28" y="577" type="line"/>
      <point x="28" y="545" type="line"/>
      <point x="428" y="363" type="line"/>
      <point x="428" y="359" type="line"/>
      <point x="28" y="177" type="line"/>
    </contour>
    <contour>
      <point x="28" y="0" type="line"/>
      <point x="459" y="0" type="line"/>
      <point x="459" y="28" type="line"/>
      <point x="28" y="28" type="line"/>
    </contour>
  </outline>
</glyph>
<glyph name="blackCircle" format="2">
  <advance width="698"/>
  <unicode hex="25CF"/>
  <anchor x="349" y="365" name="center"/>
  <outline>
    <contour>
      <point x="349" y="-9" type="curve" smooth="yes"/>
      <point x="155" y="-9"/>
      <point x="60" y="142"/>
      <point x="60" y="365" type="curve" smooth="yes"/>
      <point x="60" y="588"/>
      <point x="155" y="739"/>
      <point x="349" y="739" type="curve" smooth="yes"/>
      <point x="543" y="739"/>
      <point x="638" y="589"/>
      <point x="638" y="365" type="curve" smooth="yes"/>
      <point x="638" y="141"/>
      <point x="543" y="-9"/>
    </contour>
  </outline>
</glyph>
<glyph name="whiteFrowningFace" format="2">
  <advance width="869"/>
  <unicode hex="2639"/>
  <outline>
    <contour>
      <point x="435" y="-10" type="curve" smooth="yes"/>
      <point x="652" y="-10"/>
      <point x="809" y="140"/>
      <point x="809" y="366" type="curve" smooth="yes"/>
      <point x="809" y="590"/>
      <point x="652" y="739"/>
      <point x="435" y="739" type="curve" smooth="yes"/>
      <point x="218" y="739"/>
      <point x="60" y="590"/>
      <point x="60" y="366" type="curve" smooth="yes"/>
      <point x="60" y="140"/>
      <point x="218" y="-10"/>
    </contour>
    <contour>
      <point x="194" y="156" type="curve"/>
      <point x="227" y="156" type="line"/>
      <point x="258" y="235"/>
      <point x="337" y="285"/>
      <point x="433" y="285" type="curve" smooth="yes"/>
      <point x="532" y="285"/>
      <point x="611" y="235"/>
      <point x="640" y="156" type="curve"/>
      <point x="674" y="156" type="line"/>
      <point x="641" y="254"/>
      <point x="554" y="316"/>
      <point x="433" y="316" type="curve" smooth="yes"/>
      <point x="314" y="316"/>
      <point x="226" y="254"/>
    </contour>
    <contour>
      <point x="435" y="19" type="curve" smooth="yes"/>
      <point x="237" y="19"/>
      <point x="93" y="158"/>
      <point x="93" y="366" type="curve" smooth="yes"/>
      <point x="93" y="572"/>
      <point x="237" y="710"/>
      <point x="435" y="710" type="curve" smooth="yes"/>
      <point x="632" y="710"/>
      <point x="776" y="572"/>
      <point x="776" y="366" type="curve" smooth="yes"/>
      <point x="776" y="158"/>
      <point x="632" y="19"/>
    </contour>
    <contour>
      <point x="358" y="412" type="curve" smooth="yes"/>
      <point x="385" y="412"/>
      <point x="406" y="431"/>
      <point x="406" y="458" type="curve" smooth="yes"/>
      <point x="406" y="485"/>
      <point x="385" y="504"/>
      <point x="358" y="504" type="curve" smooth="yes"/>
      <point x="331" y="504"/>
      <point x="310" y="485"/>
      <point x="310" y="458" type="curve" smooth="yes"/>
      <point x="310" y="431"/>
      <point x="331" y="412"/>
    </contour>
    <contour>
      <point x="512" y="412" type="curve" smooth="yes"/>
      <point x="539" y="412"/>
      <point x="560" y="431"/>
      <point x="560" y="458" type="curve" smooth="yes"/>
      <point x="560" y="485"/>
      <point x="539" y="504"/>
      <point x="512" y="504" type="curve" smooth="yes"/>
      <point x="485" y="504"/>
      <point x="464" y="485"/>
      <point x="464" y="458" type="curve" smooth="yes"/>
      <point x="464" y="431"/>
      <point x="485" y="412"/>
    </contour>
  </outline>
</glyph>
<glyph name="checkmark" format="2">
  <advance width="709"/>
  <unicode hex="2713"/>
  <outline>
    <contour>
      <point x="247" y="137" type="line"/>
      <point x="753" y="560" type="line"/>
      <point x="730" y="587" type="line"/>
      <point x="251" y="187" type="line"/>
      <point x="87" y="412" type="line"/>
      <point x="61" y="389" type="line"/>
    </contour>
  </outline>
</glyph>
<glyph name="fi" format="2">
  <advance width="320"/>
  <unicode hex="FB01"/>
  <outline>
    <contour>
      <point x="63" y="0" type="line"/>
      <point x="92" y="0" type="line"/>
      <point x="92" y="489" type="line"/>
      <point x="231" y="489" type="line"/>
      <point x="231" y="0" type="line"/>
      <point x="260" y="0" type="line"/>
      <point x="260" y="516" type="line"/>
      <point x="92" y="516" type="line"/>
      <point x="92" y="648" type="line" smooth="yes"/>
      <point x="92" y="684"/>
      <point x="100" y="700"/>
      <point x="132" y="700" type="curve" smooth="yes"/>
      <point x="149" y="700" type="line"/>
      <point x="149" y="729" type="line"/>
      <point x="132" y="729" type="line" smooth="yes"/>
      <point x="91" y="729"/>
      <point x="63" y="712"/>
      <point x="63" y="654" type="curve" smooth="yes"/>
      <point x="63" y="516" type="line"/>
      <point x="23" y="516" type="line"/>
      <point x="23" y="489" type="line"/>
      <point x="63" y="489" type="line"/>
    </contour>
    <contour>
      <point x="246" y="616" type="curve" smooth="yes"/>
      <point x="259" y="616"/>
      <point x="269" y="625"/>
      <point x="269" y="639" type="curve" smooth="yes"/>
      <point x="269" y="653"/>
      <point x="259" y="662"/>
      <point x="246" y="662" type="curve" smooth="yes"/>
      <point x="233" y="662"/>
      <point x="223" y="653"/>
      <point x="223" y="639" type="curve" smooth="yes"/>
      <point x="223" y="625"/>
      <point x="233" y="616"/>
    </contour>
  </outline>
</glyph>
<glyph name="G.ss06" format="2">
  <advance width="417"/>
  <anchor x="208" y="0" name="bottom"/>
  <anchor x="210" y="729" name="top"/>
  <outline>
    <contour>
      <point x="210" y="-10" type="curve" smooth="yes"/>
      <point x="299" y="-10"/>
      <point x="372" y="44"/>
      <point x="372" y="257" type="curve" smooth="yes"/>
      <point x="372" y="375" type="line"/>
      <point x="198" y="375" type="line"/>
      <point x="198" y="344" type="line"/>
      <point x="369" y="344" type="line"/>
      <point x="339" y="375" type="line"/>
      <point x="339" y="257" type="line" smooth="yes"/>
      <point x="339" y="105"/>
      <point x="302" y="19"/>
      <point x="209" y="19" type="curve" smooth="yes"/>
      <point x="105" y="19"/>
      <point x="78" y="159"/>
      <point x="78" y="364" type="curve" smooth="yes"/>
      <point x="78" y="570"/>
      <point x="105" y="709"/>
      <point x="210" y="709" type="curve" smooth="yes"/>
      <point x="293" y="709"/>
      <point x="329" y="650"/>
      <point x="340" y="495" type="curve"/>
      <point x="372" y="495" type="line"/>
      <point x="364" y="641"/>
      <point x="331" y="738"/>
      <point x="212" y="738" type="curve" smooth="yes"/>
      <point x="114" y="738"/>
      <point x="45" y="668"/>
      <point x="45" y="364" type="curve" smooth="yes"/>
      <point x="45" y="65"/>
      <point x="113" y="-10"/>
    </contour>
  </outline>
</glyph>
<glyph name="I.ss02" format="2">
  <advance width="211"/>
  <anchor x="106" y="0" name="bottom"/>
  <anchor x="205" y="0" name="ogonek"/>
  <anchor x="106" y="729" name="top"/>
  <anchor x="-5" y="729" name="topleft"/>
  <outline>
    <contour>
      <point x="90" y="21" type="line"/>
      <point x="121" y="21" type="line"/>
      <point x="121" y="708" type="line"/>
      <point x="90" y="708" type="line"/>
    </contour>
    <contour>
      <point x="6" y="700" type="line"/>
      <point x="205" y="700" type="line"/>
      <point x="205" y="729" type="line"/>
      <point x="6" y="729" type="line"/>
    </contour>
    <contour>
      <point x="6" y="0" type="line"/>
      <point x="205" y="0" type="line"/>
      <point x="205" y="29" type="line"/>
      <point x="6" y="29" type="line"/>
    </contour>
  </outline>
</glyph>
<glyph name="_B.currency" format="2">
  <advance width="397"/>
  <anchor x="213" y="0" name="bottom"/>
  <outline>
    <contour>
      <point x="78" y="0" type="line"/>
      <point x="184" y="0" type="line" smooth="yes"/>
      <point x="303" y="0"/>
      <point x="348" y="81"/>
      <point x="348" y="200" type="curve" smooth="yes"/>
      <point x="348" y="279"/>
      <point x="318" y="355"/>
      <point x="253" y="374" type="curve"/>
      <point x="253" y="376" type="line"/>
      <point x="299" y="392"/>
      <point x="335" y="456"/>
      <point x="335" y="543" type="curve" smooth="yes"/>
      <point x="335" y="670"/>
      <point x="283" y="729"/>
      <point x="185" y="729" type="curve" smooth="yes"/>
      <point x="78" y="729" type="line"/>
    </contour>
    <contour>
      <point x="109" y="29" type="line"/>
      <point x="109" y="359" type="line"/>
      <point x="195" y="359" type="line" smooth="yes"/>
      <point x="270" y="359"/>
      <point x="314" y="299"/>
      <point x="314" y="201" type="curve" smooth="yes"/>
      <point x="314" y="77"/>
      <point x="270" y="29"/>
      <point x="184" y="29" type="curve" smooth="yes"/>
    </contour>
    <contour>
      <point x="109" y="389" type="line"/>
      <point x="109" y="700" type="line"/>
      <point x="184" y="700" type="line" smooth="yes"/>
      <point x="272" y="700"/>
      <point x="304" y="635"/>
      <point x="304" y="539" type="curve" smooth="yes"/>
      <point x="304" y="449"/>
      <point x="264" y="389"/>
      <point x="194" y="389" type="curve" smooth="yes"/>
    </contour>
  </outline>
</glyph>
<glyph name="_Thorn.bowl" format="2">
  <advance width="346"/>
  <anchor x="38" y="0" name="_bottom"/>
  <outline>
    <contour>
      <point x="40" y="158" type="line"/>
      <point x="139" y="158" type="line" smooth="yes"/>
      <point x="257" y="158"/>
      <point x="306" y="241"/>
      <point x="306" y="365" type="curve" smooth="yes"/>
      <point x="306" y="489"/>
      <point x="256" y="572"/>
      <point x="139" y="572" type="curve" smooth="yes"/>
      <point x="40" y="572" type="line"/>
      <point x="40" y="544" type="line"/>
      <point x="137" y="544" type="line" smooth="yes"/>
      <point x="220" y="544"/>
      <point x="273" y="494"/>
      <point x="273" y="365" type="curve" smooth="yes"/>
      <point x="273" y="234"/>
      <point x="219" y="186"/>
      <point x="137" y="186" type="curve" smooth="yes"/>
      <point x="40" y="186" type="line"/>
    </contour>
  </outline>
</glyph>
<glyph name="_baht.bar" format="2">
  <advance width="108"/>
  <anchor x="87" y="0" name="_bottom"/>
  <outline>
    <contour>
      <point x="40" y="-85" type="line"/>
      <point x="68" y="-85" type="line"/>
      <point x="68" y="12" type="line"/>
      <point x="40" y="12" type="line"/>
    </contour>
    <contour>
      <point x="40" y="713" type="line"/>
      <point x="68" y="713" type="line"/>
      <point x="68" y="815" type="line"/>
      <point x="40" y="815" type="line"/>
    </contour>
  </outline>
</glyph>
<glyph name="_bitcoin.bars" format="2">
  <advance width="185"/>
  <anchor x="127" y="0" name="_bottom"/>
  <outline>
    <contour>
      <point x="40" y="-85" type="line"/>
      <point x="68" y="-85" type="line"/>
      <point x="68" y="12" type="line"/>
      <point x="40" y="12" type="line"/>
    </contour>
    <contour>
      <point x="117" y="-85" type="line"/>
      <point x="145" y="-85" type="line"/>
      <point x="145" y="12" type="line"/>
      <point x="117" y="12" type="line"/>
    </contour>
    <contour>
      <point x="40" y="713" type="line"/>
      <point x="68" y="713" type="line"/>
      <point x="68" y="815" type="line"/>
      <point x="40" y="815" type="line"/>
    </contour>
    <contour>
      <point x="117" y="713" type="line"/>
      <point x="145" y="713" type="line"/>
      <point x="145" y="815" type="line"/>
      <point x="117" y="815" type="line"/>
    </contour>
  </outline>
</glyph>
<glyph name="_circle" format="2">
  <advance width="698"/>
  <outline>
    <contour>
      <point x="349" y="-9" type="curve" smooth="yes"/>
      <point x="543" y="-9"/>
      <point x="638" y="141"/>
      <point x="638" y="365" type="curve" smooth="yes"/>
      <point x="638" y="589"/>
      <point x="543" y="739"/>
      <point x="349" y="739" type="curve" smooth="yes"/>
      <point x="155" y="739"/>
      <point x="60" y="588"/>
      <point x="60" y="365" type="curve" smooth="yes"/>
      <point x="60" y="142"/>
      <point x="155" y="-9"/>
    </contour>
    <contour>
      <point x="349" y="21" type="curve" smooth="yes"/>
      <point x="196" y="21"/>
      <point x="93" y="132"/>
      <point x="93" y="365" type="curve" smooth="yes"/>
      <point x="93" y="598"/>
      <point x="196" y="710"/>
      <point x="349" y="710" type="curve" smooth="yes"/>
      <point x="503" y="710"/>
      <point x="605" y="599"/>
      <point x="605" y="365" type="curve" smooth="yes"/>
      <point x="605" y="132"/>
      <point x="503" y="21"/>
    </contour>
  </outline>
</glyph>
